<?xml version="1.0" encoding="UTF-8"?>
<svg id="Layer_1" data-name="Layer 1" xmlns="http://www.w3.org/2000/svg" viewBox="0 0 1790.17 1581.83">
  <path d="M667.49,59.15v74.89h85.09c42.75,1.04,66.69,8.33,82.63,25.14,10.96,11.56,18.48,28.45,22.79,51.56v197.25c-3.57,21.03-9.37,34.97-17.7,43.34-10.18,10.23-24.98,12.88-44.33,13.35h-17.72c-2.36-.04-4.74-.08-7.2-.12-5.93-.11-12.15-.23-18.66-.26h-84.88v.38h-119.28c-3.38,0-6.11,2.74-6.11,6.11s2.74,6.11,6.11,6.11c65.77,0,119.28,53.66,119.28,119.62v305.89c0,57.29,47.26,103.91,105.36,103.91s105.36-46.61,105.36-103.91h.17V125.51l4.57-66.35h-215.45Z" style="fill: #231f20;"/>
  <path d="M1742.36,996.83h6.11v-389.51c0-55.71-47.76-101.04-106.46-101.04s-106.46,45.33-106.46,101.04v210.54c0,87.77-40.58,147.13-108.2,162.66h-224.04c-56.6-4.96-56.65-36.63-56.65-60.28h-.47v-13.7h-204.77v86.21h.06c1.33,45.47,46.7,82.13,102.32,82.13,34.04,0,64.23-13.74,82.86-34.81,2.33-1.44,4.55-3.02,6.47-4.88,25.82-25.03,152.34-33.18,198.91-34.21v-.08h410.31v-4.08Z" style="fill: #231f20;"/>
  <path d="M1047.41,601.85c29.59,0,56.39-13.81,75.71-36.03l.45-.45c.84-.84,75.13-73.29,196.35-91.42h422.43v-7.97h1.31v-6.11c0-73.68-47.76-133.63-106.46-133.63s-103.71,56.56-106.34,127.33h-277.41c-57.2-14.36-99.58-65.01-99.58-125.11v-41.8c0-32.91,21.92-60.87,52.29-70.96h325.35c6.27,37.65,51.26,66.94,105.69,66.94,58.7,0,106.46-34.07,106.46-75.95v-6.11h-1.31v-5.26h-588.48v-116.34h588.48v-4.08h1.31V0h-212.93v58.59h-587.28v4.08h-2.51v407.21h.46c-.29,3.62-.46,7.27-.46,10.97,0,66.72,47.76,121,106.46,121Z" style="fill: #231f20;"/>
  <path d="M346.25,368.27l-270.57,181.65c-2.5,1.77-61.14,44.08-61.14,99.93v111.09c0,57.3,46.39,103.91,103.4,103.91s103.4-46.61,103.4-103.91v-188.09c0-50.55,42.38-91.68,94.48-91.68s94.48,41.13,94.48,91.68v188.09c0,57.3,46.39,103.91,103.4,103.91s103.4-46.61,103.4-103.91v-109c0-2.23-.25-54.96-44.65-87.28-47.8-34.81-105.35-75.27-105.92-75.67l-.36-.24c-.54-.33-54.41-33.55-47.68-87.69,5.32-42.79,31.65-78.58,103.97-133.53l98.72-64.1V58.59H213.41V0H0v74.89h.61v4.08h399v200.48c-7.43,27.68-22.56,62.59-53.36,88.82Z" style="fill: #231f20;"/>
  <path d="M877.19,1284.1H350.26c-69.51-5.51-124.8-82.71-124.8-176.86v-88.24h-.27c-3.67-45.81-48.24-82.13-102.52-82.13s-98.85,36.32-102.52,82.13h-.27v407.21h.34c-.21,2.68-.34,5.39-.34,8.13,0,57.3,46.11,103.91,102.8,103.91s102.8-46.61,102.8-103.91c0-2.74-.14-5.44-.34-8.13h.34v-5.91c4.82-91.77,51.24-109.7,99.58-115.81h257.12c39.32,6.52,94.18,23.62,108.19,68.47,1.59,5.09,3.5,9.62,5.71,13.66,16.64,36.02,40.58,50.81,78.48,53.82,1.76.14,3.51.21,5.26.21,18.09,0,35.64-7.43,51.06-21.67,28.97-26.76,46.96-74.51,46.96-124.61v-6.11h-.63v-4.14Z" style="fill: #231f20;"/>
  <path d="M1790.17,1254.67c0-69.79-61.08-126.56-136.16-126.56h-580.51c-75.08,0-136.16,56.77-136.16,126.56s61.08,126.56,136.16,126.56h187.01c5.82.63,137.01,15.68,148.54,77.4,1.02,5.48,2.28,10.52,3.76,15.14,14.84,55.86,35.85,91.03,62.19,103.3,6.82,3.18,13.94,4.76,21.25,4.76,11.93,0,24.35-4.21,36.75-12.56,24.17-16.28,32.15-48.69,40.6-83,12.07-49.03,24.55-99.72,86.39-105.18,72.31-2.93,130.17-58.5,130.17-126.42ZM1652.29,1249.24c-2.12,21.77-11.82,41.51-29.1,58.81-29.12,29.15-77.86,48.35-134.56,54.44h-242.14c-48.7-8.94-85.82-49.22-87.25-97.88v-18.8c1.64-56.83,63.89-96.24,119.88-96.24v-.07h373.17v99.74Z" style="fill: #231f20;"/>
</svg>