<?xml version="1.0" encoding="UTF-8"?>
<svg id="Layer_1" xmlns="http://www.w3.org/2000/svg" version="1.1" viewBox="0 0 2084.9 2006.8">
  <!-- Generator: Adobe Illustrator 29.2.1, SVG Export Plug-In . SVG Version: 2.1.0 Build 116)  -->
  <path d="M534.5,724.4c-.2,6.2-.8,12.6-1.5,18.8-2.6,21.7-20.6,45.5-39,56.5s-59.7,15.2-85.3-.2c-15.3-9.2-20-17.8-23.7-22.8-11.9-16.2-17.9-30.5-16.6-51.2,0-.2,0-.7,0-.9.6-7,.5-14-.4-21.2-3.1-25.5-25.7-53.3-47.8-66.1-12-7-32.1-11.6-52.9-11.5-17.4,0-35.4,3.5-49.4,11.7-18.3,10.7-24,20.9-28.4,26.7-14.2,19-21.4,35.8-19.9,60,0,.2,0,.3,0,.5,0,.2,0,.6.1.8,1.3,20.7-4.9,35.1-17,51.2-3.8,5-8.6,13.7-24.2,22.8-26.2,15.4-68.5,11.1-87.3.2-18.8-10.9-38.2-34.7-40.8-56.5-.4-3.3-.3-22.4-.3-22.4,1.5-65.7,16.7-109.7,54.6-160.3,11.7-15.6,58.8-67.2,75.9-71.4,3.8-.9,7.7,1.1,10.4-3.4,1.9-3.8-14.2-14.8-6.8-22.5,2.5-2.6,7.7-5.8,14.1-6h241.7c2.4,1.7,3.6,4.6,2.6,9.9-.5,2.9-8.4,8.8-5.6,13.4,1.2,1.9,10.3,4.4,13.1,5.9,60.1,33.1,123,109.3,131.5,178.8,2.4,19.9,3.7,39.4,3,59.2h0Z"/>
  <path d="M534.5,1120.6c-.2,6.2-.8,12.6-1.5,18.8-2.6,21.7-20.6,45.6-39,56.5-18.4,10.9-59.7,15.2-85.3-.2-15.3-9.2-20-17.8-23.7-22.8-11.9-16.2-17.9-30.5-16.6-51.2,0-.2,0-.7,0-.9.6-7,.5-14-.4-21.2-3.1-25.5-25.7-53.3-47.8-66.1-12-6.9-32.1-11.6-52.9-11.5-17.4,0-35.4,3.5-49.4,11.7-18.3,10.7-24,20.9-28.4,26.7-14.2,18.9-21.4,35.8-19.9,60,0,.2,0,.3,0,.5,0,.2,0,.6.1.8,1.3,20.7-4.9,35.1-17,51.2-3.8,5-8.6,13.7-24.2,22.8-26.2,15.4-68.5,11.1-87.3.2-18.8-10.9-38.2-34.7-40.8-56.5-.4-3.3-.3-22.4-.3-22.4,1.5-65.7,16.7-109.7,54.6-160.3,11.7-15.6,58.8-67.2,75.9-71.4,3.8-.9,7.7,1.1,10.4-3.4,1.9-3.8-14.2-14.8-6.8-22.5,2.5-2.6,7.7-5.8,14.1-6h241.7c2.4,1.7,3.6,4.6,2.6,9.9-.5,2.9-8.4,8.8-5.6,13.3,1.2,1.8,10.3,4.4,13.1,5.9,60.1,33.1,123,109.3,131.5,178.8,2.4,19.9,3.7,39.4,3,59.2h0Z"/>
  <path d="M1924.6,1525.9c-.2,6.2-.8,12.6-1.5,18.8-2.6,21.7-20.6,45.6-39,56.5-18.4,10.9-59.7,15.2-85.3-.2-15.3-9.2-20-17.8-23.7-22.8-11.9-16.2-17.9-30.5-16.6-51.2,0-.2,0-.7,0-.9.6-7,.5-14-.4-21.2-3.1-25.5-25.7-53.3-47.8-66.1-12-6.9-32.1-11.6-52.9-11.5-17.4,0-35.4,3.5-49.4,11.7-18.3,10.7-24,20.9-28.4,26.7-14.2,18.9-21.4,35.8-19.9,60,0,.2,0,.3,0,.5,0,.2,0,.6,0,.8,1.3,20.7-4.9,35.1-17,51.2-3.8,5-8.6,13.7-24.2,22.8-26.2,15.4-68.5,11.1-87.3.2-18.8-10.9-38.2-34.7-40.8-56.5-.4-3.3-.3-22.4-.3-22.4,1.4-65.7,16.7-109.7,54.7-160.3,11.7-15.6,58.8-67.2,75.9-71.4,3.8-.9,7.7,1.1,10.3-3.4,1.9-3.8-14.2-14.8-6.8-22.5,2.5-2.6,7.7-5.8,14.1-6h241.7c2.4,1.7,3.6,4.6,2.6,9.9-.6,2.9-8.4,8.8-5.6,13.3,1.2,1.8,10.3,4.4,13.1,5.9,60.1,33.1,123,109.3,131.5,178.8,2.4,19.9,3.6,39.4,2.9,59.2h0Z"/>
  <path d="M1924.8,1739.7c0,1.3-.2,2.8-.2,4-3.2,67.4-16.7,109.2-54.7,159.8-11.7,15.6-58.8,67.2-75.9,71.4-3.8.9-7.7-1.1-10.3,3.4-1.9,3.8,14.2,14.8,6.8,22.5-2.5,2.6-7.7,5.8-14.1,6h-241.7c-2.4-1.7-3.6-4.6-2.6-9.9.6-2.9,8.4-8.8,5.6-13.3-1.2-1.8-10.3-4.4-13.1-5.9-60.1-33.1-123-109.3-131.5-178.8-1.1-9.2-1.9-18-2.3-26.9-.4-10.1-.9-20.7-.4-31.5,0-.3,0-.5,0-.8-.6-6.1-.5-12.2.3-18.5,2.7-21.7,22-45.5,40.8-56.5,18.8-10.9,61.1-15.2,87.3.2,15.6,9.1,20.5,17.8,24.2,22.8,12.1,16.2,18.3,30.5,17,51.2,0,.2,0,.5,0,.7.2,2.7.5,5.4,1,7.6,0,1,.8,2.7,1.7,4.8.7,1.6,1.5,3.6,2.6,5.7,8.6,17.5,29,49.8,39.8,59.7,3.7,3.4,15.2,12.2,21,15.3,6.8,3.7,19,6,32,6.6,18.1.8,37.7-1.7,46.1-8.3,12.7-9.9,35.7-30.2,44.1-53.3,6-12.1,9.7-24.9,10.8-38,0-.2,0-.4,0-.7-1.2-20.7,5-35.2,16.8-51.3,3.7-5,8.4-13.7,23.6-22.8,25.6-15.4,66.7-11.1,85.1-.2,18.4,10.9,37.2,34.7,39.8,56.5.7,6.2.9,12.4.6,18.5h0Z"/>
  <path d="M1122.7,1739.7c0,1.3-.2,2.8-.2,4-3.2,67.4-16.7,109.2-54.7,159.8-11.7,15.6-58.8,67.2-75.9,71.4-3.8.9-7.7-1.1-10.3,3.4-1.9,3.8,14.2,14.8,6.8,22.5-2.5,2.6-7.7,5.8-14.1,6h-241.7c-2.4-1.7-3.6-4.6-2.6-9.9.5-2.9,8.4-8.8,5.6-13.3-1.2-1.8-10.3-4.4-13.1-5.9-60.1-33.1-123-109.3-131.5-178.8-1.1-9.2-1.9-18-2.3-26.9-.2-4.7-.3-9.3-.3-14.1h0v-414.7h0c-.6-6.1-.5-12.2.3-18.5,2.7-21.7,22-45.5,40.8-56.4,18.8-10.9,61.1-15.2,87.3.2,15.6,9.1,20.5,17.8,24.2,22.8,12.1,16.2,18.3,30.5,17,51.2,0,.2,0,.5,0,.7h0v396.8h.1c.2,2.7.5,5.1,1,7.3,0,1,.5,2.7,1.4,4.8.7,1.6,1.5,3.6,2.5,5.7,8.5,17.5,29,49.8,39.8,59.7,3.7,3.4,15.3,12.2,21,15.3,6.8,3.7,19,6,32,6.6,18.1.8,37.7-1.7,46.1-8.3,12.7-9.9,35.7-30.2,44.1-53.3,6-12.1,9.7-24.9,10.8-38,0-.2,0-.4,0-.7-1.2-20.7,5-35.2,16.8-51.3,3.7-5,8.4-13.7,23.6-22.8,25.6-15.4,66.7-11.1,85.1-.2,18.4,10.9,37.2,34.7,39.8,56.5.7,6.2.9,12.4.6,18.5h0Z"/>
  <g>
    <path d="M1924.5,267.1c-.2,6.2-.8,12.6-1.5,18.8-2.6,21.7-20.6,45.5-39,56.5s-59.7,15.2-85.3-.2c-15.3-9.1-20-17.8-23.7-22.8-11.9-16.2-17.9-30.5-16.6-51.2,0-.2,0-.7,0-.9.6-7,.5-14-.4-21.2-3.1-25.5-25.7-53.4-47.8-66.1-12-6.9-32.1-11.6-52.9-11.5-17.4,0-35.4,3.5-49.4,11.7-18.3,10.7-24,20.9-28.4,26.7-14.2,18.9-20.7,35.3-20.5,60,0,.2,0,.3,0,.5h-168.8c0-.1,0-.4,0-.7,0-1,.1-2.2.1-3.1,1.4-65.7,16.4-109.7,54.4-160.3,11.7-15.6,58.8-67.2,75.9-71.4,3.8-.9,7.7,1.1,10.4-3.4,1.9-3.8-14.2-14.8-6.8-22.5C1526.6,3.4,1531.8.2,1538.2,0h241.7c2.4,1.7,3.6,4.6,2.6,9.9-.6,2.9-8.4,8.8-5.6,13.4,1.2,1.9,10.3,4.4,13.1,5.9,60.1,33.1,123,109.3,131.5,178.8,2.4,19.9,3.6,39.4,2.9,59.2h0Z"/>
    <path d="M1924.5,534.4c0,1.3-.2,2.8-.2,4-3.2,67.4-16.7,109.2-54.7,159.9-11.7,15.6-58.8,67.2-75.9,71.4-3.8.9-7.7-1.1-10.3,3.4-1.9,3.8,14.2,14.8,6.8,22.5-2.5,2.6-7.7,5.8-14.1,6h-241.7c-2.4-1.7-3.6-4.6-2.6-9.9.5-2.9,8.4-8.8,5.6-13.3-1.2-1.8-10.3-4.4-13.1-5.9-60.1-33.1-123-109.3-131.5-178.8-1.1-9.2-1.9-18-2.3-26.9-.4-10.1-.4-20.3,0-31.1,0-.3,0-.5,0-.8h169.4c.2,2.6.5,5,1,7.2,0,1,.5,2.7,1.4,4.8.7,1.6,1.5,3.5,2.5,5.7,8.6,17.5,29,49.8,39.8,59.7,3.7,3.4,15.2,12.2,21,15.3,6.8,3.7,19,6,32,6.6,18.1.8,37.7-1.7,46.1-8.3,12.7-10,35.7-30.2,44.1-53.3,6-12.1,9.7-24.9,10.8-38,0-.2,0-.5,0-.7-1.2-20.7,5-35.2,16.8-51.4,3.7-5,8.4-13.7,23.6-22.8,25.6-15.4,66.7-11.1,85.1-.2,18.4,10.9,37.2,34.7,39.8,56.5.7,6.2.9,12.4.6,18.5h0Z"/>
    <path d="M1702.1,431.3c-6.8,18.6-25.4,35-35.6,43-6.6,5.2-21.6,7.3-35.8,6.8h-241v-160.3h241c16.3,0,31.9,3.8,41.3,9.2,17.8,10.3,36.1,32.8,38.6,53.4,2,16.6-1.1,32.9-8.4,47.8h0Z"/>
  </g>
  <path d="M1123.1,724.4v213.8c-.1,1.3-.2,2.8-.2,4-3.2,67.4-16.7,109.2-54.7,159.9-11.7,15.6-58.8,67.2-75.9,71.4-3.8.9-7.7-1.1-10.4,3.4-1.9,3.8,14.2,14.8,6.8,22.5-2.5,2.6-7.7,5.8-14.1,6h-242c-2.4-1.7-3.6-4.6-2.6-9.9.5-2.9,8.4-8.8,5.6-13.3-1.2-1.8-10.4-4.4-13.1-5.9-60.3-33.1-123.3-109.3-131.8-178.8-1.1-9.2-1.9-18-2.3-26.9-.5-10.1-.4-20.3,0-31.1v-.8c0-6.2-.1-12.1.6-18.3,2.7-21.7,22-45.5,40.8-56.5,18.8-10.9,61.1-15.2,87.3.2,15.6,9.1,20.5,17.8,24.2,22.8,12.1,16.2,18.3,30.5,17,51.2v1.8c.2,2.6.5,3.8.9,6,0,1,.5,2.7,1.4,4.8.7,1.6,1.5,3.5,2.5,5.7,8.6,17.5,29,49.8,39.9,59.7,3.7,3.4,15.3,12.2,21,15.3,6.8,3.7,19.1,6,32.1,6.6,18.1.8,37.7-1.7,46.1-8.3,12.7-10,35.7-30.2,44.1-53.3,6-12,10.4-26.9,11.1-38.1.8-11.1.6-213.8.6-213.8,0-7.1-.6-14-1.5-21-3.1-25.5-25.7-53.3-47.8-66.1-12-7-32.1-11.6-52.9-11.5h-23.1v-.2c-14.9.5-30.7-1.6-37.6-7.1-10.8-8.4-30.3-25.6-37.4-45.2-7.7-15.7-11-32.8-8.8-50.2,2.7-21.6,21.8-45.3,40.5-56.1,9.9-5.7,26.3-9.6,43.3-9.7h145.7c2.4,1.7,3.6,4.6,2.6,9.9-.5,2.9-8.4,8.8-5.6,13.4,1.2,1.9,10.3,4.4,13.1,5.9,60.1,33.1,123,109.4,131.5,178.8,2.4,19.9,3.4,39.4,2.7,59.2h.2Z"/>
  <path d="M2084.8,938.2c-.1,1.3-.1,2.8-.2,4-3.1,67.4-16.7,109.2-54.7,159.9-11.7,15.6-58.8,67.2-75.9,71.4-3.8.9-7.7-1.1-10.3,3.4-1.9,3.8,14.2,14.8,6.8,22.5-2.5,2.6-7.7,5.8-14.1,6h-561.8c-2.4-1.7-3.6-4.6-2.6-9.9.6-2.9,8.4-8.8,5.6-13.3-1.2-1.8-10.3-4.4-13.1-5.9-60.1-33.1-123-109.3-131.5-178.8-1.1-9.2-1.9-18-2.3-26.9-.4-10.1-.9-20.7-.4-31.5,0-.3,0-.5,0-.8-.6-6.1-.5-12.2.3-18.5,2.7-21.7,22-45.5,40.8-56.5,18.8-10.9,61.1-15.2,87.3.2,15.6,9.1,20.5,17.8,24.2,22.8,12.1,16.2,18.3,30.5,17,51.2,0,.2,0,.5,0,.7.2,2.7.5,5.4,1,7.6,0,1,.8,2.7,1.7,4.8.7,1.6,1.5,3.5,2.6,5.7,8.6,17.5,29,49.8,39.8,59.7,3.7,3.4,15.2,12.2,21,15.3,6.8,3.7,19,6.4,32,7.1h77v-119.8c0-6.3-.1-12.6.6-19,2.6-22.4,21.3-46.8,39.6-58.1,18.2-11.2,59.2-15.6,84.6.2,15.1,9.4,19.9,18.3,23.5,23.5,11.8,16.6,18,31.4,16.7,52.7,0,.2,0,.5,0,.7v119.8h78.1c18.1.3,37.7-2.1,46.1-8.7,12.7-10,35.7-30.2,44.1-53.3,6-12.1,9.7-24.9,10.8-38,0-.2,0-.5,0-.7-1.2-20.7,5-35.2,16.8-51.3,3.7-5,8.4-13.7,23.6-22.8,25.6-15.4,66.7-11.1,85.1-.2,18.4,10.9,37.2,34.7,39.8,56.5.7,6.2.9,12.4.6,18.5h0Z"/>
</svg>