<?xml version="1.0" encoding="UTF-8"?>
<svg id="Layer_1" data-name="Layer 1" xmlns="http://www.w3.org/2000/svg" viewBox="0 0 2276.42 1581.83">
  <path d="M1025.45,1581.83c-275.14,0-504.02-218.37-514.56-495.62l56.26-2.14c9.62,252.85,223.13,450.76,475.99,441.12l2.14,56.26c-6.62.25-13.25.38-19.83.38Z" style="fill: #231f20;"/>
  <g>
    <path d="M534.39,1096.19l-2.14-56.26c126.67-4.82,242.66-59.82,326.59-154.88l42.21,37.27c-94.23,106.72-224.45,168.46-366.66,173.87Z" style="fill: #231f20;"/>
    <path d="M514.57,1096.57C239.43,1096.57,10.54,878.2,0,600.95l56.26-2.14c9.61,252.85,223.21,450.64,475.99,441.12l2.14,56.26c-6.62.25-13.25.38-19.82.38Z" style="fill: #231f20;"/>
  </g>
  <g>
    <path d="M323.55,1282.58c-18.33,0-36.78-2.03-55.1-6.14l12.33-54.94c50.32,11.29,102.01,2.32,145.57-25.27,43.56-27.59,73.77-70.49,85.06-120.8l54.94,12.33c-14.59,64.99-53.61,120.4-109.88,156.04-40.41,25.59-86.24,38.78-132.93,38.78Z" style="fill: #231f20;"/>
    <path d="M134.7,990.87l-54.94-12.33c30.11-134.15,163.73-218.82,297.9-188.68l-12.33,54.94c-103.87-23.31-207.32,42.21-230.63,146.07Z" style="fill: #231f20;"/>
    <path d="M268.45,1276.44c-64.98-14.58-120.4-53.61-156.04-109.87-35.64-56.27-47.23-123.04-32.64-188.03l54.94,12.33c-11.29,50.31-2.32,102.01,25.27,145.57,27.59,43.56,70.49,73.77,120.8,85.06l-12.33,54.94Z" style="fill: #231f20;"/>
  </g>
  <path d="M805.52,1367.26l-2.14-56.26c122.48-4.66,235.82-56.73,319.14-146.64,83.31-89.9,126.64-206.87,121.98-329.35-4.66-122.48-56.73-235.82-146.64-319.14-89.9-83.31-206.92-126.62-329.35-121.98l-2.14-56.26c283.82-10.77,523.59,211.37,534.39,495.24,5.23,137.51-43.41,268.83-136.94,369.76-93.54,100.93-220.78,159.4-358.3,164.63Z" style="fill: #231f20;"/>
  <path d="M1316.02,1417.98c-199.98.01-366.34-158.72-374-360.23l56.26-2.14c6.66,175.3,154.77,312.56,330.01,305.83,175.3-6.67,312.5-154.71,305.83-330.01l56.26-2.14c7.84,206.32-153.63,380.57-359.96,388.41-4.81.18-9.63.27-14.41.27Z" style="fill: #231f20;"/>
  <path d="M980.56,806.66l-41.3-38.27c91.54-98.78,246.38-104.67,345.17-13.13l-38.27,41.3c-76.03-70.46-195.17-65.91-265.6,10.1Z" style="fill: #231f20;"/>
  <path d="M2023.55,1518.36c-139.43,0-252.86-113.44-252.86-252.86s113.44-252.87,252.86-252.87,252.86,113.44,252.86,252.87-113.44,252.86-252.86,252.86ZM2023.55,1068.93c-108.38,0-196.56,88.18-196.56,196.56s88.18,196.56,196.56,196.56,196.56-88.18,196.56-196.56-88.18-196.56-196.56-196.56Z" style="fill: #231f20;"/>
  <path d="M1954.99,831.92c-114.06,0-224.2-37.65-315.61-108.88-108.55-84.58-177.67-206.37-194.62-342.93-16.95-136.57,20.3-271.56,104.88-380.11l44.41,34.61c-75.33,96.69-108.51,216.93-93.41,338.57,15.1,121.64,76.66,230.12,173.35,305.45,96.69,75.33,216.93,108.52,338.56,93.41l6.93,55.88c-21.56,2.67-43.11,4-64.49,4Z" style="fill: #231f20;"/>
  <path d="M1585.93,664.45c-8.03-64.74,9.62-128.74,49.72-180.21,40.1-51.47,97.84-84.23,162.58-92.27l6.93,55.88c-49.82,6.18-94.25,31.4-125.11,70.99-30.85,39.6-44.44,88.85-38.26,138.67l-55.88,6.93Z" style="fill: #231f20;"/>
  <path d="M1829.34,1096.22c-5.72,0-11.45-.13-17.2-.38-99.92-4.49-192.11-47.62-259.59-121.45-67.48-73.83-102.17-169.51-97.69-269.44l56.25,2.53c-3.81,84.9,25.66,166.19,83,228.92,57.33,62.73,135.66,99.37,220.56,103.18,84.83,3.85,166.2-25.66,228.92-83,62.73-57.33,99.37-135.66,103.18-220.56l56.25,2.53c-4.49,99.92-47.62,192.11-121.45,259.59-69.58,63.6-158.58,98.07-252.23,98.07Z" style="fill: #231f20;"/>
  <path d="M1866.73,1108.16c-55.94-33.58-95.45-86.93-111.26-150.23-15.81-63.29-6.02-128.96,27.55-184.89l48.28,28.98c-25.84,43.04-33.37,93.57-21.21,142.27,12.17,48.71,42.57,89.76,85.61,115.59l-28.98,48.28Z" style="fill: #231f20;"/>
</svg>