<?xml version="1.0" encoding="UTF-8"?>
<svg id="Layer_1" data-name="Layer 1" xmlns="http://www.w3.org/2000/svg" viewBox="0 0 1558.47 1581.83">
  <rect x="826.08" y="0" width="732.39" height="117.34"/>
  <rect x="826.08" y="365.91" width="732.39" height="117.34"/>
  <rect x="1108.29" y="548.86" width="167.97" height="117.34"/>
  <rect x="826.08" y="731.81" width="732.39" height="117.34"/>
  <rect x="1024.31" y="914.76" width="335.93" height="117.34"/>
  <rect x="826.08" y="1097.72" width="732.39" height="117.34"/>
  <rect x="826.08" y="1280.67" width="732.39" height="117.34"/>
  <rect x="1024.31" y="1463.62" width="335.93" height="117.34"/>
  <rect x="3.05" y="914.76" width="335.93" height="117.34"/>
  <rect x="3.05" y="1098" width="335.93" height="117.34"/>
  <rect x="3.05" y="1281.25" width="335.93" height="117.34"/>
  <rect x="0" y="1464.49" width="732.39" height="117.34"/>
  <rect x="-215.9" y="398.85" width="549.15" height="117.34" transform="translate(-398.85 516.2) rotate(-90)"/>
  <rect x="146.07" y="502.76" width="335.93" height="117.34" transform="translate(26.63 1136.95) rotate(-124.24)"/>
  <rect x="3.05" y="0" width="732.39" height="117.34"/>
  <rect x="307.52" y="490.19" width="732.39" height="117.34" transform="translate(124.86 1222.57) rotate(-90)"/>
  <rect x="387.78" y="182.95" width="167.97" height="117.34"/>
  <rect x="826.08" y="182.95" width="732.39" height="117.34"/>
</svg>