<?xml version="1.0" encoding="UTF-8"?>
<svg id="Layer_1" data-name="Layer 1" xmlns="http://www.w3.org/2000/svg" viewBox="0 0 1704.66 1581.83">
  <polygon points="465.7 1581.83 222.33 1338.45 454.31 1106.47 224.37 876.53 247.15 853.74 499.88 1106.47 267.89 1338.45 488.49 1559.05 465.7 1581.83" style="fill: #231f20;"/>
  <path d="M460.99,1106.59l-1.69-229.83-231.81-231.8v-219.33l233.49,233.49V173.99h32.22v932.48l-32.22.12ZM259.71,631.61l201.27,201.27v-128.19l-201.27-201.27v128.19Z" style="fill: #231f20;"/>
  <polygon points="259.48 638.29 227.26 638.29 227.26 212.94 22.78 417.46 0 394.68 261.17 133.45 259.47 175.89 259.48 638.29" style="fill: #231f20;"/>
  <polygon points="1333.67 1577.28 1090.3 1333.91 1333.67 1090.53 1356.46 1113.31 1135.86 1333.91 1356.46 1554.5 1333.67 1577.28" style="fill: #231f20;"/>
  <rect x="1097.09" y="927.94" width="32.22" height="405.97" style="fill: #231f20;"/>
  <path d="M1097.2,792.84v-496.19l-169.27-169.27,22.78-22.78,146.49,146.49V0h32.22v283.31l238.7,238.62-270.92,270.92ZM1129.42,328.87v386.18l193.09-193.09-193.09-193.09Z" style="fill: #231f20;"/>
  <polygon points="1361.41 1565.89 1329.19 1565.89 1329.19 135.09 1519.29 325.19 1681.88 162.6 1704.66 185.38 1519.29 370.76 1361.41 212.88 1361.41 1565.89" style="fill: #231f20;"/>
</svg>