<?xml version="1.0" encoding="UTF-8"?>
<svg id="Layer_1" data-name="Layer 1" xmlns="http://www.w3.org/2000/svg" viewBox="0 0 4116.02 1205.95">
  <path d="M489.26,221.07L21.7,5.04S.99-11.73,0,15.89l11.84,135.14,342.29,158.81s-181.5,79.9-316.64,323.54l83.85,133.17s105.55-235.75,243.64-308.75c0,0,130.21-88.78,163.74-93.71l-25.65-135.14-13.81-7.89Z" style="fill: #231f20;"/>
  <path d="M1108.97,554.74l270.69,1.31s26.15-6.54,78.46,39.23c0,0,62.77,57.54,87.61,133.38,0,0,27.46,94.15-32.69,113.77,0,0-10.46,5.23-45.77,7.85l-102,2.62s-31.38,0-24.85,36.61c0,0-11.77,20.92,54.92,48.38,0,0,190.92,64.08,356.99-3.92,0,0,95.46-45.77,91.54-163.46,0,0-13.08-113.77-40.54-156.92,0,0-9.15-27.46,11.77-23.54,0,0,13.08-11.77,37.92,26.15,0,0,74.54,109.84,78.46,194.84,0,0,20.92,193.53-98.07,266.76,0,0-57.54,58.84-245.84,62.77,0,0-253.69,7.85-337.38-184.38,0,0-54.92-149.07,26.15-167.38,0,0,69.31-14.38,153-7.85,0,0,11.77-6.54,11.77-23.54,0,0,0-18.31-15.69-18.31l-343.91,1.31,27.46-185.69Z" style="fill: #231f20;"/>
  <path d="M646.21,380.77s-8.68,45.15-134.58,43.41c0,0-41.68-6.95-32.13-52.1,0,0,6.95-25.18-6.08-26.92,0,0-14.76-3.47-25.18,26.92,0,0-23.44,35.6-12.16,102.45,0,0,6.08,46.02,68.59,54.7,0,0,89.25,14.35,163.05-101.99l-21.53-46.48Z" style="fill: #231f20;"/>
  <path d="M875.66,551.61s-27.7,2.36-68.32-67.37c-3.53-6.05-6.45-12.5-8.67-19.15l-101.07-303.22s-4.64-12.17-18.56-3.28l-112.04,130.21,89.33,199.85s-15.14,78.73-234.68,75.7c0,0-3.21-.22-6.12-1.01-15.8-4.3-63.96-23.37-49.9-89.83,0,0,12.11-43.91-10.6-46.94,0,0-25.74-6.06-43.91,46.94,0,0-40.88,62.08-21.2,178.66,0,0,10.6,80.25,119.61,95.39,0,0,155.64,25.03,284.33-177.86l64.12,105.49c10.74,17.67,25.26,32.81,42.85,43.68,16.15,9.97,37.52,19.64,61.44,21.37l287.64,1.4v-186.74l-274.25-3.28Z" style="fill: #231f20;"/>
  <path d="M2753.81,650.77s36.96,11.2,73.92-77.28l104.15-312.46s4.64-12.17,18.56-3.28l112.04,130.21-89.33,199.85s15.14,78.73,234.68,75.7c0,0,121.12,168.06,12.11,183.2,0,0-155.64,25.03-284.33-177.86l-76.04,125.12s-40.12,41.64-92.36,45.42l-287.64,1.4v-186.74l274.25-3.28Z" style="fill: #231f20;"/>
  <path d="M1887.2,414.31l641.71-256.18,23.53-140.2s12.85-21.96-22.73-15.22l-581.43,225.23s-22.9,2.13-27.99,36.8l-33.09,149.57Z" style="fill: #231f20;"/>
  <path d="M1826.55,644.22s301.33,103.97,360.97,137.4l112.07-105.87c-14.71-24.7-244.77-104.18-244.77-104.18l388.21-157.9,12.73-162.04s10.82-19.94-26.94-11.08l-534.27,223.22s-27.3-.98-38.88,38.24l-29.11,142.23Z" style="fill: #231f20;"/>
  <path d="M1802.85,598.55s45.12-99.46,65.63-121,24.61,93.31,24.61,93.31l-43.07,57.42-47.17-29.74Z" style="fill: #231f20;"/>
  <g>
    <path d="M2219.62,637.32c-63.39-19.37-32.08,144.3-32.08,144.3,0,0,67.43,17.79,97.22-12.78,2.42-2.49,6.43-2.24,8.43.6,13.52,19.24,62.51,77.75,155.4,72.37,0,0,114.44,19.13,145.33-146.37,0,0,10.49-141.71-103.8-216.75,0,0-54.01-43.95-105.65,24.14l-102.04,143.9s.59,9.98-62.8-9.39Z" style="fill: #231f20;"/>
    <path d="M2437.04,583.94l-55.13,61.17s35.12,65.19,108.99,38.7c0,0,11.76-8.81,6.52-34.14,0,0,.59-7.95-21.58-32.23l-38.8-33.5Z" style="fill: #231f20;"/>
  </g>
  <polygon points="3912.78 458.09 3981.04 525.07 3913.29 594.86 3845.29 526.09 3912.78 458.09" style="fill: #231f20;"/>
  <polygon points="4047.76 457.12 4116.02 524.1 4048.27 593.9 3980.26 525.12 4047.76 457.12" style="fill: #231f20;"/>
  <polygon points="3319.3 950.61 3386.28 882.35 3456.07 950.1 3387.3 1018.1 3319.3 950.61" style="fill: #231f20;"/>
  <polygon points="1165.31 376.75 1233.57 443.73 1165.82 513.52 1097.81 444.75 1165.31 376.75" style="fill: #231f20;"/>
  <polygon points="1300.29 375.78 1368.55 442.76 1300.8 512.56 1232.79 443.78 1300.29 375.78" style="fill: #231f20;"/>
  <g>
    <path d="M3803.16,1043.67s-44.3-158.4,115.45-150.35c0,0,63.09,0,96.65,9.4l1.34-30.88s-4.03-18.79-25.51-25.51l-381.25-2.68-1.34-185.25,268.48-1.34s108.74,8.05,167.8,79.2c0,0,44.3,30.88,51.01,151.69,0,0,10.74,194.65-63.09,265.8,0,0-96.65,123.5-195.99-9.4,0,0-22.82-45.64-33.56-100.68Z" style="fill: #231f20;"/>
    <path d="M3891.76,1054.41s21.48,30.88,72.49,5.37c0,0,13.42,2.68,25.51-34.9,0,0,6.71-6.71-20.14-10.74,0,0-41.61,0-67.12,2.68,0,0-26.85,4.03-10.74,37.59Z" style="fill: #231f20;"/>
  </g>
  <path d="M3210.87,665.16s112.21,10.89,147.84-83.45c0,0,8.39-6.29,14.67-48.21,0,0,0-25.16,16.77-33.54,0,0,16.77,4.19,16.77,27.25,0,0,4.19,31.44,14.67,54.5,0,0,14.67,71.27,92.24,77.56h106.91l2.1,184.47h-138.35s-67.08,8.39-96.43-90.14c0,0-29.35,85.95-79.66,90.14l-106.91,4.19,9.38-182.78Z" style="fill: #231f20;"/>
</svg>