<?xml version="1.0" encoding="UTF-8"?>
<svg id="Layer_1" data-name="Layer 1" xmlns="http://www.w3.org/2000/svg" viewBox="0 0 2062.07 1581.83">
  <path d="M911.01,171.46l-29.45,11.51c-94.6-59.39-247.45-91.49-400.59-91.49s-299.06,30.54-400.6,91.49l-29.45-11.51C78.77,130.18,210.02,0,480.97,0s402.2,130.18,430.04,171.46Z" style="fill: #231f20;"/>
  <path d="M2062.07,1041.72h-163.84c-17.92-121.29-74.98-257.19-146.26-311.51l168.89-212.64h-179.44v-117.55h320.66l-261.13,331.52c100.8,54.04,224.69,190.28,261.13,310.19Z" style="fill: #231f20;"/>
  <path d="M1277.31,587.23c-2.65-.09-5.32-.12-7.99-.12-15.46,0-30.59,1.28-45.28,3.73-119.03,19.89-209.36,116.79-209.36,233.33,0,130.93,114.01,237.05,254.64,237.05s254.63-106.12,254.63-237.05-109.69-233.02-246.64-236.94ZM1254.35,1003.58c-82.01,0-148.49-65.77-148.49-146.89s66.48-146.88,148.49-146.88,148.49,65.77,148.49,146.88-66.48,146.89-148.49,146.89Z" style="fill: #231f20;"/>
  <path d="M455.08,213.56v676.09l-106.46-48.18c-47.96,80.99-145.74,189.19-289.48,89.4l93.02-111.61c49.65,39.3,115.31,33.5,172.87-9.12v-376.73H117.92C111.79,511.55,63.04,574.71,0,588.69v-188.67h325.03v-186.46h130.05Z" style="fill: #231f20;"/>
  <path d="M1077.39,302.35c-61.28-25.94-129.85,7.78-141.29,81.13-14.89,95.4,84.85,185.55,313.78,171.67,209.72-12.72,290.8-186.08,304.12-269.2l-26.01,9.37s-56.48,162.82-227.8,185.46c-80.69,10.66-161.43-20.11-174.34-25.77l-.67-2.99c28.29-47.74,23.43-119.52-47.78-149.67Z" style="fill: #231f20;"/>
  <path d="M617.22,548.71v112.81c19.71-4.02,41.95-6.65,66.8-7.56,100.51-3.69,156.35,25.67,188.23,71.78v27.86c-15.04-28.83-55.72-66.97-150.91-62.61-41.12,1.88-83.52,12.95-110.78,27.71l-.2,1.85c21.56,26.49,26.77,73.54-15.94,97.36-36.75,20.5-82.7,5.66-95.59-37.58-12.16-40.82,13.94-86.13,85-109.95v-127.8c-67.4-16.92-96.19-55.68-89.55-96.02,7.34-44.52,51.06-65.03,90.1-49.32,45.36,18.25,46.13,65.59,28.07,94.58l.43,1.82c28.9,11.2,72.36,16.85,113.39,13.54,130.21-10.51,145.29-114.47,145.29-114.47l.69-.24v41.88c-24.79,50.91-78.88,110.4-178.09,116.23-28.84,1.69-54.47.91-76.94-1.87Z" style="fill: #231f20;"/>
  <path d="M946.58,213.56v6.9l333.8,140.95,313.99-125.46h19.8v924.88h-263.9v-147.78h-130.05v384.84l130.05,58.86v-57.33h263.9v70.57l130.05,111.84V213.56h-797.64ZM1350.27,1366.03v-171.81h263.9v171.81h-263.9Z" style="fill: #231f20;"/>
  <polygon points="328.41 1399.42 325.03 1399.42 325.03 1397.89 328.41 1399.42" style="fill: #231f20;"/>
  <polygon points="979.84 1567.76 979.84 1571.85 746.13 1452.85 746.13 1399.42 455.08 1399.42 455.08 1456.75 328.41 1399.42 325.03 1397.89 325.03 1096.68 455.08 1096.68 455.08 1160.83 745.98 1160.83 745.98 999.27 325.03 999.27 325.03 965.88 745.98 965.88 745.98 235.95 724.87 235.95 390.06 361.41 34.13 220.46 34.13 213.56 876.03 213.56 876.03 1253.08 745.98 1194.22 455.08 1194.22 455.08 1366.03 876.03 1366.03 876.03 1452.85 979.84 1567.76" style="fill: #231f20;"/>
  <path d="M1667.24,150.57c-122.82-6.47-217.15,10.54-217.15,62.99h-64.14c0-52.45-94.33-69.46-217.15-62.99-119.22,6.28-170.85-53.74-149.37-146.82h34.57c-2.43,89.87,155.36,40.34,273.94,56.69,53.12,7.33,78.13,37.83,89.47,69.71.21.58.42,1.16.61,1.74.2-.58.4-1.16.61-1.74,11.34-31.88,36.36-62.38,89.47-69.71,118.57-16.35,276.37,33.18,273.94-56.69h34.57c21.48,93.08-30.14,153.1-149.37,146.82Z" style="fill: #231f20;"/>
  <path d="M1457.46,138.98c-.2.58-.39,1.16-.58,1.74-.18-.58-.38-1.16-.58-1.74h1.16Z" style="fill: #231f20;"/>
</svg>