<?xml version="1.0" encoding="UTF-8"?>
<svg id="Layer_1" data-name="Layer 1" xmlns="http://www.w3.org/2000/svg" viewBox="0 0 2756.81 1482.67">
  <path d="M651.78.34s215.63-.77,236.52,0c20.89.77,41.11,26.48,41.79,41.91,4.04,14.78,210.92,220.21,221.49,237.85,10.57,17.64,27.08,40.94,43.59,40.94h85.85v13.04h-277.4c-19.44,0-37.19-25.96-53.55-50.8-16.36-24.84-204.09-225.5-210.29-240.86-6.19-15.36-21.06-28.4-43.36-28.99-22.3-.59-44.66-.38-44.66-.38V.34Z" style="fill: #231f20;"/>
  <path d="M1836.1.34s215.63-.77,236.52,0c20.89.77,41.11,26.48,41.79,41.91,4.04,14.78,210.92,220.21,221.49,237.85,10.57,17.64,27.08,40.94,43.59,40.94h85.85v13.04h-277.4c-19.44,0-37.19-25.96-53.55-50.8-16.36-24.84-204.09-225.5-210.29-240.86-6.19-15.36-21.06-28.4-43.36-28.99-22.3-.59-44.66-.38-44.66-.38V.34Z" style="fill: #231f20;"/>
  <path d="M1347.14,484.17h188.1s32.8,316.38,255.54,316.38,190.23-316.38,190.23-316.38h126.82s41.45,372.86-314.61,372.86-446.07-372.86-446.07-372.86Z" style="fill: #231f20;"/>
  <polygon points="0 355.9 2543.54 360.37 2651.48 467.21 512.45 467.21 110.04 467.21 0 355.9" style="fill: #231f20;"/>
  <path d="M1691.76,927.16s-40.77-22.4-114.04-21.37c-69.86.98-153.31,13.61-192.46,67.04-34.64,51.12,9.16,82.62,22.59,90.11,20.97,12.68,64.79,30.3,211.12,32.41,0,0-288.06,33.21-247.08,227.58,40.99,194.38,431.04,156.2,431.04,156.2,379.75-27.03,325.26-412.88,313.32-580.53l-58.33,3.7s122.37,511.78-260.14,539c-167.66,6.14-218.12-89.11-222.85-155.64-4.74-66.53,35.12-120.24,74.55-149.21,39.43-28.97,61.94-43.28,365.44-59.57,0,0-17.93-22.3-55.83-22.9-35.32-.56-415.45,29.63-421.46-54.85-4.96-69.68,126.84-77.04,154.13-71.96Z" style="fill: #231f20;"/>
  <path d="M895.81,569.6s43.88,43.96,108.11,43.96,84.57-43.96,84.57-43.96v89.71s-24.62,13.96-83.5,13.96-109.18-51.83-109.18-51.83v-51.83Z" style="fill: #231f20;"/>
  <path d="M906.32,692.28s43.88,43.96,108.11,43.96,84.57-43.96,84.57-43.96v89.71s-24.62,13.96-83.5,13.96-109.18-51.83-109.18-51.83v-51.83Z" style="fill: #231f20;"/>
  <path d="M2252.79,465.17v927.25c0,24.89-37.34,50.61-72.72,50.61h-70.76v28.33h434.78v-28.49h-74.13c-34.06,0-72.13-25.49-72.13-52.43V465.17h-145.03Z" style="fill: #231f20;"/>
  <path d="M2397.82,624.03s253.66,3.74,253.66,161.52h-158.29s22.08-122.12-95.37-127.94v-33.58Z" style="fill: #231f20;"/>
  <path d="M1069.8,465.17v927.25c0,24.89-37.34,50.61-72.72,50.61h-70.76v28.33h434.78v-28.49h-74.13c-34.06,0-72.13-25.49-72.13-52.43V465.17h-145.03Z" style="fill: #231f20;"/>
  <path d="M285.44,1208.56s443.51,139.03,687.82-39.18c0,0,11.04-5.49,13.8-26.86,2.76-21.37,0-99.32,0-99.32,0,0,0-27.38-32.15-26.71-20.7.43-275.82,52.02-449.24,30.98-95.97-11.65-127.57-62.66-134.49-101.9,0,0,538.06-6.2,577.93-237.76,39.87-231.56-328.34-253.96-328.34-253.96h-113.03s280.21,78.96,235.85,224.52c-44.37,145.57-190.55,275.84-620.94,227.81,0,0-23.31,21.52-2.73,24.88,102.52,16.75,71.58,98.15,165.52,133.93,105,40,307.8,51.86,523.21,10.64,0,0,6.96,28.26,1.15,38.57-26.82,47.53-259.93,138.52-648.24,42.71,0,0-87.68-1.05.2,51.36" style="fill: #231f20;"/>
  <path d="M161.75,1208.27h298.72c-14.65,114.9,83.3,201.29,318.83,201.29,129.26,0,160.85-90.5,160.85-90.5h48.83s-21.54,163.6-295.85,163.6-418.66-55.38-433.72-224.5c-3.05-34.23-97.66-49.89-97.66-49.89Z" style="fill: #231f20;"/>
  <ellipse cx="2697.03" cy="1416.32" rx="59.78" ry="55.03" style="fill: #231f20;"/>
  <path d="M1306.15,0h184.14c0,97.76,40.84,284.89,321.06,284.89,178.97,0,296.63,120.52,296.63,199.27h-126.65s-31.8-151.54-174.42-151.54c-352.9,0-489.54-90.54-500.75-332.62Z" style="fill: #231f20;"/>
  <line x1="285.44" y1="1181.03" x2="161.75" y2="1180.74" style="fill: #231f20;"/>
</svg>