<?xml version="1.0" encoding="UTF-8"?>
<svg id="Layer_1" xmlns="http://www.w3.org/2000/svg" version="1.1" viewBox="0 0 2680.1 1511.4">
  <!-- Generator: Adobe Illustrator 29.2.1, SVG Export Plug-In . SVG Version: 2.1.0 Build 116)  -->
  <defs>
    <style>
      .st0 {
        fill: #010101;
      }

      .st1 {
        opacity: .4;
      }
    </style>
  </defs>
  <g class="st1">
    <path class="st0" d="M1340,544.9l-14-34.2c-.2-.4-16-38.3-52.1-84.1-33.1-42-90.5-99.5-176.3-134.8-80.3-33.1-132.1-45.1-182.2-56.7-25.3-5.9-49.2-11.4-75.6-19.4-32.6-9.9-124.6-42.9-162.7-66.3-38.2,23.4-130.1,56.5-162.7,66.3-26.4,8-50.3,13.5-75.6,19.4-50.1,11.6-101.9,23.7-182.2,56.7-47.4,19.5-116.4,58.8-176.3,134.8-36.1,45.8-51.9,83.8-52.1,84.2l-28.2-11.5c.7-1.7,17.2-41.5,55.6-90.5,35.4-45.1,97-107,189.3-145,82.5-34,138-46.9,186.9-58.2,24.8-5.8,48.2-11.2,73.7-18.9,43.6-13.2,139.9-49.9,162.1-67.5l9.4-7.5,9.4,7.5c22.2,17.6,118.5,54.3,162.1,67.5,25.5,7.7,48.9,13.1,73.7,18.9,48.9,11.4,104.4,24.2,186.9,58.2,51,21,125.2,63.2,189.3,145,18.9,24.1,32.6,46.1,41.6,62.3,9-16.2,22.6-38.2,41.6-62.3,35.4-45.1,97-107,189.3-145,82.6-34,138-46.9,186.9-58.2,24.8-5.8,48.2-11.2,73.7-18.9,43.6-13.2,139.9-49.9,162.1-67.5l9.4-7.5,9.4,7.5c22.2,17.6,118.5,54.3,162.1,67.5,25.5,7.7,48.9,13.1,73.7,18.9,48.9,11.4,104.4,24.2,186.9,58.2,51,21,125.2,63.2,189.3,145,38.4,49,54.9,88.9,55.6,90.5l-28.1,11.5c-.1-.4-16-38.3-52.1-84.1-33.1-42-90.5-99.5-176.3-134.8-80.3-33.1-132.1-45.1-182.2-56.7-25.3-5.9-49.1-11.4-75.6-19.4-32.6-9.9-124.6-42.9-162.7-66.3-38.2,23.4-130.1,56.5-162.7,66.3-26.4,8-50.3,13.5-75.6,19.4-50.1,11.6-101.9,23.7-182.2,56.7-47.4,19.5-116.4,58.8-176.3,134.8-36.1,45.8-51.9,83.8-52.1,84.2l-14.1,34.2h0Z"/>
  </g>
  <g class="st1">
    <path class="st0" d="M249.9,186.7c-47-15.7-126.1-34.5-235.8-34.5v-30.4c113.8,0,196.3,19.6,245.5,36.1l-9.6,28.8h0Z"/>
  </g>
  <g class="st1">
    <path class="st0" d="M1575.8,186.7c-47-15.7-126.1-34.5-235.8-34.5s-188.8,18.8-235.8,34.5l-9.6-28.8c49.2-16.4,131.7-36.1,245.5-36.1s196.3,19.6,245.5,36.1l-9.6,28.8h0Z"/>
  </g>
  <path class="st0" d="M2441.7,162.3c-42.1-16.7-79.1-28.4-112.5-37.8,51.4-25.8,165.8-71.2,336.8-71.2v-30.4c-222,0-350.5,72.2-379.2,90.3-9.1-2.3-17.9-4.5-26.5-6.6-35.5-8.8-66.1-16.4-96.9-27.5-55.4-20.1-131.3-49-149.6-67.8L2003,0l-10.9,11.2c-18.3,18.8-94.1,47.7-149.6,67.8-30.8,11.2-61.4,18.8-96.9,27.5-8.6,2.1-17.4,4.3-26.5,6.6-28.7-18.1-157.2-90.3-379.2-90.3s-350.5,72.2-379.2,90.3c-9-2.3-17.9-4.5-26.5-6.6-35.5-8.8-66.1-16.4-96.9-27.5-55.5-20.1-131.3-49-149.6-67.8L677,0l-10.9,11.2c-18.3,18.8-94.1,47.7-149.6,67.8-30.8,11.2-61.4,18.8-96.9,27.5-8.6,2.1-17.4,4.3-26.5,6.6C364.5,95.1,236.1,22.9,14.1,22.9v30.4c171,0,285.4,45.3,336.8,71.2-33.4,9.4-70.3,21.2-112.5,37.8C50.7,236.5,2,351.4,0,356.3l28.1,11.5c.1-.3,11.6-27.2,44.4-62.3,30.3-32.5,85.7-78.8,177-114.9,71.3-28.2,127.7-42.2,177.5-54.5,34.8-8.6,67.7-16.8,99.9-28.5,81-29.4,126.8-49.5,150.1-66.1,23.2,16.6,69.1,36.7,150.1,66.1,32.3,11.7,65.1,19.8,99.9,28.5,49.8,12.3,106.2,26.3,177.5,54.5,91.4,36.1,146.7,82.4,177.1,114.9,32.8,35.1,44.2,62.1,44.3,62.3l13.9,34.1,14.2-34c.1-.3,11.6-27.2,44.4-62.3,30.3-32.5,85.7-78.8,177.1-114.9,71.3-28.2,127.7-42.2,177.5-54.5,34.8-8.6,67.7-16.8,99.9-28.5,81-29.4,126.8-49.5,150.1-66.1,23.2,16.6,69.1,36.7,150.1,66.1,32.3,11.7,65.1,19.8,99.9,28.5,49.8,12.3,106.2,26.3,177.5,54.5,91.4,36.1,146.7,82.4,177.1,114.9,32.8,35.1,44.2,62.1,44.3,62.3l28.1-11.5c-2-4.9-50.7-119.8-238.4-193.9h0ZM1564.3,162.3c-136.2,53.9-199.2,129.1-224.3,168.2-25.1-39.1-88.1-114.4-224.3-168.2-42.2-16.7-79.2-28.5-112.6-37.9,15.4-7.8,36.3-17.3,62.8-26.8,56.4-20.2,149.8-44.3,274.1-44.3s217.7,24.1,274.1,44.3c26.4,9.5,47.4,19,62.8,26.8-33.5,9.4-70.4,21.2-112.6,37.9Z"/>
  <g class="st1">
    <path class="st0" d="M2430.2,186.7l-9.6-28.8c49.2-16.4,131.7-36.1,245.5-36.1v30.4c-109.7,0-188.8,18.8-235.8,34.5Z"/>
  </g>
  <g class="st1">
    <path class="st0" d="M2666,1387c-113.8,0-196.3-19.6-245.5-36.1l9.6-28.8c47,15.7,126.1,34.5,235.8,34.5v30.4Z"/>
  </g>
  <g class="st1">
    <path class="st0" d="M1340,1387c-113.8,0-196.3-19.6-245.5-36.1l9.6-28.8c47,15.7,126.1,34.5,235.8,34.5s188.8-18.8,235.8-34.5l9.6,28.8c-49.2,16.4-131.7,36.1-245.5,36.1h0Z"/>
  </g>
  <g class="st1">
    <path class="st0" d="M14.1,1387v-30.4c109.7,0,188.8-18.8,235.8-34.5l9.6,28.8c-49.2,16.4-131.7,36.1-245.5,36.1h0Z"/>
  </g>
  <path class="st0" d="M2441.7,1349.1c187.6-74.2,236.4-189.1,238.4-193.9l-28.1-11.5c-.1.3-11.6,27.2-44.4,62.3-30.3,32.5-85.7,78.8-177.1,114.9-71.3,28.2-127.7,42.2-177.5,54.5-34.8,8.6-67.7,16.8-99.9,28.5-81,29.4-126.9,49.5-150.1,66.1-23.2-16.6-69.1-36.7-150.1-66.1-32.3-11.7-65.1-19.8-99.9-28.5-49.8-12.3-106.2-26.3-177.5-54.5-91.4-36.1-146.7-82.4-177.1-114.9-32.8-35.1-44.2-62.1-44.3-62.3l-13.9-34.1-14.2,34c-.1.3-11.6,27.2-44.4,62.3-30.3,32.5-85.7,78.8-177.1,114.9-71.3,28.2-127.7,42.2-177.5,54.5-34.8,8.6-67.7,16.8-99.9,28.5-81,29.4-126.9,49.5-150.1,66.1-23.2-16.6-69.1-36.7-150.1-66.1-32.3-11.7-65.1-19.8-99.9-28.5-49.8-12.3-106.2-26.3-177.5-54.5-91.4-36.1-146.7-82.4-177.1-114.9-32.8-35.1-44.2-62.1-44.3-62.3L0,1155.1c2,4.9,50.7,119.8,238.4,193.9,43.5,17.2,81.4,29.2,115.7,38.7-49.7,25.5-165.4,72.8-340,72.8v30.4c230.4,0,360.1-77.8,382-92.1,8,2,15.9,4,23.6,5.9,35.5,8.8,66.1,16.4,96.9,27.5,55.5,20.1,131.3,49.1,149.6,67.8l10.9,11.2,10.9-11.2c18.3-18.8,94.1-47.7,149.6-67.8,30.8-11.2,61.4-18.8,96.9-27.5,7.7-1.9,15.6-3.9,23.7-5.9,21.9,14.3,151.6,92.1,382,92.1s360.1-77.8,382-92.1c8.1,2,15.9,4,23.6,5.9,35.5,8.8,66.1,16.4,96.9,27.5,55.4,20.1,131.3,49.1,149.6,67.8l10.9,11.2,10.9-11.2c18.3-18.8,94.1-47.7,149.6-67.8,30.8-11.2,61.4-18.8,96.9-27.5,7.7-1.9,15.6-3.9,23.6-5.9,21.9,14.3,151.6,92.1,382,92.1v-30.4c-174.6,0-290.3-47.3-340-72.8,34.3-9.6,72.2-21.5,115.7-38.7h0ZM1614.2,1416.2c-56.4,20.2-149.8,44.3-274.1,44.3s-217.7-24.1-274.1-44.3c-28.3-10.2-50.4-20.3-66-28.4,34.3-9.6,72.3-21.6,115.8-38.8,136.2-53.8,199.2-129.2,224.3-168.2,25.1,39.1,88.1,114.4,224.3,168.2,43.6,17.2,81.5,29.2,115.8,38.8-15.6,8.1-37.7,18.3-66,28.4Z"/>
  <g class="st1">
    <path class="st0" d="M2003,1402l-9.4-7.5c-22.2-17.6-118.4-54.3-162.1-67.5-25.5-7.7-48.9-13.1-73.7-18.9-48.9-11.3-104.3-24.2-186.9-58.2-51-21-125.2-63.2-189.3-145-18.9-24.2-32.6-46.1-41.6-62.3-9,16.2-22.6,38.2-41.6,62.3-35.4,45.2-97,107-189.3,145-82.6,34-138,46.9-186.9,58.2-24.8,5.8-48.2,11.2-73.7,18.9-43.7,13.2-139.9,49.9-162.1,67.5l-9.4,7.5-9.4-7.5c-22.2-17.6-118.5-54.3-162.1-67.5-25.5-7.7-48.9-13.1-73.7-18.9-48.9-11.3-104.4-24.2-186.9-58.2-51-21-125.2-63.2-189.3-145C17.2,1055.8.7,1015.9,0,1014.3l28.1-11.5c.1.4,16,38.3,52.1,84.1,33.1,42,90.5,99.5,176.3,134.8,80.3,33.1,132.1,45.1,182.2,56.7,25.3,5.9,49.1,11.4,75.6,19.4,32.6,9.8,124.6,42.9,162.7,66.3,38.2-23.4,130.1-56.5,162.7-66.3,26.4-8,50.3-13.5,75.6-19.4,50.1-11.6,101.9-23.7,182.2-56.7,47.4-19.5,116.4-58.8,176.3-134.8,36.1-45.8,51.9-83.8,52.1-84.2l14.1-34.2,14,34.2c.2.4,16,38.3,52.1,84.1,33.1,42,90.5,99.5,176.3,134.8,80.3,33.1,132.1,45.1,182.2,56.7,25.3,5.9,49.2,11.4,75.6,19.4,32.6,9.8,124.6,42.9,162.7,66.3,38.2-23.4,130.1-56.5,162.7-66.3,26.4-8,50.3-13.5,75.6-19.4,50.1-11.6,101.9-23.7,182.2-56.7,47.4-19.5,116.4-58.8,176.3-134.8,36.1-45.8,51.9-83.8,52.1-84.2l28.1,11.5c-.7,1.7-17.2,41.5-55.6,90.6-35.4,45.2-97,107-189.3,145-82.6,34-138,46.9-186.9,58.2-24.8,5.8-48.2,11.2-73.7,18.9-43.6,13.2-139.9,49.9-162.1,67.5l-9.4,7.5h0Z"/>
  </g>
  <g>
    <path class="st0" d="M1129.5,1086.9c-76.3,47.4-160.8,68.6-228.6,85.6-22,5.5-42.7,10.7-61.1,16.3-32.6,9.9-124.7,43-162.9,66.4-40.4-23.8-141.2-54.9-162.6-61.4-23.1-7-45.2-11-68.5-15.2-55.7-10.1-118.8-21.5-216.2-80.2-55-33.1-92.7-78.7-112.1-135.4-14.6-42.7-12.8-76.1-12.8-76.4l-30.3-2c0,1.6-2.3,38.7,13.9,86.8,14.8,44.2,48.7,106.6,125.7,153,102.2,61.5,168.2,73.5,226.5,84.1,22.5,4.1,43.7,7.9,65.2,14.4,64.8,19.6,143.1,47.5,162.1,62.5l9.4,7.5,9.4-7.5c22.2-17.6,118.5-54.3,162.1-67.5,17.7-5.3,38.1-10.5,59.7-15.9,69.9-17.5,156.8-39.4,237.2-89.2,71.7-44.4,120.8-100.7,134.7-154.3l-29.4-7.7c-12,46.1-56.2,95.7-121.3,136.1h0Z"/>
    <path class="st0" d="M1266.6,552.2c-21.2-45.4-53.8-87.7-94.2-122.3-41.1-35.2-90.6-62.5-143.2-79.1-22.1-7-43-13.5-62.6-19.7-106.9-33.5-177.5-55.6-231.6-81.8l-13.2,27.4c56.1,27.1,127.6,49.5,235.7,83.4,19.6,6.1,40.4,12.6,62.5,19.6,97.2,30.7,179.1,100,219,185.3,10.1,21.6,17,42.5,21.6,62.5l-532.3,4.7.3,30.4,537.5-4.7c4.4,32.4,3.9,62.7,3.5,91-.1,8.2-.2,16-.2,23.7h30.4c0-7.4.1-15.1.2-23.2.8-54.2,1.9-121.6-33.4-197.2h0Z"/>
    <path class="st0" d="M292.2,391.1c35-15.2,72.2-27.5,109.7-38.6v277.4l-301.6-2.6,1.2,188,30.4-.2-1-157.1,519,4.5,1,160.7,30.4-.2-1.2-190.6-247.8-2.2v-286.3c15.3-4.3,30.6-8.4,45.8-12.5,62.9-17,122.4-33,163.2-55l-14.4-26.8c-37.7,20.3-95.5,35.9-156.7,52.4-60.6,16.3-129.3,34.9-190,61.2-89.3,38.7-175.8,136.7-204.6,205.3l28,11.8c26.7-63.4,108.9-154.6,188.7-189.2h0Z"/>
  </g>
  <g>
    <path class="st0" d="M2019.7,739.2v-82h547.4v-30.4h-1110.5c1.3-43,8.3-77.6,21.6-106.7h1031.5v-30.4h-1014c24.4-34.2,61.7-61.4,113.5-82.8,88.7-36.6,129-47.6,175.6-60.4,17-4.6,34.5-9.5,55.5-15.8,32.6-9.9,124.6-42.9,162.7-66.3,38.2,23.4,130.1,56.5,162.7,66.3,32,9.7,60.4,16.2,85.5,22,37.2,8.6,69.4,16,102.6,30.7l12.2-27.8c-35.8-15.8-69.3-23.5-108-32.5-25.8-6-52.5-12.1-83.5-21.5-43.6-13.2-139.9-49.9-162.1-67.5l-9.4-7.5-9.4,7.5c-22.2,17.6-118.4,54.3-162.1,67.5-20.5,6.2-37.9,11-54.7,15.6-47.6,13-88.7,24.3-179.2,61.6-65,26.8-109.8,62.5-137.1,109.4-23.5,40.3-34.5,89.2-34.5,153.8v15.2h563.3v82h-557.4v30.4h1149.8v-30.4h-561.9,0Z"/>
    <path class="st0" d="M2407,867.1c-94.5-13.2-220.7-14.2-402.2-14.2h-.3c-180.7,0-306.3,1-400.5,14.2-71.2,10-165.9,32.1-165.9,108s30.5,107.5,98.8,144c63.9,34.2,159.8,62.3,298.8,101.3,47.3,13.3,96.2,32.1,130.5,50.4,11.6,6.2,24.4,9.3,37.2,9.3s24.8-2.9,36.2-8.8c34.4-17.8,85.9-37.3,134.6-50.9,269.7-75.3,399.4-117.2,399.4-245.3s-95.1-98-166.6-108h0ZM2460,1091.2c-63.6,34.2-166.3,64.2-293.9,99.9-51.3,14.3-103.8,34.2-140.4,53.1h0c-14.1,7.3-31,7.2-45.1-.3-36.2-19.2-87.3-39-136.6-52.8-283.7-79.6-375.5-113.9-375.5-216s14.5-60.3,139.8-77.9c92.3-13,216.9-13.9,396.5-13.9s298.6,0,398.1,13.9c125.9,17.6,140.4,52.9,140.4,77.9,0,50.7-24.1,84.4-83.2,116.2h0Z"/>
  </g>
</svg>