<?xml version="1.0" encoding="UTF-8"?>
<svg id="Layer_1" data-name="Layer 1" xmlns="http://www.w3.org/2000/svg" viewBox="0 0 1978.29 1581.83">
  <path d="M.03,790.91h.14s98.73-98.73,98.73-98.73v-.14c-25.3,0-50.6,9.65-69.91,28.96C9.68,740.3.03,765.6.03,790.91Z"/>
  <polygon points="98.9 790.91 98.9 737.61 45.6 790.91 98.9 790.91"/>
  <path d="M494.35,692.04v.14s98.73,98.73,98.73,98.73h.14c0-25.3-9.65-50.6-28.96-69.91-19.3-19.3-44.61-28.96-69.91-28.96Z"/>
  <polygon points="494.35 790.91 547.65 790.91 494.35 737.61 494.35 790.91"/>
  <path d="M889.84,1482.97h-.14l-98.73,98.73v.14c25.3,0,50.6-9.65,69.91-28.96,19.3-19.3,28.96-44.61,28.96-69.91Z"/>
  <polygon points="790.97 1482.97 790.97 1536.26 844.27 1482.97 790.97 1482.97"/>
  <path d="M790.9,1384.1v.14l98.73,98.73h.14c0-25.3-9.65-50.6-28.96-69.91-19.3-19.3-44.61-28.96-69.91-28.96Z"/>
  <polygon points="790.9 1482.97 844.2 1482.97 790.9 1429.67 790.9 1482.97"/>
  <path d="M692.11,494.6h-.14l-98.73,98.73v.14c25.3,0,50.6-9.65,69.91-28.96,19.3-19.3,28.96-44.61,28.96-69.91Z"/>
  <polygon points="593.25 494.6 593.25 547.9 646.54 494.6 593.25 494.6"/>
  <path d="M593.18,395.74v.14l98.73,98.73h.14c0-25.3-9.65-50.6-28.96-69.91-19.3-19.3-44.61-28.96-69.91-28.96Z"/>
  <polygon points="593.18 494.6 646.48 494.6 593.18 441.3 593.18 494.6"/>
  <path d="M593.18,98.86h-.14l-98.73,98.73v.14c25.3,0,50.6-9.65,69.91-28.96,19.3-19.3,28.96-44.61,28.96-69.91Z"/>
  <polygon points="494.31 98.86 494.31 152.16 547.61 98.86 494.31 98.86"/>
  <path d="M494.25,0v.14s98.73,98.73,98.73,98.73h.14c0-25.3-9.65-50.6-28.96-69.91C544.85,9.65,519.55,0,494.25,0Z"/>
  <polygon points="494.25 98.86 547.54 98.86 494.25 45.57 494.25 98.86"/>
  <path d="M494.37,494.5h.14l98.73,98.73v.14c-25.3,0-50.6-9.65-69.91-28.96-19.3-19.3-28.96-44.61-28.96-69.91Z"/>
  <polygon points="593.23 494.5 593.23 547.8 539.93 494.5 593.23 494.5"/>
  <path d="M593.3,395.64v.14l-98.73,98.73h-.14c0-25.3,9.65-50.6,28.96-69.91,19.3-19.3,44.61-28.96,69.91-28.96Z"/>
  <polygon points="593.3 494.5 540 494.5 593.3 441.2 593.3 494.5"/>
  <path d="M.07,98.86h.14l98.73,98.73v.14c-25.3,0-50.6-9.65-69.91-28.96C9.72,149.47.07,124.16.07,98.86Z"/>
  <polygon points="98.93 98.86 98.93 152.16 45.63 98.86 98.93 98.86"/>
  <path d="M99,0v.14L.27,98.86h-.14C.13,73.56,9.79,48.26,29.09,28.96,48.4,9.65,73.7,0,99,0Z"/>
  <polygon points="99 98.86 45.7 98.86 99 45.57 99 98.86"/>
  <path d="M99.02,1187.42v.14l98.73,98.73h.14c0-25.3-9.65-50.6-28.96-69.91-19.3-19.3-44.61-28.96-69.91-28.96Z"/>
  <polygon points="99.02 1286.28 152.32 1286.28 99.02 1232.99 99.02 1286.28"/>
  <path d="M99.02,1187.49v.14L.3,1286.35h-.14c0-25.3,9.65-50.6,28.96-69.91,19.3-19.3,44.61-28.96,69.91-28.96Z"/>
  <polygon points="99.02 1286.35 45.73 1286.35 99.02 1233.05 99.02 1286.35"/>
  <path d="M99.02,1385.21v-.14l98.73-98.73h.14c0,25.3-9.65,50.6-28.96,69.91-19.3,19.3-44.61,28.96-69.91,28.96Z"/>
  <polygon points="99.02 1286.35 152.32 1286.35 99.02 1339.65 99.02 1286.35"/>
  <path d="M99.02,1385.15v-.14L.3,1286.28h-.14c0,25.3,9.65,50.6,28.96,69.91,19.3,19.3,44.61,28.96,69.91,28.96Z"/>
  <polygon points="99.02 1286.28 45.73 1286.28 99.02 1339.58 99.02 1286.28"/>
  <path d="M790.94.03v.14l98.73,98.73h.14c0-25.3-9.65-50.6-28.96-69.91C841.54,9.69,816.24.03,790.94.03Z"/>
  <polygon points="790.94 98.9 844.24 98.9 790.94 45.6 790.94 98.9"/>
  <path d="M790.94.1v.14l-98.73,98.73h-.14c0-25.3,9.65-50.6,28.96-69.91C740.34,9.75,765.64.1,790.94.1Z"/>
  <polygon points="790.94 98.97 737.64 98.97 790.94 45.67 790.94 98.97"/>
  <path d="M790.94,197.98v-.14l98.73-98.73h.14c0,25.3-9.65,50.6-28.96,69.91-19.3,19.3-44.61,28.96-69.91,28.96Z"/>
  <polygon points="790.94 99.12 844.24 99.12 790.94 152.42 790.94 99.12"/>
  <path d="M790.94,197.91v-.14l-98.73-98.73h-.14c0,25.3,9.65,50.6,28.96,69.91,19.3,19.3,44.61,28.96,69.91,28.96Z"/>
  <polygon points="790.94 99.05 737.64 99.05 790.94 152.35 790.94 99.05"/>
  <path d="M790.94,198v.14s98.73,98.73,98.73,98.73h.14c0-25.3-9.65-50.6-28.96-69.91-19.3-19.3-44.61-28.96-69.91-28.96Z"/>
  <polygon points="790.94 296.86 844.24 296.86 790.94 243.56 790.94 296.86"/>
  <path d="M790.94,198.07v.14l-98.73,98.73h-.14c0-25.3,9.65-50.6,28.96-69.91,19.3-19.3,44.61-28.96,69.91-28.96Z"/>
  <polygon points="790.94 296.93 737.64 296.93 790.94 243.63 790.94 296.93"/>
  <path d="M296.62,197.57v.14s98.73,98.73,98.73,98.73h.14c0-25.3-9.65-50.6-28.96-69.91-19.3-19.3-44.61-28.96-69.91-28.96Z"/>
  <polygon points="296.62 296.44 349.92 296.44 296.62 243.14 296.62 296.44"/>
  <path d="M296.62,197.64v.14l-98.73,98.73h-.14c0-25.3,9.65-50.6,28.96-69.91s44.61-28.96,69.91-28.96Z"/>
  <polygon points="296.62 296.5 243.32 296.5 296.62 243.21 296.62 296.5"/>
  <path d="M296.62,395.52v-.14s98.73-98.73,98.73-98.73h.14c0,25.3-9.65,50.6-28.96,69.91s-44.61,28.96-69.91,28.96Z"/>
  <polygon points="296.62 296.66 349.92 296.66 296.62 349.96 296.62 296.66"/>
  <path d="M296.62,395.45v-.14l-98.73-98.73h-.14c0,25.3,9.65,50.6,28.96,69.91,19.3,19.3,44.61,28.96,69.91,28.96Z"/>
  <polygon points="296.62 296.59 243.32 296.59 296.62 349.89 296.62 296.59"/>
  <path d="M296.62,395.54v.14s98.73,98.73,98.73,98.73h.14c0-25.3-9.65-50.6-28.96-69.91-19.3-19.3-44.61-28.96-69.91-28.96Z"/>
  <polygon points="296.62 494.4 349.92 494.4 296.62 441.1 296.62 494.4"/>
  <path d="M296.62,395.61v.14l-98.73,98.73h-.14c0-25.3,9.65-50.6,28.96-69.91,19.3-19.3,44.61-28.96,69.91-28.96Z"/>
  <polygon points="296.62 494.47 243.32 494.47 296.62 441.17 296.62 494.47"/>
  <path d="M790.97,1290.18v-.14l98.73-98.73h.14c0,25.3-9.65,50.6-28.96,69.91-19.3,19.3-44.61,28.96-69.91,28.96Z"/>
  <polygon points="790.97 1191.32 844.27 1191.32 790.97 1244.62 790.97 1191.32"/>
  <path d="M790.97,1290.12v-.14l-98.73-98.73h-.14c0,25.3,9.65,50.6,28.96,69.91,19.3,19.3,44.61,28.96,69.91,28.96Z"/>
  <polygon points="790.97 1191.25 737.67 1191.25 790.97 1244.55 790.97 1191.25"/>
  <path d="M1581.84,790.5v-.14s98.73-98.73,98.73-98.73h.14c0,25.3-9.65,50.6-28.96,69.91-19.3,19.3-44.61,28.96-69.91,28.96Z"/>
  <polygon points="1581.84 691.64 1635.14 691.64 1581.84 744.94 1581.84 691.64"/>
  <path d="M1581.84,790.43v-.14l-98.73-98.73h-.14c0,25.3,9.65,50.6,28.96,69.91,19.3,19.3,44.61,28.96,69.91,28.96Z"/>
  <polygon points="1581.84 691.57 1528.55 691.57 1581.84 744.87 1581.84 691.57"/>
  <path d="M494.35,1087.53v-.14s98.73-98.73,98.73-98.73h.14c0,25.3-9.65,50.6-28.96,69.91-19.3,19.3-44.61,28.96-69.91,28.96Z"/>
  <polygon points="494.35 988.66 547.65 988.66 494.35 1041.96 494.35 988.66"/>
  <path d="M494.35,1087.46v-.14l-98.73-98.73h-.14c0,25.3,9.65,50.6,28.96,69.91,19.3,19.3,44.61,28.96,69.91,28.96Z"/>
  <polygon points="494.35 988.59 441.05 988.59 494.35 1041.89 494.35 988.59"/>
  <path d="M98.9,1087.42v-.14s98.73-98.73,98.73-98.73h.14c0,25.3-9.65,50.6-28.96,69.91-19.3,19.3-44.61,28.96-69.91,28.96Z"/>
  <polygon points="98.9 988.56 152.19 988.56 98.9 1041.86 98.9 988.56"/>
  <path d="M98.9,1087.36v-.14L.17,988.49H.03c0,25.3,9.65,50.6,28.96,69.91,19.3,19.3,44.61,28.96,69.91,28.96Z"/>
  <polygon points="98.9 988.49 45.6 988.49 98.9 1041.79 98.9 988.49"/>
  <rect x="737.64" y="296.9" width="106.6" height="894.42"/>
  <rect x="99.02" y="45.57" width="395.33" height="106.6"/>
  <path d="M1977.33,98.97h-.14l-98.73,98.73v.14c25.3,0,50.6-9.65,69.91-28.96,19.3-19.3,28.96-44.61,28.96-69.91Z"/>
  <polygon points="1878.47 98.97 1878.47 152.26 1931.76 98.97 1878.47 98.97"/>
  <path d="M1878.4.1v.14s98.73,98.73,98.73,98.73h.14c0-25.3-9.65-50.6-28.96-69.91C1929,9.75,1903.7.1,1878.4.1Z"/>
  <polygon points="1878.4 98.97 1931.7 98.97 1878.4 45.67 1878.4 98.97"/>
  <path d="M1187.07,98.97h.14l98.73,98.73v.14c-25.3,0-50.6-9.65-69.91-28.96-19.3-19.3-28.96-44.61-28.96-69.91Z"/>
  <polygon points="1285.93 98.97 1285.93 152.26 1232.63 98.97 1285.93 98.97"/>
  <path d="M1286,.1v.14l-98.73,98.73h-.14c0-25.3,9.65-50.6,28.96-69.91C1235.4,9.75,1260.7.1,1286,.1Z"/>
  <polygon points="1286 98.97 1232.7 98.97 1286 45.67 1286 98.97"/>
  <rect x="1285.93" y="45.67" width="591.95" height="106.6"/>
  <rect x="1482.98" y="243.56" width="395.54" height="106.6"/>
  <rect x="1285.25" y="441.02" width="593.33" height="106.6"/>
  <rect x="1285.25" y="836.33" width="591.95" height="106.6"/>
  <rect x="1483.41" y="1133.09" width="297.5" height="106.6"/>
  <rect x="1383.91" y="1429.65" width="296.8" height="106.6"/>
  <path d="M1977.39,296.69h-.14l-98.73,98.73v.14c25.3,0,50.6-9.65,69.91-28.96,19.3-19.3,28.96-44.61,28.96-69.91Z"/>
  <polygon points="1878.52 296.69 1878.52 349.99 1931.82 296.69 1878.52 296.69"/>
  <path d="M1878.46,197.83v.14s98.73,98.73,98.73,98.73h.14c0-25.3-9.65-50.6-28.96-69.91-19.3-19.3-44.61-28.96-69.91-28.96Z"/>
  <polygon points="1878.46 296.69 1931.75 296.69 1878.46 243.39 1878.46 296.69"/>
  <path d="M1187.13,296.69h.14s98.73,98.73,98.73,98.73v.14c-25.3,0-50.6-9.65-69.91-28.96-19.3-19.3-28.96-44.61-28.96-69.91Z"/>
  <polygon points="1285.99 296.69 1285.99 349.99 1232.69 296.69 1285.99 296.69"/>
  <path d="M1286.06,197.83v.14l-98.73,98.73h-.14c0-25.3,9.65-50.6,28.96-69.91,19.3-19.3,44.61-28.96,69.91-28.96Z"/>
  <polygon points="1286.06 296.69 1232.76 296.69 1286.06 243.39 1286.06 296.69"/>
  <path d="M1384.15,296.86h-.14l-98.73,98.73v.14c25.3,0,50.6-9.65,69.91-28.96,19.3-19.3,28.96-44.61,28.96-69.91Z"/>
  <polygon points="1285.29 296.86 1285.29 350.16 1338.59 296.86 1285.29 296.86"/>
  <path d="M1285.22,198v.14s98.73,98.73,98.73,98.73h.14c0-25.3-9.65-50.6-28.96-69.91-19.3-19.3-44.61-28.96-69.91-28.96Z"/>
  <polygon points="1285.22 296.86 1338.52 296.86 1285.22 243.56 1285.22 296.86"/>
  <path d="M1384.52,296.86h.14s98.73,98.73,98.73,98.73v.14c-25.3,0-50.6-9.65-69.91-28.96-19.3-19.3-28.96-44.61-28.96-69.91Z"/>
  <polygon points="1483.38 296.86 1483.38 350.16 1430.08 296.86 1483.38 296.86"/>
  <path d="M1483.45,198v.14l-98.73,98.73h-.14c0-25.3,9.65-50.6,28.96-69.91,19.3-19.3,44.61-28.96,69.91-28.96Z"/>
  <polygon points="1483.45 296.86 1430.15 296.86 1483.45 243.56 1483.45 296.86"/>
  <path d="M1977.45,494.42h-.14l-98.73,98.73v.14c25.3,0,50.6-9.65,69.91-28.96,19.3-19.3,28.96-44.61,28.96-69.91Z"/>
  <polygon points="1878.58 494.42 1878.58 547.72 1931.88 494.42 1878.58 494.42"/>
  <path d="M1878.52,395.55v.14s98.73,98.73,98.73,98.73h.14c0-25.3-9.65-50.6-28.96-69.91-19.3-19.3-44.61-28.96-69.91-28.96Z"/>
  <polygon points="1878.52 494.42 1931.81 494.42 1878.52 441.12 1878.52 494.42"/>
  <path d="M1187.19,494.42h.14l98.73,98.73v.14c-25.3,0-50.6-9.65-69.91-28.96-19.3-19.3-28.96-44.61-28.96-69.91Z"/>
  <polygon points="1286.05 494.42 1286.05 547.72 1232.75 494.42 1286.05 494.42"/>
  <path d="M1286.12,395.55v.14l-98.73,98.73h-.14c0-25.3,9.65-50.6,28.96-69.91,19.3-19.3,44.61-28.96,69.91-28.96Z"/>
  <polygon points="1286.12 494.42 1232.82 494.42 1286.12 441.12 1286.12 494.42"/>
  <path d="M1977.51,889.79h-.14l-98.73,98.73v.14c25.3,0,50.6-9.65,69.91-28.96,19.3-19.3,28.96-44.61,28.96-69.91Z"/>
  <polygon points="1878.64 889.79 1878.64 943.09 1931.94 889.79 1878.64 889.79"/>
  <path d="M1878.58,790.93v.14s98.73,98.73,98.73,98.73h.14c0-25.3-9.65-50.6-28.96-69.91-19.3-19.3-44.61-28.96-69.91-28.96Z"/>
  <polygon points="1878.58 889.79 1931.87 889.79 1878.58 836.5 1878.58 889.79"/>
  <path d="M1879.43,1186.39h-.14l-98.73,98.73v.14c25.3,0,50.6-9.65,69.91-28.96,19.3-19.3,28.96-44.61,28.96-69.91Z"/>
  <polygon points="1780.56 1186.39 1780.56 1239.69 1833.86 1186.39 1780.56 1186.39"/>
  <path d="M1780.49,1087.53v.14s98.73,98.73,98.73,98.73h.14c0-25.3-9.65-50.6-28.96-69.91-19.3-19.3-44.61-28.96-69.91-28.96Z"/>
  <polygon points="1780.49 1186.39 1833.79 1186.39 1780.49 1133.09 1780.49 1186.39"/>
  <path d="M1779.6,1482.95h-.14l-98.73,98.73v.14c25.3,0,50.6-9.65,69.91-28.96,19.3-19.3,28.96-44.61,28.96-69.91Z"/>
  <polygon points="1680.74 1482.95 1680.74 1536.25 1734.04 1482.95 1680.74 1482.95"/>
  <path d="M1680.67,1384.09v.14s98.73,98.73,98.73,98.73h.14c0-25.3-9.65-50.6-28.96-69.91-19.3-19.3-44.61-28.96-69.91-28.96Z"/>
  <polygon points="1680.67 1482.95 1733.97 1482.95 1680.67 1429.65 1680.67 1482.95"/>
  <path d="M1187.25,889.79h.14s98.73,98.73,98.73,98.73v.14c-25.3,0-50.6-9.65-69.91-28.96-19.3-19.3-28.96-44.61-28.96-69.91Z"/>
  <polygon points="1286.11 889.79 1286.11 943.09 1232.81 889.79 1286.11 889.79"/>
  <path d="M1286.18,790.93v.14l-98.73,98.73h-.14c0-25.3,9.65-50.6,28.96-69.91,19.3-19.3,44.61-28.96,69.91-28.96Z"/>
  <polygon points="1286.18 889.79 1232.88 889.79 1286.18 836.5 1286.18 889.79"/>
  <path d="M1384.55,1186.46h.14s98.73,98.73,98.73,98.73v.14c-25.3,0-50.6-9.65-69.91-28.96-19.3-19.3-28.96-44.61-28.96-69.91Z"/>
  <polygon points="1483.41 1186.46 1483.41 1239.76 1430.11 1186.46 1483.41 1186.46"/>
  <path d="M1483.48,1087.6v.14l-98.73,98.73h-.14c0-25.3,9.65-50.6,28.96-69.91,19.3-19.3,44.61-28.96,69.91-28.96Z"/>
  <polygon points="1483.48 1186.46 1430.18 1186.46 1483.48 1133.16 1483.48 1186.46"/>
  <path d="M1285.2,1482.95h.14s98.73,98.73,98.73,98.73v.14c-25.3,0-50.6-9.65-69.91-28.96-19.3-19.3-28.96-44.61-28.96-69.91Z"/>
  <polygon points="1384.07 1482.95 1384.07 1536.25 1330.77 1482.95 1384.07 1482.95"/>
  <path d="M1384.13,1384.09v.14l-98.73,98.73h-.14c0-25.3,9.65-50.6,28.96-69.91,19.3-19.3,44.61-28.96,69.91-28.96Z"/>
  <polygon points="1384.13 1482.95 1330.84 1482.95 1384.13 1429.65 1384.13 1482.95"/>
  <path d="M0,1482.97h.14s98.73,98.73,98.73,98.73v.14c-25.3,0-50.6-9.65-69.91-28.96C9.65,1533.57,0,1508.27,0,1482.97Z"/>
  <polygon points="98.86 1482.97 98.86 1536.26 45.56 1482.97 98.86 1482.97"/>
  <path d="M98.93,1384.1v.14L.2,1482.97H.07c0-25.3,9.65-50.6,28.96-69.91,19.3-19.3,44.61-28.96,69.91-28.96Z"/>
  <polygon points="98.93 1482.97 45.63 1482.97 98.93 1429.67 98.93 1482.97"/>
  <rect x="99.02" y="737.61" width="395.33" height="106.6"/>
  <rect x="161.97" y="575.67" width="269.31" height="106.6" transform="translate(925.59 332.35) rotate(90)"/>
  <rect x=".1" y="836.4" width="197.59" height="106.6" transform="translate(988.59 790.8) rotate(90)"/>
  <rect x="395.56" y="836.47" width="197.59" height="106.6" transform="translate(1384.12 395.42) rotate(90)"/>
  <path d="M1581.84,593.58v.14s98.73,98.73,98.73,98.73h.14c0-25.3-9.65-50.6-28.96-69.91s-44.61-28.96-69.91-28.96Z"/>
  <polygon points="1581.84 692.45 1635.14 692.45 1581.84 639.15 1581.84 692.45"/>
  <path d="M1581.84,593.65v.14l-98.73,98.73h-.14c0-25.3,9.65-50.6,28.96-69.91,19.3-19.3,44.61-28.96,69.91-28.96Z"/>
  <polygon points="1581.84 692.51 1528.55 692.51 1581.84 639.22 1581.84 692.51"/>
  <path d="M1285.2,1383.68v-.14s98.73-98.73,98.73-98.73h.14c0,25.3-9.65,50.6-28.96,69.91-19.3,19.3-44.61,28.96-69.91,28.96Z"/>
  <polygon points="1285.2 1284.82 1338.5 1284.82 1285.2 1338.12 1285.2 1284.82"/>
  <path d="M1285.2,1383.61v-.14l-98.73-98.73h-.14c0,25.3,9.65,50.6,28.96,69.91,19.3,19.3,44.61,28.96,69.91,28.96Z"/>
  <polygon points="1285.2 1284.75 1231.9 1284.75 1285.2 1338.05 1285.2 1284.75"/>
  <path d="M1285.2,1186.76v.14s98.73,98.73,98.73,98.73h.14c0-25.3-9.65-50.6-28.96-69.91-19.3-19.3-44.61-28.96-69.91-28.96Z"/>
  <polygon points="1285.2 1285.63 1338.5 1285.63 1285.2 1232.33 1285.2 1285.63"/>
  <path d="M1285.2,1186.83v.14l-98.73,98.73h-.14c0-25.3,9.65-50.6,28.96-69.91,19.3-19.3,44.61-28.96,69.91-28.96Z"/>
  <polygon points="1285.2 1285.69 1231.9 1285.69 1285.2 1232.4 1285.2 1285.69"/>
  <path d="M1879.43,1482.55v-.14s98.73-98.73,98.73-98.73h.14c0,25.3-9.65,50.6-28.96,69.91-19.3,19.3-44.61,28.96-69.91,28.96Z"/>
  <polygon points="1879.43 1383.68 1932.72 1383.68 1879.43 1436.98 1879.43 1383.68"/>
  <path d="M1879.42,1482.48v-.14l-98.73-98.73h-.14c0,25.3,9.65,50.6,28.96,69.91,19.3,19.3,44.61,28.96,69.91,28.96Z"/>
  <polygon points="1879.42 1383.61 1826.13 1383.61 1879.42 1436.91 1879.42 1383.61"/>
  <path d="M1879.43,1285.63v.14s98.73,98.73,98.73,98.73h.14c0-25.3-9.65-50.6-28.96-69.91-19.3-19.3-44.61-28.96-69.91-28.96Z"/>
  <polygon points="1879.43 1384.49 1932.72 1384.49 1879.43 1331.19 1879.43 1384.49"/>
  <path d="M1879.42,1285.69v.14l-98.73,98.73h-.14c0-25.3,9.65-50.6,28.96-69.91,19.3-19.3,44.61-28.96,69.91-28.96Z"/>
  <polygon points="1879.42 1384.56 1826.13 1384.56 1879.42 1331.26 1879.42 1384.56"/>
  <rect x="98.9" y="1429.67" width="692.04" height="106.6"/>
</svg>