<?xml version="1.0" encoding="UTF-8"?>
<svg id="Layer_1" data-name="Layer 1" xmlns="http://www.w3.org/2000/svg" viewBox="0 0 2528.66 1511.39">
  <path d="M325.67,365.32s100.97,10.52,114.55-39.46c13.58-49.99-128.72-91.7-60.23-133.8,0,0-103.92,17.29-39.56,75.54,64.36,58.25-14.76,97.72-14.76,97.72Z" style="fill: #010101;"/>
  <path d="M262.78,152.99s-53.93,54.32,31.88,103.13c85.81,48.81,33.85,101.95,33.85,101.95,0,0-27.16-68.49-99.98-76.76-72.82-8.27-83.45-81.48,34.25-128.33Z" style="fill: #010101;"/>
  <path d="M128.12,216.47s-9.84,72.82,84.24,77.15c94.08,4.33,131.47,91.13,55.11,67.8-76.37-23.32-162.18-71.35-139.35-144.96Z" style="fill: #010101;"/>
  <path d="M771.23,152.99s53.93,54.32-31.88,103.13c-85.81,48.81-33.85,101.95-33.85,101.95,0,0,27.16-68.49,99.98-76.76,72.82-8.27,83.45-81.48-34.25-128.33Z" style="fill: #010101;"/>
  <path d="M905.89,216.47s9.84,72.82-84.24,77.15c-94.08,4.33-131.47,91.13-55.11,67.8,76.37-23.32,162.18-71.35,139.35-144.96Z" style="fill: #010101;"/>
  <path d="M693.58,267.6c64.36-58.25-39.56-75.54-39.56-75.54,68.49,42.09-73.81,83.81-60.23,133.8,13.58,49.99,114.55,39.46,114.55,39.46,0,0-79.12-39.46-14.76-97.72Z" style="fill: #010101;"/>
  <path d="M620.63,248.78s-20.47-2.82-41.59,1.44c-.9-25.26-28-45.53-61.32-45.53s-60.63,20.43-61.33,45.82c-21.61-4.69-43.01-1.73-43.01-1.73,0,0,48.12,20.67,37.79,59.34-6.23,23.32,18.99,37.72,40,45.49l9.01-15.42c-6.8-5.12-11.21-13.23-11.21-22.39,0-15.49,12.56-28.05,28.05-28.05s28.05,12.56,28.05,28.05c0,9.1-4.36,17.17-11.08,22.29l9.03,15.46c20.98-7.78,46.05-22.17,39.84-45.43-10.33-38.67,37.79-59.34,37.79-59.34Z" style="fill: #010101;"/>
  <path d="M2079.82,166.23s-25.01-3.44-50.8,1.76c-1.1-30.85-34.2-55.61-74.9-55.61s-74.06,24.95-74.91,55.97c-26.39-5.72-52.54-2.12-52.54-2.12,0,0,58.78,25.24,46.16,72.48-7.61,28.49,23.19,46.08,48.85,55.56l11-18.83c-8.3-6.25-13.69-16.16-13.69-27.35,0-18.92,15.34-34.26,34.26-34.26s34.26,15.34,34.26,34.26c0,11.12-5.32,20.97-13.53,27.23l11.03,18.89c25.62-9.5,56.25-27.08,48.66-55.49-12.62-47.24,46.16-72.48,46.16-72.48Z" style="fill: #010101;"/>
  <path d="M2065.51,615.82s-22.29-3.07-45.28,1.57c-.98-27.5-30.48-49.57-66.76-49.57s-66.01,22.24-66.77,49.89c-23.52-5.1-46.83-1.89-46.83-1.89,0,0,52.39,22.5,41.14,64.6-6.78,25.39,20.67,41.07,43.54,49.52l9.8-16.79c-7.4-5.57-12.21-14.4-12.21-24.38,0-16.86,13.67-30.53,30.53-30.53s30.53,13.67,30.53,30.53c0,9.91-4.74,18.69-12.06,24.27l9.83,16.83c22.84-8.47,50.14-24.13,43.37-49.46-11.25-42.11,41.14-64.6,41.14-64.6Z" style="fill: #010101;"/>
  <path d="M255.41,89.7c-15.08,0-27.3,12.22-27.3,27.3,0,8.35,3.76,15.82,9.67,20.83C27.95,142.36,17.81,223.92,17.81,223.92h34.66c8.08-47.16,65.14-54.72,65.14-54.72-41.69,8.86-58.37,54.72-58.37,54.72h39.61c5.13-69.83,149.91-79.47,154.18-79.74.79.07,1.59.12,2.39.12,15.08,0,27.3-12.22,27.3-27.3s-12.22-27.3-27.3-27.3Z" style="fill: #010101;"/>
  <path d="M0,242.05h103.53s-2.08,144.53,195.25,142.44c0,0-216.1,46.55-298.78-142.44Z" style="fill: #010101;"/>
  <path d="M1723.17,290.75s123.33,12.85,139.92-48.2-157.22-112.01-73.56-163.43c0,0-126.93,21.12-48.32,92.27,78.61,71.16-18.03,119.36-18.03,119.36Z" style="fill: #010101;"/>
  <path d="M1646.36,31.41s-65.87,66.35,38.95,125.97c104.82,59.62,41.35,124.53,41.35,124.53,0,0-33.18-83.66-122.13-93.76-88.95-10.1-101.93-99.53,41.83-156.74Z" style="fill: #010101;"/>
  <path d="M1481.88,108.94s-12.02,88.95,102.89,94.24c114.91,5.29,160.59,111.31,67.31,82.82s-198.09-87.15-170.21-177.06Z" style="fill: #010101;"/>
  <path d="M2182.21,290.75s-123.33,12.85-139.92-48.2c-16.59-61.06,157.22-112.01,73.56-163.43,0,0,126.93,21.12,48.32,92.27-78.61,71.16,18.03,119.36,18.03,119.36Z" style="fill: #010101;"/>
  <path d="M2259.03,31.41s65.87,66.35-38.95,125.97c-104.82,59.62-41.35,124.53-41.35,124.53,0,0,33.18-83.66,122.13-93.76,88.95-10.1,101.93-99.53-41.83-156.74Z" style="fill: #010101;"/>
  <path d="M2423.5,108.94s12.02,88.95-102.89,94.24c-114.91,5.29-160.59,111.31-67.31,82.82,93.28-28.49,198.09-87.15,170.21-177.06Z" style="fill: #010101;"/>
  <path d="M1590.19,620.45s28.67,74.69,120.78,29.64c92.11-45.05,173.19,18.29,88.07,35.94-85.12,17.65-192.17,16.65-208.85-65.58Z" style="fill: #010101;"/>
  <path d="M2315.18,620.45s-28.67,74.69-120.78,29.64c-92.11-45.05-173.19,18.29-88.07,35.94,85.12,17.65,192.17,16.65,208.85-65.58Z" style="fill: #010101;"/>
  <path d="M1611.69,859.28s36.43,63.82,113.78,10.1c77.36-53.72,159.79-7.5,84.97,20.37-74.83,27.87-172.16,41.86-198.75-30.48Z" style="fill: #010101;"/>
  <path d="M1847.84,1107.82s0,.01,0,.02c3.46,20.17,23.26,22.81,35.3,22.48,7.28.2,12.91-.91,12.91-.91,0,0-20.05-8.56-13.57-30.4,1.21-4.06,1.45-7.3,1.07-9.91,5.65-2.21,11.44-4.17,17.37-5.84v45.26h49.67v-52.41c.94-.01,1.87-.07,2.81-.07s1.87.05,2.81.06v52.41h49.67v-45.26c5.93,1.67,11.72,3.63,17.37,5.84-.38,2.6-.14,5.84,1.07,9.91,6.48,21.83-13.57,30.4-13.57,30.4,0,0,5.63,1.1,12.91.91,12.04.33,31.84-2.3,35.3-22.48,0,0,0-.01,0-.02,19.67,13.28,36.21,30.19,48.47,49.6l21.41-21.41c-36.72-53.81-101.64-89.64-175.45-89.64s-138.73,35.83-175.46,89.64l21.41,21.41c12.26-19.42,28.81-36.32,48.47-49.6Z" style="fill: #010101;"/>
  <path d="M755.68,446.03c-54.04,50.23-22.83,136.74,71.03,140.04,93.87,3.3,121.52-162.87,121.52-162.87-72.3,32.47-138.52-27.4-192.55,22.83ZM809.34,565.27c-34.26,0-62.03-27.77-62.03-62.03s27.77-62.03,62.03-62.03,62.03,27.77,62.03,62.03-27.77,62.03-62.03,62.03Z" style="fill: #010101;"/>
  <circle cx="809.34" cy="503.24" r="51.37" transform="translate(-130.97 348.03) rotate(-22.5)" style="fill: #010101;"/>
  <path d="M1453.38,880.4s34.83-50.08,91.7-2.35c5.66,4.75,13.93,4.65,19.41-.31l17.52-15.87c5.23-4.74,4.67-13.14-1.18-17.1-25.32-17.1-89.75-51.03-145.41,0-71.07,65.16,10.56,112.19,34.16,78.36,23.61-33.83-16.2-42.74-16.2-42.74Z" style="fill: #010101;"/>
  <path d="M506,999.57s62.51,17.25,94.38-90.66h0s10.41,103.81-76.84,123.23c-87.26,19.42-79.67-67.59-41.42-67.57s23.89,35,23.89,35Z" style="fill: #010101;"/>
  <path d="M186.93,699.02s60.2,31.24,86.59-52.73l48.72,12.53s-41.38,104.65-134.62,80.09c-93.24-24.56-42.91-104.2-6.27-85.26,36.65,18.94,5.58,45.37,5.58,45.37Z" style="fill: #010101;"/>
  <path d="M847.08,699.02s-60.2,31.24-86.59-52.73l-48.72,12.53s41.38,104.65,134.62,80.09c93.24-24.56,42.91-104.2,6.27-85.26-36.65,18.94-5.58,45.37-5.58,45.37Z" style="fill: #010101;"/>
  <path d="M1955.62,386.09c-40.41.45-40.86,37.27-41.01,45.2-.15,7.93,6.88,14.22,11.08,5.99,4.19-8.23,29.93-5.39,29.93-5.39,0,0,25.74-2.84,29.93,5.39,4.19,8.23,11.22,1.95,11.07-5.99-.15-7.93-.6-44.75-41.01-45.2Z" style="fill: #010101;"/>
  <path d="M1953.01,748.82c-46.9.52-47.42,43.25-47.6,52.46-.17,9.21,7.99,16.5,12.85,6.95,4.86-9.55,34.74-6.25,34.74-6.25,0,0,29.88-3.3,34.74,6.25,4.86,9.55,13.03,2.26,12.85-6.95-.17-9.21-.69-51.94-47.6-52.46Z" style="fill: #010101;"/>
  <path d="M2003.14,467.87c-13.69-31.88-47.52-29.21-47.52-29.21,0,0-33.82-2.67-47.52,29.21-13.69,31.88.22,65.55,4.71,52.38,4.49-13.17,42.8-11.52,42.8-11.52,0,0,38.31-1.65,42.8,11.52,4.49,13.17,18.41-20.5,4.71-52.38Z" style="fill: #010101;"/>
  <path d="M1800.69,985.3c-11.91,5.99-17.74,11.79-17.74,11.79,0,0-20.69-53.48-111-33.94-90.31,19.54-112.2,93.31-112.2,93.31h0c-1.81,7.69-6.2,14.82-12.99,19.96-15.48,11.72-37.53,8.68-49.25-6.8-11.72-15.48-8.68-37.53,6.8-49.25,11.32-8.58,26.15-9.22,37.9-2.9,1.17-7.89,3.4-16.99,7.46-26.45,27.48,4.2,45.17-17.09,45.17-17.09,0,0,17.32-18.72,10.46-38.41,22.92-11.06,53.86-18.78,95.71-20.03,28.03-.84,54.22.95,78.5,4.55-3.56,25.35,4.44,52.09,21.18,65.28Z" style="fill: #010101;"/>
  <path d="M363.38,649.45c-13.11,2.42-21.26,1.31-21.26,1.31,0,0,15.8,55.12-67.99,94.08-83.79,38.95-145.78-6.63-145.78-6.63h0c-6.08-5.04-13.89-8.07-22.41-8.07-19.42,0-35.16,15.74-35.16,35.16s15.74,35.16,35.16,35.16c14.21,0,26.41-8.44,31.96-20.57,5.7,5.58,12.97,11.49,21.92,16.58,19.37-19.95,46.33-13.65,46.33-13.65,0,0,25.11,4.46,31.53,24.31,24.94-5.03,54.27-17.55,88.39-41.82,22.85-16.25,42.64-33.5,59.83-51.02-18.14-18.06-27.91-44.21-22.53-64.83Z" style="fill: #010101;"/>
  <path d="M1869.23,660.95c-14.25-2.72-22.09-7.05-22.09-7.05,0,0-5.71,62.17-106.1,68.65-100.39,6.48-145.31-64.24-145.31-64.24h0c-4.19-7.51-10.91-13.66-19.55-17.02-19.7-7.66-41.88,2.1-49.54,21.81-7.66,19.7,2.1,41.88,21.81,49.54,14.42,5.6,30.13,1.85,40.54-8.27,3.58,7.91,8.63,16.78,15.7,25.47,27.52-12.6,52.39,4.43,52.39,4.43,0,0,23.72,14.43,22.41,37.1,27.29,4.74,61.99,3.6,106.19-7.57,29.6-7.48,56.48-17.17,80.84-28.17-11.28-25.48-10.88-55.87,2.71-74.67Z" style="fill: #010101;"/>
  <path d="M2037.61,660.95c14.25-2.72,22.09-7.05,22.09-7.05,0,0,5.71,62.17,106.1,68.65,100.39,6.48,145.31-64.24,145.31-64.24h0c4.19-7.51,10.91-13.66,19.55-17.02,19.7-7.66,41.88,2.1,49.54,21.81s-2.1,41.88-21.81,49.54c-14.42,5.6-30.13,1.85-40.54-8.27-3.58,7.91-8.63,16.78-15.7,25.47-27.52-12.6-52.39,4.43-52.39,4.43,0,0-23.72,14.43-22.41,37.1-27.29,4.74-61.99,3.6-106.19-7.57-29.6-7.48-56.48-17.17-80.84-28.17,11.28-25.48,10.88-55.87-2.71-74.67Z" style="fill: #010101;"/>
  <path d="M928.06,730.14c-8.52,0-16.32,3.03-22.41,8.07h0s-62,45.59-145.78,6.63c-83.79-38.95-67.99-94.08-67.99-94.08,0,0-8.15,1.11-21.26-1.31,5.38,20.62-4.39,46.77-22.53,64.83,17.19,17.52,36.98,34.77,59.83,51.02,34.12,24.27,63.45,36.8,88.39,41.82,6.42-19.85,31.53-24.31,31.53-24.31,0,0,26.96-6.3,46.33,13.65,8.94-5.08,16.22-10.99,21.92-16.58,5.55,12.13,17.75,20.57,31.96,20.57,19.42,0,35.16-15.74,35.16-35.16s-15.74-35.16-35.16-35.16Z" style="fill: #010101;"/>
  <path d="M662.47,645.25c-2.67-10.25-9.05-19.14-20.06-24.95-46.93-24.78-50.31-38.3-63.83-63.46-1.66-3.09-3.86-5.71-6.43-7.94-9.21-8-23.22-10.89-34.89-11.77-9.96-.76-18.2-.06-20.26.14-2.12-.21-10.81-.94-21.18-.06-11.48.97-25,3.91-33.97,11.7-2.57,2.23-4.77,4.85-6.43,7.94-13.52,25.16-16.9,38.67-63.83,63.46-11.01,5.81-17.38,14.7-20.06,24.95-5.38,20.62,4.39,46.77,22.53,64.83,11.28,11.23,25.75,19.34,41.84,20.99,33.38,3.43,51.25-3.02,63.24-10.12,7.46-4.42,12.65-9.08,17.86-11.77,5.21,2.69,10.4,7.36,17.86,11.77,11.99,7.1,29.86,13.55,63.24,10.12,16.08-1.65,30.56-9.76,41.83-20.99,18.14-18.06,27.91-44.21,22.53-64.83ZM484.17,678.65c-1.04,2.72-2.56,5.15-4.45,7.27-7.11,8.01-19.58,11.56-32.61,9.18-2.78-.51-5.58-1.25-8.36-2.32-7.39-2.82-13.54-7.26-18.01-12.5-7.19-8.43-9.99-18.97-6.42-28.33,4-10.48,14.93-16.73,27.66-17.18,5.71-.2,11.79.76,17.76,3.04,19.29,7.37,30.23,25.65,24.43,40.82ZM610.91,677.36c-4.53,6.51-11.52,12.09-20.26,15.42-.49.19-.98.33-1.47.5-17.12,5.91-34.72,1.19-42.04-10.82-.74-1.21-1.4-2.46-1.92-3.81-5.8-15.18,5.14-33.46,24.43-40.82,7.76-2.97,15.68-3.68,22.77-2.52,10.52,1.72,19.19,7.59,22.66,16.66,3.17,8.31,1.31,17.53-4.17,25.4Z" style="fill: #010101;"/>
  <path d="M1168.49,632.77c8.34-2.18,15.57-7.36,20.3-16.32,20.16-38.19,31.16-40.94,51.63-51.93,2.52-1.35,4.65-3.14,6.46-5.23,6.51-7.49,8.86-18.89,9.58-28.38.62-8.1.05-14.81-.11-16.48.17-1.72.76-8.79.05-17.23-.79-9.34-3.18-20.34-9.52-27.63-1.81-2.09-3.94-3.88-6.46-5.23-20.47-11-31.47-13.75-51.63-51.93-4.73-8.96-11.96-14.14-20.3-16.32-16.78-4.38-38.05,3.57-52.74,18.33-9.13,9.17-15.73,20.95-17.08,34.04-2.79,27.16,2.46,41.7,8.23,51.45,3.59,6.07,7.39,10.29,9.58,14.53-2.19,4.24-5.98,8.46-9.58,14.53-5.77,9.75-11.02,24.3-8.23,51.45,1.34,13.09,7.94,24.86,17.08,34.04,14.69,14.76,35.97,22.71,52.74,18.33ZM1141.32,487.7c-2.21-.85-4.19-2.09-5.92-3.62-6.52-5.79-9.41-15.93-7.47-26.54.41-2.26,1.02-4.54,1.88-6.8,2.3-6.01,5.9-11.02,10.17-14.65,6.86-5.85,15.43-8.13,23.05-5.22,8.52,3.26,13.61,12.15,13.98,22.5.16,4.65-.62,9.59-2.48,14.45-6,15.69-20.87,24.59-33.22,19.87ZM1142.37,590.82c-5.29-3.69-9.83-9.38-12.55-16.48-.15-.4-.27-.8-.4-1.2-4.81-13.93-.97-28.25,8.81-34.2.98-.6,2-1.14,3.1-1.56,12.35-4.72,27.22,4.18,33.22,19.87,2.41,6.32,2.99,12.76,2.05,18.52-1.4,8.56-6.18,15.61-13.56,18.43-6.76,2.58-14.27,1.06-20.67-3.39Z" style="fill: #010101;"/>
  <path d="M2078.42,901.81c-46.93-24.78-50.31-38.3-63.83-63.46-12.72-23.67-56.44-20.08-61.57-19.58-5.13-.51-48.86-4.09-61.57,19.58-13.52,25.16-16.9,38.67-63.83,63.46-46.93,24.78-10.51,105.13,44.31,110.77,54.15,5.56,67.51-14.87,81.1-21.89,13.59,7.01,26.95,27.45,81.1,21.89,54.82-5.63,91.24-85.98,44.31-110.77ZM1920.17,960.15c-5.8,15.18-26.14,21.51-45.42,14.14-19.29-7.37-30.23-25.65-24.43-40.82,5.8-15.18,26.14-21.51,45.42-14.14,19.29,7.37,30.23,25.65,24.43,40.82ZM2026.66,974.29c-19.29,7.37-39.63,1.04-45.42-14.14-5.8-15.18,5.14-33.46,24.43-40.82,19.29-7.37,39.63-1.04,45.42,14.14,5.8,15.18-5.14,33.46-24.43,40.82Z" style="fill: #010101;"/>
  <path d="M557.25,389.19c-11.54-26.86-40.04-24.61-40.04-24.61,0,0-28.5-2.25-40.04,24.61-11.54,26.86.19,55.23,3.97,44.14,3.78-11.1,36.06-9.71,36.06-9.71,0,0,32.28-1.39,36.06,9.71,3.78,11.1,15.51-17.28,3.97-44.14Z" style="fill: #010101;"/>
  <path d="M569.26,473.45c-13.56-18.93-36.34-35.65-52.25-34.12-15.91-1.54-38.69,15.19-52.25,34.12-13.62,19.01-4.54,62.74,1.9,51.98,6.07-10.16,45.75-8.41,50.15-8.18v.02s.08,0,.21-.01c.12,0,.21.01.21.01v-.02c4.4-.23,44.08-1.98,50.15,8.18,6.43,10.76,15.51-32.97,1.9-51.98Z" style="fill: #010101;"/>
  <path d="M797.19,826.77s0,22.14,9.84,35.42c9.84,13.28,2.95,109.21,2.95,109.21,0,0,62.57-38.88,68.86-145.2,1.31-22.1-17.48-40.24-39.54-38.38-.34.03-.69.06-1.03.09-34.68,3.44-41.87,19.8-41.08,38.86Z" style="fill: #010101;"/>
  <path d="M237.81,825.81s0,22.14-9.84,35.42c-9.84,13.28-2.95,109.21-2.95,109.21,0,0-62.57-38.88-68.86-145.2-1.31-22.1,17.48-40.24,39.54-38.38.34.03.69.06,1.03.09,34.68,3.44,41.87,19.8,41.08,38.86Z" style="fill: #010101;"/>
  <path d="M1628.34,1197.26s-16.54,1.97-14.57-8.27,25.4-9.45,59.66,20.67c34.26,30.12,87.13,127.19,111.05,229.68,23.92,102.48,117.25,67.04,182.22,62.32v-47.45s-51.38-7.39-97.56,18.9c-46.18,26.3-56.71-123.26-113.02-199.65-56.31-76.39-166.56-157.51-182.32-84.66-9.35,43.22,75.61,29.14,54.54,8.47Z" style="fill: #010101;"/>
  <path d="M2278.48,1197.26s16.54,1.97,14.57-8.27c-1.97-10.24-25.4-9.45-59.66,20.67-34.26,30.12-87.13,127.19-111.05,229.68-23.92,102.48-117.25,67.04-182.22,62.32v-47.45s51.38-7.39,97.56,18.9c46.18,26.3,56.71-123.26,113.02-199.65,56.31-76.39,166.56-157.51,182.32-84.66,9.35,43.22-75.61,29.14-54.54,8.47Z" style="fill: #010101;"/>
  <path d="M1598.25,956.39s2.19-15.86-3.55-26.34c-5.73-10.49,8.68-78.52,8.68-78.52,0,0-48.67,21.67-63.68,97.2-3.12,15.7,8.54,30.55,24.53,31.4.25.01.5.02.75.03,25.18.96,31.95-10.04,33.26-23.78Z" style="fill: #010101;"/>
  <path d="M2048.08,1382.13s0-.01,0-.02c-3.11-18.17-20.95-20.54-31.79-20.24-6.56-.18-11.63.82-11.63.82,0,0,18.06,7.71,12.22,27.37-1.09,3.66-1.3,6.58-.96,8.92-5.09,1.99-10.3,3.75-15.64,5.26v-40.75h-44.73v47.19c-.85.01-1.68.06-2.53.06s-1.69-.05-2.53-.06v-47.19h-44.73v40.75c-5.34-1.51-10.56-3.27-15.64-5.26.34-2.34.12-5.26-.96-8.92-5.83-19.66,12.22-27.37,12.22-27.37,0,0-5.07-.99-11.63-.82-10.84-.29-28.67,2.08-31.79,20.24,0,0,0,0,0,.02-7.06-4.77-13.65-10.07-19.75-15.81-1.82,10.95-3.91,21.14-5.96,30.07,32.57,25.6,74.75,41.08,120.77,41.08s88.2-15.48,120.77-41.08c-2.05-8.93-4.14-19.12-5.96-30.07-6.1,5.74-12.69,11.05-19.75,15.81Z" style="fill: #010101;"/>
  <path d="M1790.84,1190.52s15.06,103.27-29.04,137.69l43.57,107.57s5.2-15.89,10.7-39.84c2.33-10.12,4.7-21.68,6.76-34.1,9.8-59.04,12.43-137.31-31.98-171.33Z" style="fill: #010101;"/>
  <path d="M630.16,1139.54s36.88,111.86-.38,166.44c-3.14,4.6-3.37,10.58-.42,15.3l49.1,78.59c7.12,11.4,24.7,7.01,25.58-6.4.2-3.09.39-6.32.57-9.66.67-12.8,1.09-27.35.95-42.88-.68-73.83-14.17-169.51-75.39-201.38Z" style="fill: #010101;"/>
  <path d="M1129.97,1139.54s-36.88,111.86.38,166.44c3.14,4.6,3.37,10.58.42,15.3l-49.1,78.59c-7.12,11.4-24.7,7.01-25.58-6.4-.2-3.09-.39-6.32-.57-9.66-.67-12.8-1.09-27.35-.95-42.88.68-73.83,14.17-169.51,75.39-201.38Z" style="fill: #010101;"/>
  <path d="M2115.19,1190.52c-44.41,34.02-41.78,112.29-31.98,171.33,2.06,12.42,4.43,23.97,6.76,34.1,5.5,23.94,10.7,39.84,10.7,39.84l43.57-107.57c-44.1-34.42-29.04-137.69-29.04-137.69Z" style="fill: #010101;"/>
  <path d="M2150.58,1302.12l38.98-44.11s4.45-69.58-59.16-107.54c0,0,36.59,109.08,20.17,151.65Z" style="fill: #010101;"/>
  <path d="M1756.24,1309.52l-38.98-44.11s-4.45-69.58,59.16-107.54c0,0-36.59,109.08-20.17,151.65Z" style="fill: #010101;"/>
  <path d="M1522.89,946.74c-.94-9.28-12.62-12.93-18.57-5.75-10.79,13.01-28.86,27.3-58.81,34.72-60.46,14.99-52.16-23.36-36.83-17.07,15.34,6.29,6.27-26.65-13.71-18.27-19.98,8.38-27.37,37.93,1.78,58.9,30.35,21.82,76,19.67,106.99,7.26,14.36-5.75,23.16-20.32,21.6-35.71l-2.45-24.08Z" style="fill: #010101;"/>
  <path d="M2452.65,880.4s-34.83-50.08-91.7-2.35c-5.66,4.75-13.93,4.65-19.41-.31l-17.52-15.87c-5.23-4.74-4.67-13.14,1.18-17.1,25.32-17.1,89.75-51.03,145.41,0,71.07,65.16-10.56,112.19-34.16,78.36-23.61-33.83,16.2-42.74,16.2-42.74Z" style="fill: #010101;"/>
  <path d="M2383.14,946.74c.94-9.28,12.62-12.93,18.57-5.75,10.79,13.01,28.86,27.3,58.81,34.72,60.46,14.99,52.16-23.36,36.83-17.07-15.34,6.29-6.27-26.65,13.71-18.27,19.98,8.38,27.37,37.93-1.78,58.9-30.35,21.82-76,19.67-106.99,7.26-14.36-5.75-23.16-20.32-21.6-35.71l2.45-24.08Z" style="fill: #010101;"/>
  <path d="M2293.69,859.28s-36.43,63.82-113.78,10.1c-77.36-53.72-159.79-7.5-84.97,20.37,74.83,27.87,172.16,41.86,198.75-30.48Z" style="fill: #010101;"/>
  <path d="M2104.69,985.3c11.91,5.99,17.74,11.79,17.74,11.79,0,0,20.69-53.48,111-33.94,90.31,19.54,112.2,93.31,112.2,93.31h0c1.81,7.69,6.2,14.82,12.99,19.96,15.48,11.72,37.53,8.68,49.25-6.8,11.72-15.48,8.68-37.53-6.8-49.25-11.32-8.58-26.15-9.22-37.9-2.9-1.17-7.89-3.4-16.99-7.46-26.45-27.48,4.2-45.17-17.09-45.17-17.09,0,0-17.32-18.72-10.46-38.41-22.92-11.06-53.86-18.78-95.71-20.03-28.03-.84-54.22.95-78.5,4.55,3.56,25.35-4.44,52.09-21.18,65.28Z" style="fill: #010101;"/>
  <path d="M2307.13,956.39s-2.19-15.86,3.55-26.34c5.73-10.49-8.68-78.52-8.68-78.52,0,0,48.67,21.67,63.68,97.2,3.12,15.7-8.54,30.55-24.53,31.4-.25.01-.5.02-.75.03-25.18.96-31.95-10.04-33.26-23.78Z" style="fill: #010101;"/>
  <path d="M1153.16,44.29s60.45,30.75,7.56,101.1l38.56,32.31s60.97-94.59-13.29-156.08c-74.26-61.49-109.7,25.8-72.96,44.56,36.74,18.76,40.13-21.89,40.13-21.89Z" style="fill: #010101;"/>
  <path d="M1161.33,985.67s60.45-30.75,7.56-101.1l38.56-32.31s60.97,94.59-13.29,156.08c-74.26,61.49-109.7-25.8-72.96-44.56,36.74-18.76,40.13,21.89,40.13,21.89Z" style="fill: #010101;"/>
  <path d="M1101.07,618.24c-7.56,10.98-14.1,15.96-14.1,15.96,0,0,50.15,27.8,18.45,114.6-31.7,86.79-107.78,98.39-107.78,98.39h0c-7.86.74-15.53,4.12-21.55,10.14-13.73,13.73-13.73,35.99,0,49.72,13.73,13.73,35.99,13.73,49.72,0,10.05-10.05,12.71-24.65,8.05-37.14,7.98-.08,17.3-1.05,27.22-3.78-.41-27.8,23.11-42.41,23.11-42.41,0,0,20.91-14.6,39.48-5.11,14.08-21.19,25.96-50.79,32.93-92.08,4.66-27.65,6.47-53.84,6.23-78.38-25.6.06-51-11.52-61.77-29.91Z" style="fill: #010101;"/>
  <path d="M967.92,177.31c6.02,6.02,13.68,9.4,21.55,10.14h0s76.07,11.6,107.78,98.39c31.7,86.79-18.45,114.6-18.45,114.6,0,0,6.54,4.98,14.1,15.96,10.77-18.39,36.17-29.96,61.77-29.91.24-24.55-1.56-50.74-6.23-78.38-6.97-41.29-18.85-70.88-32.93-92.08-18.57,9.49-39.48-5.11-39.48-5.11,0,0-23.52-14.61-23.11-42.41-9.92-2.73-19.24-3.69-27.22-3.78,4.65-12.5,1.99-27.1-8.05-37.14-13.73-13.73-35.99-13.73-49.72,0s-13.73,35.99,0,49.72Z" style="fill: #010101;"/>
  <path d="M1093.86,201.42s16.01,0,25.61-7.11,78.97-2.13,78.97-2.13c0,0-28.12-45.25-104.99-49.79-15.98-.94-29.1,12.64-27.76,28.59.02.25.04.5.07.75,2.49,25.08,14.32,30.27,28.1,29.7Z" style="fill: #010101;"/>
  <path d="M1102.03,832.07s16.01,0,25.61,7.11c9.6,7.11,78.97,2.13,78.97,2.13,0,0-28.12,45.25-104.99,49.79-15.98.94-29.1-12.64-27.76-28.59.02-.25.04-.5.07-.75,2.49-25.08,14.32-30.27,28.1-29.7Z" style="fill: #010101;"/>
  <path d="M1198.73,372.53c14.04,17.11,28.06,40.46,30.8,67.53,0,0,33.42-53.42-15.56-118.56-48.99-65.14,59.14-154.25,59.14-154.25,0,0-74.66,4.11-99.51,85.34-12.7,41.51-2.41,86.38,25.13,119.94Z" style="fill: #010101;"/>
  <path d="M1198.73,654.67c14.04-17.11,28.06-40.46,30.8-67.53,0,0,33.42,53.42-15.56,118.56-48.99,65.14,59.14,154.25,59.14,154.25,0,0-74.66-4.11-99.51-85.34-12.7-41.51-2.41-86.38,25.13-119.94Z" style="fill: #010101;"/>
  <path d="M1020.38,472.22s60.45,30.75,7.56,101.1l38.56,32.31s60.97-94.59-13.29-156.08c-74.26-61.49-109.7,25.8-72.96,44.56,36.74,18.76,40.13-21.89,40.13-21.89Z" style="fill: #010101;"/>
  <path d="M951,497.69c1.89-4.12,7.44-4.86,10.42-1.46,4.51,5.14,11.01,10.96,18.31,12.47,11.09,2.3-19.31,38.37-31.73,52.49-3.01,3.43-7.43,5.24-11.99,4.98-8.31-.46-22.58-.35-34.71,4.31-1.8.69-3.32-1.48-1.98-2.88,13.57-14.25,39.48-43.39,51.69-69.92Z" style="fill: #010101;"/>
  <path d="M987.35,521.76c2.51-5.05,7.11-8.77,12.59-10.06,9.62-2.26,24.51-7.15,27.9-16.28,4.78-12.88,18.73,33.81-6.57,66.05-3.18,4.05-8.07,6.39-13.22,6.39h-33.81c-4.5,0-7.44-4.73-5.43-8.77l18.54-37.33Z" style="fill: #010101;"/>
  <path d="M2030.14,400.36c-46.56,43.28-19.67,117.82,61.2,120.66,80.87,2.84,104.7-140.33,104.7-140.33-62.3,27.98-119.35-23.61-165.9,19.67ZM2076.37,503.1c-29.52,0-53.44-23.93-53.44-53.44s23.93-53.44,53.44-53.44,53.44,23.93,53.44,53.44-23.93,53.44-53.44,53.44Z" style="fill: #010101;"/>
  <circle cx="2076.37" cy="449.65" r="44.26" transform="translate(-14.02 828.82) rotate(-22.5)" style="fill: #010101;"/>
  <path d="M2258.21,413.99s52.08,26.49,6.51,87.11l33.23,27.84s52.53-81.49-11.45-134.48c-63.98-52.98-94.51,22.23-62.86,38.39,31.65,16.16,34.57-18.86,34.57-18.86Z" style="fill: #010101;"/>
  <path d="M2198.43,435.93c1.63-3.55,6.41-4.19,8.98-1.26,3.88,4.43,9.48,9.44,15.78,10.75,9.55,1.98-16.64,33.06-27.34,45.23-2.6,2.95-6.4,4.51-10.33,4.29-7.16-.4-19.46-.3-29.91,3.71-1.55.6-2.86-1.27-1.71-2.48,11.69-12.28,34.02-37.38,44.53-60.25Z" style="fill: #010101;"/>
  <path d="M2229.74,456.67c2.16-4.35,6.12-7.56,10.85-8.67,8.29-1.94,21.12-6.16,24.04-14.03,4.12-11.1,16.14,29.13-5.66,56.91-2.74,3.49-6.96,5.5-11.39,5.5h-29.13c-3.88,0-6.41-4.08-4.68-7.55l15.98-32.16Z" style="fill: #010101;"/>
  <path d="M1708.84,380.69s23.83,143.17,104.7,140.33c80.88-2.84,107.76-77.38,61.2-120.66-46.56-43.28-103.61,8.31-165.9-19.67ZM1775.07,449.65c0-29.52,23.93-53.44,53.44-53.44,29.52,0,53.44,23.93,53.44,53.44,0,29.52-23.93,53.44-53.44,53.44s-53.44-23.93-53.44-53.44Z" style="fill: #010101;"/>
  <circle cx="1828.51" cy="449.65" r="44.26" transform="translate(713.34 1966.9) rotate(-67.5)" style="fill: #010101;"/>
  <path d="M1646.68,413.99s-52.08,26.49-6.51,87.11l-33.23,27.84s-52.53-81.49,11.45-134.48c63.98-52.98,94.51,22.23,62.86,38.39-31.65,16.16-34.57-18.86-34.57-18.86Z" style="fill: #010101;"/>
  <path d="M1706.45,435.93c-1.63-3.55-6.41-4.19-8.98-1.26-3.88,4.43-9.48,9.44-15.78,10.75-9.55,1.98,16.64,33.06,27.34,45.23,2.6,2.95,6.4,4.51,10.33,4.29,7.16-.4,19.46-.3,29.91,3.71,1.55.6,2.86-1.27,1.71-2.48-11.69-12.28-34.02-37.38-44.53-60.25Z" style="fill: #010101;"/>
  <path d="M1675.14,456.67c-2.16-4.35-6.12-7.56-10.85-8.67-8.29-1.94-21.12-6.16-24.04-14.03-4.12-11.1-16.14,29.13,5.66,56.91,2.74,3.49,6.96,5.5,11.39,5.5h29.13c3.88,0,6.41-4.08,4.68-7.55l-15.98-32.16Z" style="fill: #010101;"/>
  <rect x="743.78" y="1300.45" width="85.99" height="105.61" rx="4.02" ry="4.02" style="fill: #010101;"/>
  <rect x="927.03" y="1300.45" width="85.99" height="105.61" rx="4.34" ry="4.34" style="fill: #010101;"/>
  <rect x="842.71" y="1297.52" width="73.47" height="108.53" rx="4.34" ry="4.34" style="fill: #010101;"/>
  <g>
    <path d="M1070.81,1447.93s-93.75-38.42-191.25-33.61l-.03.03v31.58c1.25.06,2.48.08,3.73.15,79.01,4.68,139.77,23.3,176.51,37.9,20.78,8.26,44.12-3.31,49.95-24.9,13.09-48.52,39.68-124.79,83.89-159.76,0,0-93.95,62.63-122.81,148.6Z" style="fill: #010101;"/>
    <path d="M688.07,1447.93c-28.86-85.97-122.81-148.6-122.81-148.6,44.21,34.97,70.8,111.23,83.89,159.76,5.82,21.59,29.17,33.15,49.95,24.9,36.75-14.6,97.51-33.22,176.51-37.9,1.26-.07,2.48-.09,3.73-.15v-31.58s-.02-.02-.03-.03c-97.49-4.81-191.25,33.61-191.25,33.61Z" style="fill: #010101;"/>
  </g>
  <path d="M467.42,891.76c.38-.21.76-.43,1.14-.64.52-.29.08-.08-1.14.64Z" style="fill: #010101;"/>
  <path d="M632.26,1477.01s-14.26-128.1-138.33-204.03c0,0,94.79-84.63,128.13-358.57,0,0-70.49,203.3-183.17,322.58-26.65,28.21-17.75,74.34,17.62,90.31,67.98,30.7,154.54,81.85,175.76,149.71Z" style="fill: #010101;"/>
  <circle cx="1208.23" cy="1326.28" r="30.68" style="fill: #010101;"/>
  <path d="M1184.54,1345.78s-16.92-39.11-52.77,47.22c-35.85,86.33-8.68-22.5-8.68-22.5l61.45-63.7,17.06,25.78-17.06,13.21Z" style="fill: #010101;"/>
  <path d="M1539.2,254.05c-54.07-34.53-83.82-80.32-83.82-80.32-15.54,137.02,49.7,214.15,86.43,246.03.09.08.19.16.28.24,10.61,8.91,24.93-5.66,16.1-16.33-31.7-38.26-23.38-84.48-9.39-118.43,4.69-11.38.77-24.56-9.6-31.19Z" style="fill: #010101;"/>
  <path d="M1548.77,440.03c-39.53-8.08-67.32-28.26-67.32-28.26,21.77,83.96,77.46,114.54,106.21,124.97.07.03.14.05.22.08,8.24,2.84,13.36-8.95,5.77-13.22-27.24-15.32-32.77-44.33-32.21-67.42.19-7.74-5.08-14.6-12.67-16.15Z" style="fill: #010101;"/>
  <path d="M1578.92,549.49c-28.44-3.09-49.39-15.5-49.39-15.5,20.91,57.84,62.26,75.74,83.24,81.21.05.01.11.03.16.04,6,1.46,8.84-7.2,3.2-9.71-20.24-9.01-26.07-29.13-27.2-45.47-.38-5.48-4.55-9.97-10.01-10.56Z" style="fill: #010101;"/>
  <path d="M1617.93,291.28c-17.15-5.14-32.81-12.26-46.94-20.46-1.88-1.09-4.26-.48-5.36,1.4-19.93,33.91-41.65,91.9,4.14,138.39,1.71,1.74,4.58,1.49,5.95-.53h0c10.95-16.25,25.36-26.81,39.46-33.69,2.14-1.05,2.82-3.73,1.49-5.71-17.17-25.65-6.97-54.84,3.59-73.69,1.24-2.22.11-4.98-2.32-5.71Z" style="fill: #010101;"/>
  <path d="M1662.06,298.74c-9.51-.97-18.65-2.59-27.44-4.73-3.33-.81-6.77.75-8.43,3.75-10.17,18.47-19.64,46.38-4.15,71.26,1.95,3.13,5.86,4.39,9.3,3.06,6.74-2.59,13.19-4.41,18.9-5.67,14.95-3.31,27.52-13.36,34.3-27.09h0c8.73-17.67-2.88-38.58-22.49-40.59Z" style="fill: #010101;"/>
</svg>