<?xml version="1.0" encoding="UTF-8"?>
<svg id="Layer_1" xmlns="http://www.w3.org/2000/svg" version="1.1" viewBox="0 0 1989.9 1581.8">
  <!-- Generator: Adobe Illustrator 29.2.1, SVG Export Plug-In . SVG Version: 2.1.0 Build 116)  -->
  <defs>
    <style>
      .st0 {
        fill: #231f20;
      }
    </style>
  </defs>
  <path class="st0" d="M63.8,888.4l-45.2-45.7h-4.9s-1,194.7-1,194.7l152,.8.2-47.6-66.6-67.3,345.1-470.4,1.8-2.4,151.6,472.9-87.4,87.4v47.6h152v-194.7h-4.9l-21.2,21.2-154.4-481.4,175.6-230.4-491-1.8v-16.9c.1,0,.4-18.4.4-18.4l.8-58.7h97.1v.2h346.9v53.5h108l-102.5-99.6-155.2-.8H167.5l-43.7,46.9-41.1,41.5-1.8,1.8L1,201.7c-.8,7.9-1,16.2-1,24.9h473.5v103.5L63.8,888.4Z"/>
  <path class="st0" d="M95.7,1402.8v-162.1c113.4-25.9,140.5-138.2,140.5-138.2H46.9v133.9h0v205.2l140.2,140.2h585.4v-.2h23.8v-.2c0-77.9,51.7-143.7,122.7-165.1v-15.7l-209.6.6-613.7,1.5h0Z"/>
  <path class="st0" d="M1842.8,1144.1l-638.7,5.4-139.5,141.8v150.6l139.8,139.8h635.2l150.4-150.4v-140l-147.1-147.1h0ZM1837.8,1538.7h-611.2l-20.4-23.5v-295.3l21.9-23.9h609.7v342.7h0Z"/>
  <path class="st0" d="M1204.1,724.2h.9l637.8,5.4,147.1-147.1v-47.6h-152v5.2h-631.7V197.5h631.7v34.6h152v-47.6l-38.9-38.9h-113.1l-631.7,1.8-3.3,3.4-138.4,141.9v139.2h0v150.7l91.2,92.6,48.4,49.1h0ZM1837.9,583v94.7h-631.7v-94.7h631.7Z"/>
  <polygon class="st0" points="1204.1 1058.7 1837.9 1064.1 1842.8 1064.1 1989.9 917 1989.9 869.4 1837.9 869.4 1837.9 1012.2 1679.2 1012.2 1677.9 796.3 1610.8 796.3 1537.5 869.4 1537.5 1012.2 1209.1 1012.2 1209.1 863.4 1057.1 863.4 1057.1 911 1158.1 1012.1 1204.1 1058.7"/>
  <polygon class="st0" points="919 1400.7 709.5 1400.7 709.5 1401.2 919 1400.7"/>
  <polygon class="st0" points="848.1 173.9 848.1 366.4 740.3 366.4 740.3 401 848.1 506.1 848.1 918.9 939.4 1011.5 989.8 1060.6 989.8 32.2 987.8 32.2 848.1 173.9"/>
  <polygon class="st0" points="1171.4 61.4 1217.2 108 1218.8 108 1652.4 111.6 1856 113.4 1964.1 5.2 1851 5.2 1851 61.4 1219.3 61.4 1219.3 3.4 1216.1 0 1110.9 0 1128.4 17.8 1171.4 61.4"/>
</svg>