<?xml version="1.0" encoding="UTF-8"?>
<svg id="Layer_1" xmlns="http://www.w3.org/2000/svg" version="1.1" viewBox="0 0 1198.5 1216.5">
  <!-- Generator: Adobe Illustrator 29.2.1, SVG Export Plug-In . SVG Version: 2.1.0 Build 116)  -->
  <rect x="635.3" width="563.2" height="90.2"/>
  <rect x="635.3" y="281.4" width="563.2" height="90.2"/>
  <rect x="852.3" y="422.1" width="129.2" height="90.2"/>
  <rect x="635.3" y="562.8" width="563.2" height="90.2"/>
  <rect x="787.7" y="703.5" width="258.3" height="90.2"/>
  <rect x="635.3" y="844.2" width="563.2" height="90.2"/>
  <rect x="635.3" y="984.9" width="563.2" height="90.2"/>
  <rect x="787.7" y="1125.6" width="258.3" height="90.2"/>
  <rect x="2.3" y="703.5" width="258.3" height="90.2"/>
  <rect x="2.3" y="844.4" width="258.3" height="90.2"/>
  <rect x="2.3" y="985.3" width="258.3" height="90.2"/>
  <rect y="1126.3" width="563.2" height="90.2"/>
  <rect y="140.7" width="90.2" height="422.3"/>
  <rect x="196.4" y="302.6" width="90.2" height="258.3" transform="translate(-201.1 210.7) rotate(-34.2)"/>
  <rect x="2.3" width="563.2" height="90.2"/>
  <rect x="473" y="140.5" width="90.2" height="563.2"/>
  <rect x="298.2" y="140.7" width="129.2" height="90.2"/>
  <rect x="635.3" y="140.7" width="563.2" height="90.2"/>
</svg>