<?xml version="1.0" encoding="UTF-8"?>
<svg id="Layer_1" data-name="Layer 1" xmlns="http://www.w3.org/2000/svg" viewBox="0 0 2015.83 1675.02">
  <path d="M744.58,268.59c-3.61,29.35,17.27,56.07,46.62,59.68,29.35,3.61,56.07-17.27,59.68-46.62.26-2.13.38-4.24.39-6.33.95-.48,1.88-.98,2.84-1.45,16.15-8.01,32.07-14.1,48.61-21.2,8.92-3.83,17.73-7.91,26.27-12.52.31,4.71.52,9.42.6,14.14.36,21.41-1.56,42.59-5.8,63.41-2.11,10.36-4.78,20.6-8.02,30.66-2.97,9.21-6.52,18.56-10.26,27.04-7.68,17.43-17.05,34.08-27.7,49.87-2.61,3.87-5.3,7.69-8.06,11.46-2.8,3.82-5.33,7.15-8.07,10.62-5.7,7.22-11.65,14.25-17.8,21.1-12.09,13.47-24.95,26.23-38.25,38.49-14.41,13.28-29.34,25.99-44.24,38.7-15.18,12.95-30.37,25.9-45.07,39.41-14.92,13.71-29.31,28.01-42.65,43.27-12.75,14.59-24.5,30.05-34.98,46.35-9.96,15.49-18.83,31.68-26.68,48.33-8.15,17.3-15.25,35.11-21.29,53.26-6.09,18.3-11.11,36.96-15.07,55.84-4.04,19.25-6.98,38.74-8.82,58.32-1.82,19.37-2.54,38.85-2.08,58.31.22,9.38.73,18.76,1.5,28.11.17,2.05,1.7,4.05,3.95,3.95,1.99-.09,4.14-1.75,3.95-3.95-1.6-19.19-2.01-38.46-1.31-57.7.35-9.59.98-19.16,1.88-28.71.91-9.64,2.02-18.71,3.43-27.95,2.9-19.03,6.86-37.91,11.87-56.49,4.93-18.26,10.88-36.25,17.87-53.83,3.4-8.54,6.89-16.59,10.92-25.15,3.9-8.27,8.04-16.42,12.45-24.43,8.64-15.69,18.27-30.85,28.97-45.22,11.81-15.86,25.21-30.97,39.22-45.15,14-14.17,28.77-27.55,43.79-40.62,14.86-12.93,29.96-25.58,44.84-38.49,13.92-12.08,27.64-24.41,40.73-37.4,12.81-12.72,25.03-26.05,36.34-40.12,11.71-14.58,22.49-29.91,31.85-46.1,9.71-16.79,17.9-34.47,24.28-52.79,6.91-19.84,11.5-40.4,14.03-61.25,2.57-21.09,2.92-42.47.91-63.63-2.06-21.6-7.32-42.94-9.63-64.31-1.17-10.87-1.57-21.88-.36-32.77.03-.28.06-.55.1-.83,0-.04.03-.22.04-.34.06-.44.13-.87.19-1.31.19-1.18.4-2.35.64-3.52.46-2.27,1.03-4.53,1.68-6.75.65-2.22,1.39-4.41,2.22-6.57.17-.45.35-.91.53-1.36.1-.26.21-.51.32-.77,0-.02.01-.03.02-.04.01-.03.04-.08.07-.16.47-1.07.95-2.13,1.46-3.18,1.91-3.93,4.13-7.71,6.73-11.22.15-.2.29-.39.44-.59.3-.38.61-.76.92-1.14.66-.8,1.35-1.59,2.06-2.35.01-.01.03-.03.04-.04-.99,1.89-1.88,3.79-2.66,5.65-3.46,8.24-5.48,17.01-6.31,25.9-.95,10.18.15,20.48,2.02,30.49,3.95,21.14,12.26,41.09,18.55,61.57,6.47,21.08,10.33,42.63,11.75,64.47,1.43,22.02.45,44.48-3.1,66-3.35,20.3-8.85,40.22-16.14,59.46-6.91,18.26-15.61,36.18-25.47,53.44-9.71,16.98-20.53,33.31-32.05,49.12-2.81,3.85-5.65,7.67-8.54,11.45-.67.89-1.35,1.77-2.03,2.65-.87,1.13-1.06,1.37-1.93,2.5-1.48,1.9-2.96,3.79-4.45,5.68-6.45,8.16-13.01,16.22-19.63,24.24-13.17,15.97-26.52,31.78-39.46,47.93-13.23,16.51-26.05,33.37-37.81,50.96-11.51,17.22-21.98,35.15-30.92,53.85-8.47,17.71-15.67,36.03-21.68,54.72-6.12,19.06-11,38.52-14.71,58.2-3.79,20.12-6.38,40.48-7.78,60.91-1.4,20.34-1.6,40.76-.58,61.12,1.03,20.53,3.3,41.01,6.84,61.27,1.67,9.57,3.65,19.09,5.92,28.53.5,2.08,2.85,3.31,4.86,2.76,2.12-.58,3.26-2.78,2.76-4.86-2.34-9.73-4.37-19.54-6.07-29.41-1.72-9.95-3-19.03-4.07-28.89-2.19-20.09-3.16-40.32-2.94-60.53.22-20.13,1.6-40.25,4.16-60.22.57-4.44,1.27-9.3,2.03-14.15.79-4.97,1.65-9.92,2.58-14.86,1.86-9.82,4.01-19.58,6.46-29.26,4.78-18.9,10.71-37.52,17.86-55.66,3.46-8.77,7.01-16.94,11.18-25.68,4.28-8.96,8.92-17.76,13.86-26.38,10.41-18.17,22.15-35.54,34.65-52.33,12.06-16.21,24.95-32.02,37.99-47.76,13.06-15.77,26.23-31.44,38.95-47.48,12.01-15.15,23.57-30.66,34.26-46.77,10.77-16.23,20.67-33.06,29.27-50.55,8.88-18.07,16.4-36.84,22.06-56.16,5.98-20.43,9.84-41.48,11.4-62.72,1.63-22.17.7-44.46-2.56-66.44-1.59-10.75-3.79-21.41-6.61-31.9-.77-2.84-1.59-5.67-2.44-8.49,14.24-12.29,26.19-27.23,34.4-44.2,9.4-19.43,14.61-42,10.15-63.47-3.39-16.33-14.83-36.13-33.46-37.12-6.44-.34-12.07,1.84-16.87,5.41-3.44.6-6.78,1.87-9.82,3.67-7.2,4.25-12.84,10.91-17.2,17.95-4.91,7.94-8.43,16.88-10.46,25.99-4.77,21.4-1.53,43.87,2.1,65.18,1.34,7.88,2.84,15.91,4.08,23.82-19.44,10.6-40.8,16.51-62.49,21.13-8.31,1.77-16.67,3.43-24.99,5.23-8.4-9.94-20.42-16.87-34.36-18.58-29.35-3.61-56.07,17.27-59.68,46.62ZM942.5,127.67c.08-1.04.18-2.07.29-3.1.05-.47.11-.93.17-1.39.01-.1.03-.22.04-.26.06-.39.11-.77.17-1.16.68-4.32,1.69-8.59,3.02-12.76.63-1.97,1.33-3.91,2.11-5.82.02-.04.1-.23.15-.37.06-.13.15-.34.17-.38.22-.5.45-1,.68-1.5.43-.92.88-1.84,1.36-2.74.92-1.75,1.91-3.45,3-5.1.49-.75,1.01-1.48,1.54-2.2.11-.15.23-.31.34-.46.01-.02.02-.02.04-.05.31-.38.61-.76.93-1.13,1.15-1.35,2.38-2.63,3.71-3.81.14-.12.28-.24.42-.36.48-.02.96-.04,1.44-.03.4,0,.8.03,1.21.06.2.02.4.04.6.06,0,0,0,0,.02,0,.81.2,1.63.32,2.43.55.41.12.82.25,1.23.39.2.07.4.17.61.23.02,0,.02,0,.04,0,.03.01.04.02.07.03,1.53.73,2.97,1.57,4.34,2.57.09.08.58.47.71.58.35.3.69.6,1.02.92.72.68,1.41,1.4,2.06,2.14.31.36.62.72.92,1.09.03.04.15.19.24.3.09.12.22.3.25.34.62.85,1.2,1.72,1.75,2.62,1.08,1.74,2.02,3.57,2.86,5.44.08.18.16.37.24.55.04.09.11.28.13.32.19.5.39.99.57,1.49.4,1.08.76,2.16,1.09,3.26.65,2.18,1.18,4.39,1.58,6.62.41,2.25.56,3.53.72,6.03.63,10.05-.97,19.48-4.13,29.07-3.02,9.17-7.5,17.85-13.07,26.02-4.17,6.11-8.98,11.83-14.31,17.11-6.47-19.02-12.86-38.62-12.96-58.62-.01-2.19.07-4.39.23-6.58ZM974.55,80.09c.3.02,1.72.26.77.06.84.17,1.68.32,2.52.55.41.12.83.25,1.23.39.2.07.41.15.61.22.06.02.08.03.12.04,1.72.82,3.35,1.73,4.9,2.84.04.03.18.13.28.21.11.08.24.19.28.23.36.3.72.6,1.07.91.8.71,1.57,1.47,2.3,2.25.67.72,1.31,1.46,1.93,2.22.03.04.17.22.27.34.09.12.23.31.26.35.34.46.67.92.99,1.39,1.25,1.83,2.37,3.75,3.37,5.73.48.96.94,1.93,1.37,2.91.32.74.14.34.08.18.1.25.2.5.3.76.25.64.49,1.28.72,1.92.78,2.22,1.44,4.48,1.96,6.78,2.18,9.63,1.91,20.5.16,30.15-.94,5.16-2.28,10.25-3.95,15.22-1.68,4.98-3.44,9.18-5.73,13.84-2.21,4.49-4.68,8.86-7.4,13.07-1.32,2.05-2.7,4.05-4.13,6.02-1.46,2-2.36,3.16-3.91,5.06-4.39,5.36-9.2,10.36-14.33,15.01-.83-2.54-1.68-5.07-2.54-7.6,14.41-13.43,25.9-30.33,32.12-49.07,6.15-18.53,6.93-39.99-2.82-57.47-3.33-5.97-8.08-11.36-14.14-14.55.07,0,.14,0,.21,0,.38,0,.76.02,1.14.04ZM940.66,98.13s0-.01.01-.02c-.08.1-.25.32-.01.02ZM895.24,235.5c11.02-3.41,21.82-7.65,32.05-12.99.39,3,.71,6,1,9.01-16.49,9.22-33.52,15.97-50.66,23.17-9.09,3.82-18.16,7.77-27.01,12.13-1.08-6.91-3.49-13.43-7.01-19.27,17.29-3.66,34.71-6.82,51.62-12.06Z"/>
  <path d="M1979.18,1473.65c-18.08,8.28-34.34,19.89-49.73,32.37-15.35,12.45-29.89,25.87-45.14,38.44-1.89,1.56-3.79,3.1-5.7,4.63-.93.74-1.86,1.48-2.8,2.21-.38.3-.76.59-1.14.89-.11.09-.34.26-.41.31-.31.24-.63.48-.94.72-3.91,2.99-7.89,5.88-11.96,8.66-7.97,5.44-16.29,10.4-25,14.57-1.06.51-2.13,1-3.2,1.49-.48.22-.96.43-1.44.64-.3.13-.6.26-.9.39-.15.07-.31.13-.46.2-.02,0-.03.01-.05.02-2.35.98-4.73,1.9-7.13,2.76-5.57,1.98-11.27,3.62-17.03,4.94-11.6,2.65-22.9,3.94-34.83,4.48-24.3,1.11-48.62-1.04-72.82-2.99-25.88-2.09-51.75-4.42-77.59-6.99-25.67-2.55-51.31-5.34-76.93-8.37-25.61-3.03-51.24-6.29-76.75-9.79-22.15-3.04-44.33-6.03-66.34-9.97-19.3-3.45-38.49-7.67-57.22-13.51-4.59-1.43-9.15-2.96-13.67-4.61-2.24-.82-4.48-1.66-6.7-2.54-1.08-.42-2.15-.85-3.22-1.29-.53-.22-1.07-.44-1.6-.66-.17-.07-.33-.14-.5-.21-.06-.02-.59-.25-.68-.29-8.69-3.71-17.17-7.92-25.29-12.74-3.98-2.36-7.88-4.87-11.67-7.53-1.89-1.33-3.75-2.69-5.58-4.09-.05-.04-.08-.06-.12-.09-.02-.02-.06-.04-.12-.09-.25-.19-.49-.38-.74-.58-.39-.31-.78-.62-1.17-.93-.97-.78-1.93-1.57-2.89-2.38-7.09-5.98-13.64-12.61-19.47-19.82-.36-.44-.72-.89-1.07-1.34-.19-.25-.39-.49-.58-.74-.03-.04-.05-.07-.09-.12-.74-.97-1.46-1.94-2.17-2.92-1.57-2.17-3.08-4.39-4.52-6.65-3.01-4.72-5.74-9.62-8.2-14.65-3.45-7.08-6.34-14.46-8.78-22.06-1.6-7.91-2.68-15.91-3.29-23.85-.88-11.51-.91-23.08-.35-34.61.26-5.32.65-10.63,1.17-15.93.54-5.48,1.15-10.41,1.91-15.47,3.18-21.16,8.46-42.02,15.87-62.1,7.19-19.48,16.63-38.54,28.21-56.28,5.85-8.96,11.83-17.04,18.59-25.03,6.76-8,14.02-15.59,21.77-22.65,7.8-7.11,15.35-13.12,23.88-19.02,8.48-5.88,17.34-11.2,26.51-15.94,9.4-4.85,18.12-8.65,27.94-12.15,9.66-3.44,19.56-6.25,29.61-8.34,4.97-1.04,9.98-1.91,15.02-2.59.11-.01.25-.03.28-.04.34-.04.68-.09,1.03-.13.62-.08,1.23-.15,1.85-.22,1.3-.15,2.61-.29,3.91-.42,2.54-.25,5.09-.45,7.64-.6,10.2-.61,20.46-.45,30.64.51,5.27.5,9.18,1.02,14.43,1.96,4.61.82,9.18,1.83,13.7,3.01,4.59,1.2,9.13,2.58,13.62,4.13,2.21.77,4.41,1.57,6.6,2.42,1.06.41,2.12.83,3.18,1.27.42.17.84.34,1.25.52.13.05.36.15.43.18.35.15.7.3,1.05.45,8.66,3.76,17.04,8.16,25.05,13.15,3.98,2.48,7.87,5.1,11.66,7.86.87.63,1.73,1.27,2.59,1.92,1.25.94,1.15.87,2.36,1.81,1.89,1.49,3.75,3.01,5.58,4.56,5.48,4.65,10.69,9.62,15.6,14.87,1.59,2.68,3.11,5.41,4.54,8.18,1.05,2.04,2.06,4.1,3.02,6.18.48,1.04.95,2.09,1.41,3.15.13.29.25.59.38.88.02.04.02.06.04.08,0,.01,0,.02.01.03.27.65.54,1.3.8,1.95,3.32,8.25,5.86,16.8,7.61,25.52.45,2.22.84,4.46,1.19,6.7.07.47.14.94.21,1.42.03.24.07.47.1.71,0,.06.02.11.02.15,0,.01,0,.02,0,.04.15,1.12.28,2.25.41,3.38.49,4.46.78,8.93.88,13.41.1,4.43.02,8.85-.24,13.27-.13,2.21-.31,4.42-.53,6.62-.11,1.07-.23,2.14-.35,3.21-.06.53-.13,1.07-.2,1.6,0,.05-.01.08-.01.11,0,.03,0,.05-.01.08-.05.36-.1.71-.15,1.07-1.27,8.76-3.24,17.42-5.9,25.86-1.33,4.21-2.82,8.37-4.48,12.45-.2.5-.41.99-.61,1.49-.01.03-.02.04-.02.06-.02.05-.03.08-.06.15-.09.22-.19.44-.28.66-.47,1.09-.96,2.18-1.46,3.26-.89,1.94-1.83,3.87-2.8,5.77-4.01,7.85-8.68,15.37-14,22.41-.11.15-.71.93-.68.89-.29.37-.58.74-.87,1.11-.7.88-1.4,1.75-2.12,2.61-1.43,1.72-2.91,3.41-4.43,5.05-2.95,3.21-6.05,6.28-9.3,9.2-1.62,1.46-3.28,2.88-4.98,4.25-.74.6-1.49,1.2-2.25,1.78-.1.08-.24.18-.3.23-.24.18-.47.36-.71.53-.47.35-.95.71-1.43,1.05-3.56,2.59-7.25,5-11.05,7.21-9.82,5.7-19.77,9.89-30.59,13.2-5.55,1.7-11.18,3.1-16.87,4.25-5.7,1.15-11.15,1.98-16.66,2.59-11.38,1.25-22.87,1.6-34.32,1.16-11.45-.44-22.08-1.63-33.16-4.09-11.03-2.45-21.65-6.01-31.49-11.05-4.73-2.42-9.29-5.16-13.62-8.24-2.17-1.54-3.29-2.4-5.22-3.99-1.95-1.6-3.85-3.28-5.68-5.01-1.64-1.55-3.24-3.16-4.78-4.81-.76-1.51-1.49-3.03-2.18-4.57-.6-1.34-.73-1.65-1.17-2.73-.48-1.17-.94-2.35-1.38-3.54-1.74-4.68-3.17-9.48-4.3-14.34-.54-2.33-1.01-4.69-1.4-7.05-.11-.66-.21-1.31-.31-1.97-.02-.16-.12-.85-.15-1.04-.17-1.28-.32-2.56-.44-3.85-.47-4.9-.63-9.83-.45-14.74.09-2.39.25-4.78.5-7.16.07-.66.14-1.32.22-1.98.03-.21.05-.41.08-.62.01-.11.03-.26.04-.31.19-1.32.4-2.63.63-3.95.84-4.68,2.01-9.3,3.47-13.82.73-2.26,1.53-4.49,2.41-6.7.21-.54.43-1.07.65-1.6.02-.05.03-.08.05-.12.13-.29.25-.59.38-.88.49-1.12.99-2.23,1.52-3.33,2.04-4.29,4.35-8.45,6.91-12.45,1.31-2.06,2.69-4.07,4.13-6.04.3-.41.61-.83.92-1.24.15-.21.31-.41.46-.61.06-.08.09-.12.13-.17.02-.02.04-.05.08-.1.75-.96,1.52-1.91,2.3-2.85,3.04-3.66,6.3-7.13,9.75-10.4,1.77-1.68,3.6-3.3,5.48-4.86.89-.74,1.79-1.46,2.7-2.18.03-.03.16-.13.24-.19.16-.12.32-.24.48-.37.51-.39,1.03-.77,1.55-1.15,3.88-2.84,7.95-5.43,12.16-7.74,2.08-1.14,4.2-2.22,6.35-3.22,2.45-1.14,3.49-1.59,5.96-2.54,4.39-1.68,8.89-3.07,13.47-4.12,2.29-.52,4.59-.97,6.91-1.33.56-.09,1.13-.17,1.7-.25.04,0,.08-.01.1-.01.05,0,.1-.01.17-.02.25-.03.5-.06.76-.09,1.26-.15,2.53-.28,3.8-.38,4.69-.38,9.4-.44,14.1-.18,2.28.13,4.55.33,6.82.61-.04,0,.48.07.68.09.23.03.56.08.53.08.5.07,1,.15,1.5.23,1.25.2,2.49.43,3.73.68,4.55.93,9.04,2.18,13.41,3.77,1.06.38,2.11.79,3.15,1.21.17.07.33.14.5.21.09.04.23.1.28.12.63.28,1.25.55,1.88.84,2.09.96,4.14,2.01,6.14,3.14,1.21.69,2.4,1.41,3.58,2.16.16.33.33.65.48.98.24.53.47,1.05.71,1.58,0,.02.02.04.03.07.08.19.16.39.24.58.43,1.07.84,2.16,1.22,3.25.69,1.97,1.29,3.96,1.81,5.98.55,2.13,1,4.28,1.36,6.44.08.46.15.91.21,1.37,0,0,.06.44.08.62.02.19.05.39.05.39.13,1.09.23,2.17.31,3.27.31,4.22.25,8.47-.19,12.67-.04.42-.1.85-.15,1.27.02-.2-.12.86-.15,1.06-.17,1.06-.36,2.12-.58,3.17-.44,2.09-.98,4.16-1.63,6.2-.31.96-.64,1.91-.99,2.86-.16.42-.32.84-.49,1.25-.04.1-.08.2-.12.3.01-.03-.2.48-.26.61-.86,1.94-1.82,3.84-2.9,5.67-1.05,1.79-2.21,3.51-3.45,5.17-.03.04-.04.05-.05.07-.02.02-.03.03-.05.06-.14.18-.28.35-.42.53-.28.35-.57.7-.87,1.04-.74.86-1.51,1.7-2.3,2.52-1.39,1.42-2.92,2.65-4.39,3.98,0,0,0,0-.01.01,0,0,0,0,0,0-.16.12-.32.24-.47.35-.36.26-.72.52-1.08.77-.77.53-1.55,1.03-2.35,1.51-1.05.63-2.14,1.21-3.25,1.75,2.96-28.92-17.74-55.03-46.73-58.59-29.35-3.61-56.07,17.27-59.68,46.62-3.61,29.35,17.27,56.07,46.62,59.68,14.16,1.74,27.71-2.23,38.34-10.09,11.06,4.56,23.45,6.05,35.17,3.75,16.68-3.27,30.38-15.41,37.65-30.52,7.62-15.85,9.01-34.37,4.66-51.35-2.16-8.44-5.81-16.63-10.92-23.7-5.29-7.31-11.91-13.55-19.36-18.61-3.15-6.16-7.1-11.88-11.93-16.9-6.7-6.96-15-12.52-23.82-16.42-18.66-8.23-39.63-9.71-59.52-5.65-19.84,4.05-38.05,14.04-52.7,27.94-14.64,13.89-25.67,31.59-31.82,50.81-6.25,19.55-6.99,40.51-2.23,60.47,4.72,19.81,14.68,38.36,28.43,53.38,1.32,2.58,2.72,5.13,4.22,7.61,11.16,18.44,27.24,33.11,46.27,43.16,20.5,10.82,43.28,16.52,66.17,19.41,24.15,3.05,49.04,2.44,72.65-3.84,19.18-5.1,36.88-14.17,52.25-26.71,14.13-11.53,26.02-25.83,35.24-41.54,9.31-15.87,16.03-33.36,19.68-51.4,3.71-18.34,4.32-37.16,1.48-55.66-2.88-18.81-9.54-37.05-18.82-53.62-7-12.49-15.58-24.13-25.33-34.64-4.34-7.2-9.22-14.08-14.57-20.58-12.37-15.03-27.32-27.93-43.73-38.36-16.53-10.5-34.72-18.53-53.61-23.69-19.19-5.24-39.2-7.45-59.07-6.44-20.69,1.05-41.19,5.32-60.65,12.39-19.49,7.08-38,16.8-54.94,28.78-16.99,12.01-32.48,26.14-45.86,42.09-14.08,16.79-25.84,35.47-35.13,55.31-9.49,20.27-16.52,41.64-21.08,63.55-4.56,21.94-6.76,44.39-6.64,66.79.13,22.74,2.43,45.69,7.67,67.84,1.29,5.46,2.8,10.9,4.53,16.26,2.59,12.55,6.46,24.81,11.99,36.45,8.22,17.29,20.08,32.74,34.05,45.77,14.07,13.12,30.19,23.94,47.1,33.05,17.48,9.42,35.86,17.11,54.51,23.9,20.04,7.3,40.46,13.49,60.87,19.67,24.96,7.55,49.99,14.87,75.09,21.95,25.1,7.08,50.26,13.93,75.48,20.54,25.22,6.61,50.51,12.99,75.85,19.13,24.98,6.05,50.03,12.52,75.51,16.2,24.96,3.6,50.47,4.23,75.06-2.15,19.95-5.18,38.61-14.4,56.34-24.73,17.89-10.42,35.04-22.03,52.9-32.5,8.51-4.99,17.18-9.72,26.13-13.88,2.21-1.03,4.43-2.02,6.67-2.98.07-.03.13-.06.19-.08.02,0,.08-.03.18-.07.31-.13.62-.26.94-.39.5-.21,1-.41,1.5-.61,1.13-.45,2.26-.9,3.4-1.33,4.69-1.78,9.44-3.36,14.27-4.73,2.05-.58,3.33-2.79,2.76-4.86-.56-2.05-2.8-3.34-4.86-2.76-19.63,5.55-37.98,14.78-55.51,25.07-17.55,10.31-34.44,21.71-52.02,31.98-8.65,5.05-17.48,9.83-26.59,14.01-1.1.5-2.21,1-3.31,1.49-.49.22-.99.43-1.48.64.08-.03-.52.22-.7.3-.19.08-.66.28-.78.32-2.3.95-4.61,1.86-6.94,2.71-4.67,1.72-9.41,3.24-14.22,4.52-23.21,6.19-47.71,5.85-71.33,2.48-25.14-3.58-49.85-9.94-74.5-15.91-24.84-6.01-49.63-12.24-74.36-18.71-24.73-6.46-49.4-13.15-74-20.06-24.69-6.94-49.31-14.1-73.87-21.49-20.57-6.19-41.16-12.36-61.41-19.53-9.12-3.23-18.17-6.66-27.09-10.39-.24-.1-.48-.2-.72-.3-.07-.03-.13-.05-.18-.08-.03-.01-.07-.03-.14-.06-.54-.23-1.08-.46-1.62-.69-1.14-.49-2.27-.98-3.41-1.48-2.2-.97-4.4-1.96-6.58-2.97-4.35-2.01-8.66-4.1-12.91-6.29-8.4-4.32-16.62-9.03-24.52-14.21-3.95-2.59-7.81-5.29-11.58-8.12-.45-.34-.9-.68-1.35-1.02-.14-.11-.28-.22-.43-.33-.08-.06-.22-.17-.26-.2-.98-.77-1.96-1.54-2.93-2.33-1.79-1.45-3.55-2.93-5.28-4.44-4.12-3.6-8.08-7.39-11.84-11.37,6.76,6.02,14.02,11.48,21.7,16.36,16.44,10.46,34.49,18.26,52.95,24.39,18.85,6.26,38.24,10.75,57.75,14.39,22.04,4.11,44.27,7.14,66.47,10.21,26.33,3.64,52.7,7.05,79.09,10.2,26.13,3.12,52.29,5.99,78.48,8.61,26.19,2.62,52.4,5,78.63,7.13,24.73,2.01,49.59,4.26,74.43,3.18,23.76-1.04,47.2-5.48,68.8-15.67,18.12-8.55,34.37-20.5,49.79-33.17,15.53-12.76,30.29-26.43,45.91-39.07,3.96-3.2,7.07-5.64,10.95-8.53,3.86-2.87,7.78-5.65,11.79-8.3,8-5.29,16.35-10.06,25.08-14.06,1.94-.89,2.42-3.7,1.42-5.41-1.17-1.99-3.46-2.31-5.41-1.42ZM1248.62,1479.81c.1.13.3.4,0,0h0ZM1349.38,1274.32c.21-.51.06-.15,0,0h0ZM1495.28,1223.45c.08.18.18.44,0,0h0ZM1511.04,1235.82c.14.17.28.35.42.52,0,0,.19.24.31.39.12.16.31.41.3.4.13.18.27.36.4.54.66.9,1.3,1.82,1.91,2.76,1.1,1.69,2.12,3.43,3.05,5.21.47.89.92,1.8,1.34,2.71.21.46.42.92.63,1.38.08.18.15.35.23.53.03.08.16.38.22.54.76,1.87,1.43,3.78,2.02,5.71.63,2.04,1.16,4.11,1.61,6.2.21.99.4,1.99.57,2.98.08.44.15.89.21,1.33.03.22.06.45.1.67,0,.06.01.08.02.12,0,.04,0,.08.02.17.47,4.19.68,8.39.48,12.61-.04.95-.11,1.9-.19,2.85-.05.56-.1,1.11-.16,1.67-.02.22-.05.44-.08.67,0,.06-.04.3-.06.48-.27,1.97-.63,3.92-1.07,5.86-.45,1.99-.99,3.96-1.62,5.91-.31.94-.63,1.87-.98,2.8-.15.41-.31.82-.48,1.23-.09.23-.19.45-.28.68-.05.11-.1.23-.15.34-1.66,3.68-3.59,7.21-5.93,10.51-.28.4-.58.79-.87,1.18-.03.04-.04.06-.06.09-.14.18-.28.35-.42.53-.65.81-1.32,1.59-2.01,2.36-1.39,1.54-2.87,3-4.44,4.37-.33.29-.67.58-1.01.86-.17.14-.34.28-.51.42,0,0-.23.18-.38.31-.16.12-.4.3-.39.3-.18.13-.36.27-.54.4-.45.33-.91.65-1.37.96-1.63,1.1-3.32,2.1-5.08,2.98-.36.18-.73.36-1.1.53-.12.06-.79.35-.98.43-.76.31-1.52.61-2.29.87-1.81.63-3.66,1.14-5.54,1.55-.89.19-1.78.36-2.68.5-.22.03-.66.09-.78.11-.44.05-.89.11-1.33.15-1.87.18-3.75.25-5.63.23-1.89-.02-3.77-.14-5.65-.34-.25-.03-1.68-.23-.62-.07-.4-.06-.81-.12-1.21-.18-1.01-.16-2.02-.35-3.02-.57-1.86-.4-3.69-.88-5.5-1.45-.25-.08-.5-.17-.75-.25,5.94-6.17,10.44-13.79,12.89-22.39,6.74-2.44,12.93-6.22,18.07-11.25,6.42-6.28,11.14-14.07,14.14-22.51,4.9-13.79,4.98-29.3,1.09-43.47,1.8,1.77,3.51,3.63,5.11,5.58ZM1332.69,1333.85c-.28-.61-.55-1.21-.82-1.82-.07-.15-.36-.83-.42-.99-.5-1.2-.98-2.4-1.44-3.62-.85-2.24-1.62-4.51-2.33-6.8-1.47-4.77-2.63-9.63-3.45-14.55-.46-2.71-.61-3.89-.88-6.66-.24-2.52-.39-5.04-.46-7.57-.12-4.88.1-9.76.66-14.6.05-.46.11-.92.17-1.38.02-.14.05-.4.07-.49.05-.32.09-.65.14-.97.18-1.16.37-2.32.59-3.48.45-2.44.99-4.87,1.6-7.28,2.48-9.68,5.72-17.77,10.47-26.34,2.35-4.24,4.96-8.34,7.81-12.26.39-.53.78-1.06,1.17-1.58.1-.13.53-.7.64-.83.79-1.01,1.59-2,2.41-2.98,1.55-1.86,3.16-3.67,4.83-5.43,3.33-3.51,6.88-6.82,10.63-9.88.46-.37.91-.74,1.38-1.1.15-.12.31-.24.46-.36.08-.06.37-.28.45-.34.99-.75,1.99-1.48,3.01-2.2,2.03-1.43,4.11-2.8,6.24-4.09,8.49-5.15,16.4-8.5,26-11,2.34-.61,4.7-1.14,7.08-1.58,1.16-.22,2.32-.41,3.48-.59.32-.05.65-.09.97-.14.03,0,.12-.02.2-.03.62-.08,1.24-.15,1.86-.22,4.79-.53,9.62-.72,14.44-.55,5.21.18,9.02.61,13.77,1.54,4.65.91,9.23,2.19,13.67,3.85.54.2,1.07.41,1.61.62.24.09.47.19.71.29.07.03.13.05.18.07.03.01.06.03.11.05,1.11.48,2.22.98,3.31,1.51,2.18,1.06,4.31,2.22,6.39,3.48,4.28,2.6,7.2,4.77,10.77,8.08,1.56,1.45,3.05,2.98,4.45,4.58.35.4.68.81,1.01,1.21-13.33-5.7-28.08-8.23-42.51-7.8-19.79.58-39.05,6.81-55.64,17.59-16.6,10.79-30.51,25.74-40.04,43.11-9.7,17.67-14.68,37.7-14.03,57.87.25,7.81,1.29,15.58,3.07,23.2-1.35-2.46-2.61-4.97-3.78-7.52ZM1626.72,1226.36c.18.41.07.16,0,0h0ZM1624.67,1221.74c.45.97.88,1.94,1.31,2.91.23.52.45,1.03.67,1.55.02.05.04.08.05.12.14.34.28.68.42,1.01,3.55,8.65,6.35,17.62,8.3,26.78.46,2.18.88,4.37,1.24,6.57.17,1.07.33,2.14.49,3.22,0,.06.03.18.04.28.02.15.04.31.06.46.08.66.16,1.31.24,1.97.5,4.43.8,8.87.9,13.33.1,4.45,0,8.91-.28,13.36-.14,2.23-.34,4.45-.57,6.66-.12,1.08-.24,2.16-.38,3.23-.02.14-.04.28-.05.42-.01.1-.05.39-.07.51-.09.66-.19,1.31-.29,1.97-1.36,8.83-3.45,17.54-6.24,26.03-1.38,4.19-2.92,8.33-4.63,12.4-.07.17-.31.71-.37.86-.24.55-.48,1.1-.73,1.66-.47,1.05-.94,2.09-1.43,3.12-.95,2.01-1.94,4.01-2.97,5.98-4.12,7.87-8.87,15.41-14.24,22.48-.14.19-.29.38-.44.57-.04.05-.05.07-.08.1-.02.02-.03.04-.07.09-.33.42-.66.85-1,1.27-.74.94-1.5,1.86-2.26,2.78-1.38,1.65-2.79,3.27-4.23,4.86-2.97,3.26-6.08,6.39-9.32,9.36-1.66,1.53-3.37,3.01-5.1,4.46-.82.68-1.65,1.36-2.49,2.02-.32.26-.65.51-.98.77-.11.08-.27.21-.33.26-.24.18-.47.36-.71.54-3.56,2.68-7.25,5.19-11.06,7.51-3.77,2.29-7.66,4.4-11.65,6.3-.97.46-1.95.92-2.94,1.35-.49.22-.99.43-1.48.65-.05.02-.16.07-.25.11-.27.11-.54.22-.8.33-2.41.99-4.85,1.9-7.32,2.75-22.51,7.74-46.15,9.54-69.85,7.64-21.66-1.74-44.58-6.52-64.33-15.35-5.01-2.24-9.89-4.75-14.59-7.57-2.41-1.44-4.78-2.97-7.09-4.58-2.21-1.54-4.05-2.91-5.96-4.46-3.92-3.17-7.6-6.62-11.03-10.31-.86-.92-1.69-1.86-2.52-2.81,10.51,6.83,22.09,11.99,34.26,15.51,22.43,6.49,46.4,7.95,69.61,6.4,23.78-1.59,47.41-6.83,68.88-17.38,16.91-8.31,31.96-20.15,44.1-34.56,11.85-14.07,20.98-30.18,27.34-47.42,6.32-17.14,9.77-35.41,10.23-53.67.44-17.48-1.93-35.15-7.32-51.81,2.21,3.58,4.29,7.24,6.22,10.98,1.09,2.11,2.14,4.25,3.14,6.41ZM1213.87,1325.78c.83-11.11,2.11-21.1,4.11-31.97,1.96-10.67,4.49-21.24,7.61-31.64,3.04-10.12,6.86-20.7,10.87-29.95,4.33-9.98,9.26-19.71,14.8-29.08,2.79-4.72,5.74-9.36,8.83-13.89,1.45-2.13,2.94-4.23,4.46-6.31,1.53-2.1,3-4.04,4.32-5.71,6.24-7.93,12.99-15.46,20.19-22.53,3.6-3.54,7.32-6.96,11.14-10.27,1.96-1.7,3.95-3.36,5.97-4.99.95-.77,1.92-1.54,2.88-2.3.14-.11.79-.62.88-.69.57-.44,1.15-.88,1.73-1.32,8.1-6.12,16.59-11.73,25.41-16.76,4.37-2.49,8.82-4.84,13.35-7.04,4.54-2.21,8.99-4.19,13.19-5.88,9.29-3.75,18.83-6.87,28.55-9.29,9.91-2.47,19.47-4.11,29.11-5,9.88-.92,19.83-1.09,29.73-.43,2.37.16,4.73.36,7.09.61,1.08.12,2.17.24,3.25.38.32.04.64.08.95.12.08.01.29.04.43.06.59.08,1.17.16,1.76.25,4.7.7,9.37,1.57,14,2.63,9.34,2.12,18.51,4.96,27.42,8.45,1.02.4,2.03.81,3.04,1.22.3.12.59.25.89.37.08.03.13.05.16.07.04.02.09.04.14.06.59.25,1.18.51,1.77.76,2.18.95,4.34,1.95,6.48,2.98,4.34,2.09,8.6,4.34,12.76,6.75,14.28,8.25,26.79,17.76,38.26,29.39-8.58-6.02-17.64-11.36-27.07-15.92-17.55-8.48-36.29-14.39-55.6-17.1-21.16-2.97-42.56-2.53-63.63,1-20.88,3.5-41.18,10.09-60.32,19.11-19.22,9.06-37.19,20.72-53.39,34.47-16.49,13.99-30.94,30.3-43.3,48.03-12.5,17.94-22.7,37.38-30.79,57.68-8.06,20.21-13.9,41.29-17.58,62.73-1.97,11.49-3.39,23.11-4.16,34.78-.21-3.63-.37-7.28-.47-10.95-.3-10.96-.05-21.94.77-32.87Z"/>
  <path d="M19.32,828.29c5.27,8.39,12.39,15.45,20.79,20.69,3.25,2.03,6.65,3.73,10.15,5.16,1.78,4.95,4.02,9.74,6.81,14.18,5.27,8.39,12.39,15.45,20.79,20.69,17.9,11.17,40.16,12.77,60.51,9.02,10.42-1.92,20.56-5.37,30.05-10.08,9.75-4.83,18.63-11.26,26.62-18.64,16.41-15.14,28.55-34.22,38.88-53.85,11.86-22.54,22.49-45.77,33.11-68.92,11.13-24.27,21.97-48.67,32.96-73,10.58-23.44,21.3-46.82,32.55-69.96,10.11-20.81,20.64-41.43,31.79-61.7,11.26-20.48,23.15-40.62,35.84-60.24,12.68-19.59,26.38-39,40.63-57.07,14.77-18.74,30.53-36.71,47.31-53.69,16.43-16.61,33.77-32.46,51.58-47.58,14.58-12.38,29.8-24.4,46.19-34.45-.27.82-.54,1.64-.81,2.46-4.26,12.83-8.57,25.64-12.93,38.43-8.74,25.6-17.67,51.14-26.75,76.62-9.09,25.51-18.33,50.98-27.65,76.41-4.49,12.24-8.99,24.47-13.51,36.7-.72,1.94.8,4.42,2.76,4.86,2.24.51,4.09-.68,4.86-2.76,9.39-25.43,18.73-50.87,27.95-76.36,9.18-25.37,18.25-50.78,27.14-76.25,8.88-25.44,17.6-50.95,26.08-76.53,1.05-3.16,2.08-6.33,3.12-9.5,1.94-1.05,3.9-2.09,5.87-3.08,5.44-2.72,10.49-4.92,16.21-6.88,2.75-.94,5.53-1.77,8.34-2.48.36-.09.71-.17,1.07-.26.04-.01.24-.04.34-.06.67-.06,1.37-.03,2.04.03.5.04.53.06,1.32.23.72.15,1.43.34,2.13.55.37.11.72.23,1.08.35.09.04.36.14.57.26.32.17.94.75.65.44.23.24.49.51.72.68.07.11.14.21.21.32.17.28.31.57.45.86.03.11.23.62.3.85.16.56.27,1.13.39,1.69.01.06.02.09.03.13.03.25.06.49.08.74.05.58.08,1.16.1,1.74.05,1.66-.14,2.58-.51,4.33-.67,3.21-1.41,6.41-2.28,9.58-1.77,6.45-4.01,12.78-6.08,19.13-2.1,6.42-4.21,12.84-6.34,19.25-4.26,12.83-8.57,25.64-12.93,38.43-8.74,25.6-17.67,51.14-26.75,76.62-9.09,25.51-18.33,50.98-27.65,76.41-4.49,12.24-8.99,24.47-13.51,36.7-.72,1.94.8,4.42,2.76,4.86,2.24.51,4.09-.68,4.86-2.76,9.39-25.43,18.73-50.87,27.95-76.36,9.18-25.37,18.25-50.78,27.14-76.25,8.88-25.44,17.6-50.95,26.08-76.53,2.13-6.41,4.24-12.83,6.33-19.25,2.07-6.34,4.3-12.67,6.02-19.12.85-3.18,1.57-6.39,2.23-9.61.34-1.68.63-3.3.59-5.02-.03-1.5-.17-2.98-.39-4.45-.63-4.23-2.75-8.33-6.68-10.35-.82-.42-1.69-.76-2.57-1.06,6.91-3.5,13.85-6.95,20.84-10.3,8.32-3.99,16.71-7.81,25.04-11.76,9.03-4.27,17.94-8.77,26.74-13.48,6.41-3.43,12.77-6.95,19.11-10.51,7.87-4.43,16.11-8.66,23.21-14.3,3.06-2.43,5.94-6.29,6.48-10.23.5-3.69-1.33-7.37-3.73-10.09-1.36-1.53-3.29-2.45-5.09-3.34-1.91-.95-3.87-1.79-5.84-2.58-2.13-.85-4.3-1.6-6.5-2.27,6.56-3.62,13.18-7.32,19.03-11.97,3.06-2.43,5.94-6.29,6.47-10.23.5-3.69-1.33-7.37-3.73-10.09-1.36-1.53-3.29-2.45-5.09-3.34-1.91-.95-3.87-1.79-5.84-2.58-3.76-1.51-7.65-2.7-11.58-3.69-17.44-4.38-35.78-5.26-53.69-5.35-17.23-.08-34.56.52-51.73,1.98-18.29,1.56-36.49,4.23-54.49,7.81-17.78,3.54-35.37,7.97-52.76,13.08-17.54,5.15-34.87,10.99-52.02,17.31-17.16,6.32-34.15,13.12-51.01,20.21-17.58,7.4-35.03,15.1-52.44,22.88-17.48,7.82-34.93,15.71-52.45,23.43-17.22,7.6-34.49,15.18-52.03,22.03-16.87,6.59-34.51,12.3-52.6,12.32-2.2,0-4.41-.08-6.61-.25-.94-.07-1.89-.16-2.83-.27-.15-.02-.55-.07-.65-.08-.42-.06-.83-.12-1.25-.19-3.46-.57-6.88-1.42-10.21-2.51-3.67-1.21-5.73-2.08-9.12-3.84-3.04-1.58-5.95-3.4-8.7-5.45-.04-.03-.25-.19-.37-.28-.07-.06-.14-.11-.15-.12-.34-.27-.67-.54-1-.81-.66-.55-1.31-1.11-1.95-1.69-1.26-1.15-2.47-2.35-3.62-3.61-.53-.58-1.05-1.17-1.55-1.78-.26-.31-.51-.63-.77-.95-.17-.22-.34-.45-.5-.68-.99-1.36-1.91-2.77-2.74-4.22-.68-1.19-1.3-2.42-1.87-3.67,2.92-4.99,6.35-9.5,10.1-13.76,5.25-5.97,11.07-11.43,17.16-16.55,6.35-5.34,12.44-10.05,19.34-14.76,6.94-4.75,14.19-9.08,21.79-12.7,5.12-2.44,10.58-4.56,16.25-6.19,4.89,2.24,10.2,3.79,15.82,4.48,29.35,3.61,56.07-17.27,59.68-46.62,3.61-29.35-17.27-56.07-46.62-59.68-29.35-3.61-56.07,17.27-59.68,46.62-.9,7.36-.27,14.55,1.65,21.25-9.94,6.02-19.27,13.06-28.19,20.46-12.22,10.13-24.01,21.84-31.46,36.02-3.71,7.07-6.21,14.7-6.82,22.69-.47,6.15.39,12.28,2.34,18.08-3.63,6.99-6.07,14.52-6.67,22.4-.58,7.58.83,15.12,3.85,22.07,5.65,12.98,17.34,22.89,30.09,28.55,6.82,3.03,13.9,5,21.3,5.89,9.04,1.09,18.23.46,27.18-1.04,18.25-3.04,35.51-10.19,52.49-17.27,17.83-7.43,35.52-15.19,53.17-23.06,17.49-7.8,34.93-15.7,52.44-23.45,17.03-7.54,33.99-14.89,51.17-21.89,16.94-6.9,34.03-13.46,51.32-19.47,17.24-6,34.68-11.47,52.32-16.19,17.57-4.7,35.34-8.65,53.28-11.63,17.68-2.94,35.51-4.87,53.6-5.68,17.27-.77,34.58-1.29,51.86-.36,6.32.34,12.49.86,18.61,1.69-7.9,4.24-15.86,8.37-23.91,12.33-10.01,4.92-20.15,9.58-30.28,14.26-11.78,5.45-23.51,11.01-35.13,16.81-6.08,3.04-12.13,6.14-18.16,9.27-1.11-2.56-2.89-4.79-5.47-6.12-2.14-1.1-4.57-1.75-6.94-2.11-3.45-.52-6.49.03-9.83.95-5.82,1.62-11.48,3.77-17.01,6.2-11.73,5.15-22.76,11.8-33.33,18.99-20.62,14.03-39.68,30.27-58.11,47.03-17.32,15.76-34.14,31.99-49.86,49.36-15.93,17.62-30.85,36.14-44.87,55.32-13.85,18.95-26.8,38.56-38.99,58.62-12.07,19.86-23.4,40.17-34.18,60.76-10.81,20.66-21.07,41.6-30.98,62.7-11.4,24.25-22.37,48.7-33.35,73.14-10.94,24.37-21.9,48.73-33.29,72.89-5.43,11.52-10.93,23.02-16.65,34.4-4.91,9.76-10.06,19.42-15.9,28.66-11.44,18.15-25.95,35.05-44.63,46.02-8.98,5.27-17.63,8.75-27.83,11.31-2.53.64-5.08,1.18-7.65,1.64-1.18.21-2.37.39-3.56.57-.07.01-.13.02-.18.03-.03,0-.08,0-.16.02-.33.04-.66.08-.99.12-.66.08-1.32.15-1.98.22-5.11.5-10.27.62-15.4.29-5.05-.33-8.98-.91-14.2-2.29-1.58-.42-3.15-.91-4.7-1.43-.57-1.88-1.09-3.77-1.54-5.68-.51-2.19-.95-4.41-1.31-6.63-.1-.59-.19-1.18-.27-1.77-.03-.24-.07-.47-.1-.71,0-.03,0-.06-.01-.09,0-.03,0-.06-.01-.11-.16-1.25-.3-2.5-.42-3.75-.45-4.62-.63-9.27-.62-13.91.03-9.32.88-18.61,2.11-27.85.03-.21.08-.58.08-.62.03-.25.07-.5.1-.75.09-.63.18-1.26.27-1.89.19-1.26.38-2.52.58-3.78.38-2.4.8-4.8,1.25-7.19.93-4.93,2-9.83,3.24-14.69,1.25-4.87,2.67-9.69,4.3-14.44.81-2.37,1.68-4.73,2.6-7.06.21-.54.43-1.08.65-1.61.12-.3.24-.59.37-.89.03-.06.1-.24.16-.38.49-1.16,1-2.31,1.52-3.45,2.08-4.56,4.41-9,6.99-13.3,1.26-2.1,2.58-4.16,3.97-6.17.73-1.07,1.48-2.12,2.25-3.16.31-.42.62-.83.93-1.24,0,0,.43-.56.47-.61.19-.25.39-.5.59-.74,6.15-7.72,13.67-14.85,21.26-20.24,1.74-1.23,2.56-3.45,1.42-5.41-1.01-1.72-3.66-2.66-5.41-1.42-17.16,12.2-30.34,28.88-39.13,47.95-8.5,18.44-13.24,38.31-16.01,58.36-2.63,19.07-3.9,38.58.1,57.56.11.54.25,1.08.37,1.62-1.93-1.05-3.81-2.18-5.62-3.43-.47-.32-.93-.65-1.39-.99-.25-.19-.51-.37-.76-.56-.05-.04-.19-.15-.3-.23-.94-.75-1.87-1.51-2.76-2.31-1.75-1.56-3.4-3.22-4.96-4.97-.74-.84-1.45-1.7-2.16-2.58-.02-.03-.07-.08-.11-.14-.15-.2-.3-.4-.45-.59-.38-.52-.76-1.04-1.12-1.57-1.26-1.81-2.42-3.7-3.48-5.63-.56-1.02-1.09-2.05-1.59-3.09-.2-.42-.4-.84-.59-1.26-.15-.32-.29-.63-.43-.95-.03-.08-.14-.33-.21-.49-1.74-4.16-3.08-8.49-4.11-12.87-.51-2.19-.95-4.41-1.31-6.63-.1-.59-.19-1.18-.27-1.77-.03-.24-.07-.47-.1-.71,0-.03,0-.06-.01-.09,0-.03,0-.06-.01-.11-.16-1.25-.3-2.5-.42-3.75-.45-4.62-.63-9.27-.62-13.91.03-9.32.88-18.61,2.11-27.85.03-.21.08-.59.08-.62.03-.25.07-.5.1-.75.09-.63.18-1.26.27-1.89.19-1.26.38-2.52.58-3.78.38-2.4.8-4.8,1.25-7.19.93-4.93,2-9.83,3.24-14.69,1.25-4.87,2.67-9.69,4.3-14.44.81-2.37,1.68-4.73,2.6-7.06.21-.54.43-1.07.65-1.61.12-.3.24-.59.37-.89.03-.07.1-.25.16-.38.49-1.15,1-2.3,1.52-3.44,2.08-4.56,4.41-9,6.99-13.3,1.26-2.1,2.58-4.16,3.97-6.17.73-1.07,1.48-2.12,2.25-3.16.31-.42.62-.83.93-1.24,0,0,.43-.56.47-.61.19-.25.39-.5.59-.74,6.15-7.72,13.67-14.85,21.26-20.24,1.74-1.23,2.56-3.45,1.42-5.41-1.01-1.72-3.66-2.66-5.41-1.42-17.16,12.2-30.34,28.88-39.13,47.95-8.5,18.44-13.24,38.31-16.01,58.36-2.63,19.07-3.9,38.58.1,57.56,1.92,9.09,5.18,18.05,10.14,25.94ZM161.73,246.59c-.07-.08-.04-.06,0,0h0ZM154.75,212.77c.45-1.82,1-3.61,1.64-5.37.22-.61.64-1.69.8-2.08.03-.06.16-.36.15-.36.11-.25.22-.5.33-.74.2-.43.4-.87.6-1.3,3.42-7.15,7.86-13.3,12.88-19,5.25-5.97,11.07-11.43,17.16-16.55,6.35-5.34,12.44-10.05,19.34-14.76,2.42-1.65,4.87-3.25,7.36-4.79,3.84,8.37,9.8,15.65,17.27,21.08-3.52,1.27-6.98,2.7-10.36,4.28-15.36,7.18-29.24,17.23-42.24,28.01-9.49,7.86-18.7,16.68-25.84,26.86,0-.04,0-.06-.01-.09-.02-.14-.03-.28-.05-.43-.05-.48-.1-.96-.14-1.44-.07-.95-.12-1.9-.13-2.85-.05-4.08.29-6.66,1.23-10.47ZM157.37,287.04s-.02-.03,0,0h0ZM677.78,167.97c-17.23-.08-34.56.52-51.73,1.98-18.29,1.56-36.49,4.23-54.49,7.81-17.78,3.54-35.37,7.97-52.76,13.08-17.54,5.15-34.87,10.99-52.02,17.31-17.16,6.32-34.15,13.12-51.01,20.21-17.58,7.4-35.03,15.1-52.44,22.88-17.48,7.82-34.93,15.71-52.45,23.44-17.22,7.6-34.49,15.18-52.03,22.03-16.87,6.59-34.51,12.3-52.6,12.32-2.2,0-4.41-.08-6.61-.25-.94-.07-1.89-.16-2.83-.27-.15-.02-.55-.07-.65-.08-.42-.06-.83-.12-1.25-.19-3.46-.57-6.88-1.42-10.21-2.51-3.67-1.21-5.73-2.08-9.12-3.84-3.04-1.58-5.95-3.4-8.7-5.45-.04-.03-.25-.19-.37-.28-.07-.06-.14-.11-.15-.12-.34-.27-.67-.54-1-.81-.66-.55-1.31-1.11-1.95-1.69-1.26-1.15-2.47-2.35-3.62-3.61-.53-.58-1.05-1.17-1.55-1.78-.26-.31-.51-.63-.77-.95-.17-.22-.34-.45-.5-.68-.99-1.36-1.91-2.77-2.74-4.22-.77-1.35-1.46-2.74-2.09-4.15-.06-.15-.26-.62-.3-.73-.15-.39-.3-.79-.44-1.18-.28-.8-.54-1.6-.77-2.41-.47-1.65-.82-3.32-1.1-5.01,0-.05-.04-.28-.05-.38-.02-.14-.03-.28-.05-.43-.05-.48-.1-.96-.14-1.44-.07-.95-.11-1.9-.13-2.85-.05-4.08.29-6.66,1.23-10.47.45-1.82,1-3.61,1.64-5.37.1-.26.23-.62.36-.97,6.24,10.32,16.36,18.28,27.26,23.12,6.82,3.03,13.9,5,21.3,5.89,9.04,1.09,18.23.46,27.18-1.04,18.25-3.04,35.51-10.19,52.49-17.27,17.83-7.43,35.52-15.19,53.17-23.06,17.49-7.8,34.93-15.7,52.44-23.45,17.04-7.54,33.99-14.89,51.17-21.89,16.94-6.9,34.03-13.46,51.32-19.47,17.24-6,34.68-11.47,52.32-16.19,17.57-4.7,35.34-8.65,53.28-11.63,17.68-2.94,35.51-4.87,53.6-5.68,17.27-.77,34.58-1.29,51.86-.36,8.98.49,17.65,1.3,26.31,2.92,4.15.77,8.26,1.73,12.3,2.95,3.89,1.17,7.15,2.38,10.47,4,.79.38,1.56.78,2.33,1.2.35.19.72.38,1.06.6.02.02.03.03.06.07.19.19.38.39.55.6.04.08.31.5.37.59.22.36.42.74.61,1.12.1.21.25.7.26.7.04.16.09.32.15.45,0,.05.01.1,0,.14-.02.04-.02.18-.02.28-.07.22-.11.46-.18.67-.01.04-.04.1-.07.18-.06.11-.13.26-.16.3-.94,1.61-1.55,2.47-3.08,3.87-1.56,1.43-3.67,2.62-5.46,3.8-1.89,1.25-3.82,2.45-5.78,3.59-3.96,2.28-7.94,4.52-11.93,6.74-.76.42-1.52.84-2.28,1.26-15.57-3.18-31.72-3.88-47.54-3.96ZM648.21,218.81c10.34-4.91,20.76-9.64,31.13-14.5,10.88-5.1,21.66-10.4,32.3-15.99,4.99-2.62,9.95-5.32,14.89-8.04,2.54.57,5.05,1.21,7.54,1.96,3.89,1.17,7.15,2.38,10.47,4,.79.38,1.56.78,2.33,1.2.35.19.72.38,1.06.6.02.02.03.03.06.07.19.19.38.39.55.6.04.08.31.5.37.59.22.36.42.74.61,1.12.1.21.25.7.26.7.04.16.09.33.15.45,0,.05.01.1,0,.14-.02.04-.02.18-.02.28-.07.22-.11.46-.18.67-.01.04-.04.1-.07.18-.06.11-.13.26-.16.3-.94,1.61-1.55,2.47-3.08,3.87-1.56,1.43-3.67,2.62-5.46,3.8-1.89,1.25-3.82,2.45-5.78,3.59-3.89,2.25-7.81,4.45-11.73,6.65-11.03,6.19-22.13,12.26-33.44,17.92-7.92,3.96-15.95,7.69-23.97,11.42-10.15,4.73-20.24,9.58-30.25,14.61-7.11,3.58-14.19,7.23-21.25,10.93-3.19,1.15-6.34,2.41-9.45,3.77-1.83.8-3.64,1.66-5.44,2.53,1.98-6.03,4.08-12.04,5.71-18.17.85-3.18,1.57-6.39,2.23-9.61.34-1.68.63-3.3.59-5.02,0-.2-.03-.41-.03-.61,13.23-6.91,26.57-13.61,40.05-20.01ZM100.62,858c10.42-1.92,20.56-5.37,30.05-10.08,9.75-4.83,18.63-11.26,26.62-18.64,16.41-15.14,28.55-34.22,38.88-53.85,11.86-22.54,22.49-45.77,33.11-68.92,11.13-24.27,21.97-48.67,32.96-73,10.58-23.44,21.3-46.82,32.55-69.96,10.11-20.81,20.64-41.43,31.79-61.7,11.26-20.48,23.15-40.62,35.84-60.24,12.68-19.59,26.38-39,40.63-57.07,14.77-18.74,30.53-36.71,47.31-53.69,16.43-16.61,33.77-32.46,51.58-47.58,19.26-16.34,39.61-32.08,62.33-43.46,5.44-2.72,10.49-4.92,16.21-6.88,2.75-.94,5.53-1.77,8.34-2.48.36-.09.71-.17,1.07-.26.04-.01.24-.04.34-.06.67-.06,1.37-.03,2.04.03.5.04.53.06,1.32.23.72.15,1.43.34,2.13.55.37.11.72.23,1.08.35.09.04.36.14.57.26.32.17.94.75.65.44.23.24.49.51.72.68.07.11.14.21.21.32.17.28.31.57.45.86.03.11.23.62.3.85.16.56.27,1.13.39,1.69.01.06.02.09.03.13.03.25.06.49.08.74.05.58.08,1.16.1,1.74.05,1.66-.14,2.58-.51,4.33-.67,3.21-1.41,6.41-2.28,9.58-1.77,6.45-4.01,12.78-6.08,19.14-.6,1.82-1.2,3.65-1.8,5.47-6.11,3.46-12.04,7.22-17.83,11.16-20.62,14.03-39.68,30.27-58.11,47.03-17.32,15.76-34.14,31.99-49.86,49.36-15.93,17.62-30.85,36.14-44.87,55.32-13.85,18.95-26.8,38.56-38.99,58.62-12.07,19.86-23.4,40.17-34.18,60.76-10.81,20.66-21.07,41.6-30.98,62.7-11.4,24.25-22.37,48.7-33.35,73.14-10.94,24.37-21.9,48.73-33.29,72.89-5.43,11.52-10.93,23.02-16.65,34.4-4.91,9.76-10.06,19.42-15.9,28.66-11.44,18.15-25.95,35.05-44.63,46.02-8.98,5.27-17.63,8.75-27.83,11.31-2.53.64-5.08,1.18-7.65,1.64-1.18.21-2.37.39-3.56.57-.07.01-.13.02-.18.03-.03,0-.08,0-.16.02-.33.04-.66.08-.99.12-.66.08-1.32.15-1.98.22-5.11.5-10.27.62-15.4.29-5.05-.33-8.98-.91-14.2-2.29-2.46-.65-4.88-1.42-7.25-2.33-1.94-.74-3.65-1.51-5.96-2.72-2.2-1.15-4.32-2.44-6.36-3.85-.47-.32-.93-.65-1.39-.99-.25-.18-.51-.37-.76-.56-.05-.04-.19-.15-.3-.23-.94-.75-1.87-1.52-2.76-2.31-1.75-1.56-3.4-3.22-4.96-4.97-.74-.84-1.45-1.7-2.16-2.58-.02-.03-.07-.08-.11-.14-.15-.2-.3-.4-.45-.6-.38-.52-.76-1.04-1.12-1.57-1.26-1.81-2.42-3.7-3.48-5.63-.56-1.02-1.09-2.05-1.59-3.09-.1-.21-.2-.42-.3-.63,13.17,3.29,27.27,3.15,40.55.7Z"/>
  <path d="M2015.44,68.83c-.59-2.3-1.96-4.3-3.61-5.98-2.04-2.06-4.34-3.97-7.03-5.1-2.61-1.11-5.54-1.59-8.31-2.12-3.1-.6-6.22-1.06-9.36-1.43-3.8-.46-7.63-.73-11.45-.89,2.75-2.62,5.51-5.24,8.25-7.87,4.51-4.33,8.71-8.93,12.68-13.75,3.42-4.15,5.95-10.58,4.56-16-.59-2.3-1.96-4.3-3.61-5.98-2.04-2.06-4.34-3.97-7.03-5.1-2.61-1.11-5.54-1.59-8.31-2.12-3.1-.6-6.22-1.06-9.36-1.43-12.21-1.47-24.58-1.23-36.82-.25-25.31,2.04-50.31,7.14-74.95,13.13-22.49,5.46-44.82,11.52-66.71,19.05-22.29,7.67-44.14,16.6-65.5,26.56-21.03,9.8-41.59,20.6-61.7,32.18-19.98,11.5-39.51,23.75-58.69,36.53-18.98,12.65-37.61,25.82-56,39.31-20.78,15.24-41.27,30.87-61.71,46.55-20.69,15.86-41.33,31.78-62.21,47.39-10.39,7.77-20.83,15.47-31.36,23.04-9.38,6.75-18.8,13.45-28.58,19.61-19.27,12.12-39.5,21.68-62.23,24.89-.53.07-1.91.24-2.84.34-1.18.12-2.36.22-3.54.3-2.34.15-4.68.23-7.02.22-4.6-.01-9.19-.32-13.75-.92-.2-.03-.98-.14-1.14-.16-.55-.08-1.1-.17-1.65-.26-1.22-.2-2.45-.42-3.66-.67-2.32-.46-4.62-1-6.9-1.6-4.56-1.21-9.02-2.73-13.38-4.52-.05-.02-.09-.04-.13-.05-.03-.01-.06-.03-.12-.05-.28-.12-.57-.24-.85-.37-.45-.2-.9-.4-1.35-.6-1.12-.51-2.22-1.04-3.32-1.6-2.12-1.07-4.2-2.22-6.24-3.45-1.96-1.19-3.88-2.45-5.74-3.79-.44-.32-.87-.64-1.3-.96-.12-.09-.23-.17-.35-.26-.03-.03-.52-.4-.56-.44-.89-.7-1.76-1.43-2.61-2.17-1.74-1.51-3.41-3.11-5-4.78-.17-.18-.33-.37-.49-.55.21-1.05.42-2.1.67-3.14.66-2.72,1.44-5.41,2.33-8.06,1.85-5.51,3.86-10.15,6.47-15.34,4.94-9.8,10.96-19,17.39-27.88,1.44-1.99,2.91-3.97,4.4-5.93.88-1.15.85-1.12,1.77-2.29.81-1.03,1.62-2.05,2.44-3.06,3.17-3.92,6.46-7.75,9.88-11.46,3.43-3.71,6.99-7.3,10.7-10.72,1.83-1.69,3.7-3.34,5.6-4.94.9-.76,1.81-1.51,2.73-2.24.46-.37.92-.73,1.38-1.1.07-.05.32-.25.42-.33.27-.2.53-.41.8-.61,5.38-4.06,11.06-7.74,17-10.92,3.15,1.01,6.44,1.75,9.85,2.17,29.35,3.61,56.07-17.27,59.68-46.62,3.61-29.35-17.27-56.07-46.62-59.68-29.35-3.61-56.07,17.27-59.68,46.62-.41,3.33-.49,6.63-.29,9.86-15.45,12.03-28.45,26.78-40.01,42.54-13.13,17.89-25.39,37.89-29.24,60.09-1.99,11.47-1.65,23.36,2.15,34.44.76,2.2,1.64,4.35,2.62,6.45-9.73-2.76-20.72-1.28-30.18,1.67-11.09,3.45-21.38,9.47-29.13,18.22-6.75,7.63-11.76,17.1-13.2,27.26-1.5,10.6,1.04,21.04,6.86,30.02,2.64,4.08,5.8,7.77,9.29,11.12-.32,9.63,3.12,19.14,8.7,26.91,9.16,12.78,22.7,21.63,37.14,28.03-7.29,5.09-14.25,10.65-20.88,16.57-7.68,6.86-15.13,14.06-21.89,21.83-13.21,15.18-24.31,33.02-26.78,53.34-1.63,13.46,1.37,26.72,7.61,38.41-1.27,3.52-2.31,7.12-3.03,10.79-2.17,11.09-1.62,22.55,1.95,33.3,6.19,18.66,20.47,33.49,37.01,43.58,17.34,10.57,37.45,16.3,57.74,16.46,24.51.18,48.22-6.97,70.66-16.27,23.83-9.88,47.11-21.2,70.32-32.45,23.67-11.48,47.2-23.24,70.79-34.87,23-11.34,46.05-22.57,69.34-33.3,21.66-9.97,43.19-19.37,65.2-28.16,22.39-8.94,45.07-17.18,68.06-24.44,23.17-7.32,46.66-13.64,70.43-18.69,24.1-5.12,48.09-8.88,72.48-11.12,11.59-1.07,23.22-1.75,34.85-2.34,12.07-.61,24.15-1.03,36.23-1.06,16.96-.05,34.04.44,50.79,2.77-18.04,11.37-36.16,22.61-54.35,33.74-20.63,12.63-41.34,25.12-62.12,37.51-20.8,12.41-41.65,24.72-62.54,36.97-10.12,5.93-20.25,11.86-30.38,17.77-1.84,1.07-2.49,3.57-1.42,5.41,1.08,1.85,3.56,2.5,5.41,1.42,21.01-12.25,41.99-24.55,62.92-36.92,20.83-12.31,41.62-24.71,62.34-37.22,20.69-12.5,41.32-25.11,61.85-37.88,10.02-6.23,20.02-12.51,29.99-18.82,3.7.73,7.38,1.55,11.03,2.51,5.46,1.43,10.83,3.19,16.06,5.32.45.18.5.2,1.21.52.58.26,1.16.52,1.74.78.64.29,1.28.58,1.9.9.23.12.45.23.67.37.02.01.52.39.59.43.82.71,1.57,1.52,2.24,2.37.08.11.22.31.27.37.17.24.33.47.49.71.29.43.58.87.83,1.33,0,.02.1.21.18.36.05.14.12.3.12.32.06.18.11.37.15.55,0,.04.03.23.06.38,0,.28,0,.72.01.83,0,.03,0,.03,0,.05-.08.27-.11.56-.19.83-.05.18-.38,1.05-.33.99-.23.5-.49.99-.77,1.46-.7,1.19-1.45,2.29-2.29,3.21-1.96,2.15-4.62,3.89-6.9,5.59-2.49,1.86-5.03,3.62-7.65,5.3-22.29,14.3-44.74,28.36-67.29,42.25-22.57,13.91-45.24,27.64-67.98,41.26-22.77,13.63-45.62,27.13-68.51,40.57-11.01,6.46-22.03,12.91-33.06,19.34-1.84,1.07-2.49,3.57-1.42,5.41,1.08,1.85,3.56,2.5,5.41,1.42,22.94-13.38,45.85-26.81,68.71-40.34,22.75-13.47,45.44-27.04,68.04-40.75,22.58-13.7,45.06-27.55,67.42-41.59,11.2-7.04,22.41-14.07,33.51-21.26,2.6-1.68,5.12-3.48,7.59-5.35,1.32-1,2.62-2.01,3.91-3.03,1.28-1.01,2.7-2,3.8-3.2,3.72-4.08,6.76-9.52,5.6-15.18-.45-2.18-1.66-4.13-2.97-5.89-1.72-2.33-3.67-4.58-6.28-5.93-5.05-2.62-10.53-4.61-15.94-6.33-3.45-1.1-6.94-2.03-10.46-2.87,7.31-4.59,14.58-9.27,21.38-14.58,1.04-.81,2.07-1.63,3.09-2.47,1.34-1.09,2.37-2.23,3.42-3.6,1.58-2.06,2.93-4.26,3.73-6.74,1.4-4.34.15-8.5-2.43-12.08-1.62-2.24-3.44-4.4-5.83-5.86-2.16-1.32-4.68-2.24-7.02-3.2-4.79-1.99-9.72-3.64-14.72-5.01-21.91-6.04-45.06-7.59-67.69-7.94-21.75-.34-43.51.71-65.21,2.12-22.67,1.48-45.26,4.29-67.64,8.25-21.99,3.89-43.78,8.92-65.3,14.88-21.26,5.89-42.27,12.69-63.01,20.19-20.8,7.52-41.33,15.75-61.66,24.45-20.32,8.69-40.42,17.89-60.37,27.38-21.68,10.31-43.21,20.94-64.72,31.6-21.51,10.65-43.01,21.32-64.66,31.7-10.88,5.22-21.79,10.36-32.76,15.39-10.09,4.63-20.01,9.14-30.15,13.13-20.51,8.07-41.76,13.92-63.74,13.54-2.64-.05-5.28-.17-7.9-.4-1.02-.09-2.04-.19-3.06-.32-.15-.02-1.24-.16-1.16-.15-.47-.07-.94-.14-1.42-.21-4.35-.68-8.66-1.64-12.89-2.86-2.06-.59-4.1-1.24-6.12-1.95-1.07-.38-2.14-.77-3.2-1.18-.47-.18-.94-.37-1.41-.56-.24-.09-.47-.19-.71-.29-.02,0-.42-.17-.6-.25-4.04-1.71-7.98-3.68-11.78-5.87-3.82-2.2-7.49-4.63-11-7.3-.05-.03-.09-.07-.11-.08-.25-.19-.49-.39-.73-.58-.44-.35-.87-.7-1.31-1.06-.86-.71-1.71-1.44-2.54-2.19-1.61-1.44-3.17-2.93-4.67-4.49-1.49-1.54-2.91-3.14-4.27-4.79-.31-.38-.61-.76-.92-1.14-.04-.05-.07-.09-.1-.13-.17-.22-.33-.44-.5-.66-.65-.87-1.28-1.76-1.9-2.65-.62-.92-1.22-1.85-1.8-2.8,5.82-14.3,15.78-26.89,26.53-38.02,6.67-6.91,13.7-13.51,20.65-20.12,7.46-7.09,15.06-14.04,22.98-20.62,4.22-3.5,7.76-6.29,12.02-9.4,4.24-3.1,8.58-6.05,13.05-8.79,4.32-2.65,8.76-5.11,13.34-7.29,1.12-.54,2.25-1.05,3.39-1.55.3-.13.6-.26.9-.39.73-.32.29-.12.13-.06.66-.27,1.32-.54,1.98-.8,2.33-.92,4.69-1.75,7.08-2.49,2.18-.67,4.38-1.27,6.6-1.77,1.16-.26,2.33-.5,3.5-.71.55-.1,1.11-.19,1.66-.28.25-.04.49-.08.74-.11.04,0,.38-.05.59-.08,1.55-.19,3.11-.32,4.67-.41,2.85.04,5.7.04,8.55,0,.14,0,.28,0,.43.02.19.01.37-.01.55-.03,20.44-.3,40.84-2.33,61.06-5.21,24.95-3.56,49.67-8.54,74.25-14.06,24.79-5.57,49.61-11.33,74.12-18.06,24.84-6.82,49.47-15.1,72.29-27.18,21.54-11.41,40.87-26.42,59.19-42.39,17.85-15.56,34.91-32.04,53.29-46.99,4.59-3.74,8.67-6.91,13.42-10.4,1.72-1.26,2.58-3.43,1.42-5.41-.99-1.7-3.68-2.69-5.41-1.42-19.05,13.98-36.43,29.99-53.94,45.82-17.41,15.73-34.71,30.88-54.29,43.55-20.9,13.53-43.39,23.04-67,30.57-23.99,7.65-48.56,13.37-73.04,19.16-24.06,5.69-48.21,11.06-72.57,15.35-23.86,4.21-47.32,7.35-71.67,8.42-4.03.18-8.06.29-12.1.34-2.91-.19-5.8-.17-8.67,0-4.56-.06-9.12-.21-13.67-.47-5.58-.32-11.14-.81-16.69-1.48-.68-.08-1.37-.17-2.05-.26-.04,0-.24-.03-.35-.05-.28-.04-.57-.08-.85-.12-1.42-.2-2.84-.41-4.26-.64-2.68-.43-5.35-.9-8.01-1.43-10.24-2.03-20.35-4.82-30.1-8.58-4.73-1.82-9.01-3.69-13.91-6.25-4.86-2.53-9.57-5.4-13.96-8.69-.77-.57-1.41-1.08-2.49-1.97-1.06-.88-2.09-1.79-3.1-2.72-1.87-1.74-3.65-3.59-5.3-5.54-.36-.43-.72-.87-1.07-1.31-.05-.07-.08-.1-.1-.13-.03-.04-.04-.06-.08-.11-.15-.2-.3-.4-.45-.6-.77-1.04-1.49-2.12-2.18-3.22-.61-.99-1.19-1.99-1.73-3.02-.28-.54-.55-1.08-.81-1.63-.1-.22-.2-.44-.3-.66-.08-.17-.15-.34-.22-.51,0-.02-.01-.03-.02-.05-.88-2.2-1.6-4.47-2.09-6.79-.04-.17-.06-.33-.1-.5,2.67,1.94,5.44,3.74,8.26,5.41,20.31,11.95,43.77,18.03,66.98,21.01,24.96,3.21,50.32,2.61,75.32.23,26.79-2.55,53.36-7.14,79.7-12.61,26.51-5.5,52.9-11.74,79.16-18.37,26.83-6.78,53.55-14.59,78.67-26.38,23.77-11.15,44.99-26.49,64.9-43.48,19.35-16.51,37.55-34.33,57.25-50.44,4.88-3.99,9.26-7.41,14.28-11.09,1.72-1.26,2.58-3.43,1.42-5.41-.99-1.7-3.68-2.69-5.41-1.42-20.29,14.89-38.66,32.09-57.35,48.89-18.62,16.75-37.2,32.55-58.73,45.35-22.91,13.63-47.72,22.63-73.32,29.97-25.61,7.35-51.65,13.34-77.62,19.23-25.7,5.83-51.56,11.1-77.66,14.83-6.09.87-12.3,1.65-18.74,2.35-6.36.69-12.73,1.26-19.11,1.69-12.38.84-24.8,1.17-37.2.76-5.92-.2-11.83-.57-17.72-1.13-2.85-.27-5.69-.6-8.53-.97-.22-.03-.71-.1-.72-.1-.27-.04-.54-.08-.81-.11-.68-.1-1.35-.2-2.03-.3-1.48-.22-2.96-.46-4.44-.72-11.13-1.92-22.12-4.7-32.73-8.58-1.22-.45-2.44-.91-3.65-1.38-.66-.26-1.33-.53-1.99-.8-.3-.12-.6-.25-.9-.37-.14-.06-.21-.09-.26-.11-.04-.02-.1-.04-.23-.1-2.62-1.13-5.21-2.31-7.76-3.59-5.23-2.62-10.28-5.61-14.99-9.07-.27-.2-.54-.4-.81-.6-.06-.05-.3-.23-.42-.32-.49-.38-.97-.77-1.45-1.16-.55-.45-1.07-.93-1.6-1.39.04-.27.06-.45.03-.3.36-2.03.76-4.03,1.36-6.01.32-1.05.68-2.1,1.07-3.13.08-.21.16-.42.24-.62,0,0,.11-.27.19-.45.08-.18.2-.46.2-.46.14-.31.28-.62.42-.92.98-2.08,2.11-4.09,3.36-6.02.61-.94,1.25-1.85,1.91-2.75.06-.09.26-.34.31-.41.09-.12.18-.23.27-.35.45-.56.91-1.12,1.38-1.66,1.61-1.85,3.33-3.59,5.17-5.21.81-.72,1.64-1.41,2.49-2.07.16-.12.5-.38.52-.39.2-.15.41-.3.62-.45.57-.41,1.15-.81,1.74-1.2,2.18-1.45,4.47-2.75,6.82-3.9,4.75-2.3,10.81-3.96,15.9-4.43,2.81-.26,5.64-.3,8.45-.12.72.05,1.45.11,2.17.18-.09-.01.46.05.73.08.22.03.88.13.78.11,1.08.17,2.14.39,3.2.63.16.52.32,1.03.5,1.55,3.38,9.86,9.06,18.77,16.44,26.12,13.53,13.49,31.91,21.79,50.51,25.4,9.4,1.82,19.04,2.58,28.6,1.97,11.19-.72,22.3-3.18,32.88-6.86,21.53-7.47,40.84-19.77,59.35-32.85,21.1-14.9,41.78-30.41,62.34-46.05,20.75-15.78,41.35-31.73,62.1-47.52,19.72-15.01,39.57-29.86,59.75-44.24,18.69-13.32,37.66-26.24,57.02-38.56,19.49-12.4,39.37-24.19,59.71-35.13,20.5-11.03,41.46-21.21,62.9-30.26,21.18-8.94,43.71-17.07,66.11-23.68,22.52-6.65,45.44-12.35,68.45-17,12.29-2.48,24.65-4.58,36.96-5.92,4.62-.51,9.27-.92,13.92-1.2-11.74,11.09-23.53,22.12-35.37,33.08-19.29,17.86-38.71,35.57-58.23,53.17-19.54,17.63-39.18,35.15-58.87,52.61-9.54,8.45-19.08,16.89-28.64,25.32-1.6,1.41-1.44,4.15,0,5.59,1.59,1.59,3.98,1.42,5.59,0,19.75-17.42,39.47-34.89,59.11-52.44,19.61-17.52,39.15-35.13,58.57-52.87,19.34-17.66,38.56-35.44,57.63-53.39,4.06-3.82,8.1-7.65,12.15-11.48,4.07-.02,8.13.07,12.19.34,5.89.39,10.9,1.01,16.65,2.23,1.3.28,2.59.58,3.88.91.41.11.82.22,1.23.33.04.01.21.08.31.12.59.28,1.14.64,1.69.99.32.2.57.4,1.16.92.43.38.84.77,1.25,1.16.35.34.68.71,1.02,1.06.02.02.02.02.04.04.17.24.33.48.48.73.09.15.16.31.24.47,0,0,0,0,0,.02.03.12.15.59.22.85.02.16.04.34.05.38,0,.2,0,.41,0,.61,0,.22-.03.43-.04.65-.03.14-.05.28-.08.42-.13.54-.27,1.07-.44,1.6-.1.32-.22.63-.34.94-.05.12-.06.17-.07.19-.03.07-.07.14-.11.24-.64,1.4-1.23,2.59-2.19,3.74-4.01,4.82-8.27,9.36-12.8,13.7-18.96,18.17-38.1,36.16-57.38,54-19.29,17.86-38.71,35.57-58.23,53.17-19.54,17.63-39.18,35.15-58.87,52.61-9.54,8.45-19.08,16.89-28.64,25.32-1.6,1.41-1.44,4.15,0,5.59,1.59,1.59,3.98,1.42,5.59,0,19.75-17.42,39.47-34.89,59.11-52.44,19.61-17.53,39.15-35.13,58.57-52.87,19.34-17.66,38.56-35.44,57.63-53.39,9.56-9,19.08-18.04,28.56-27.13,4.51-4.33,8.71-8.93,12.68-13.75,3.42-4.15,5.95-10.58,4.56-16ZM1952.8,433.43c.02-.29.06-.31,0,0h0ZM1162.06,584.02c.15.11.09.07,0,0h0ZM1144.15,578.01c11.89,13.66,28.09,23.39,45.12,29.23,19.26,6.61,39.7,7.23,59.68,3.82,21.75-3.71,42.3-12.19,62.32-21.2,21.92-9.86,43.59-20.25,65.18-30.81,21.48-10.5,42.87-21.19,64.32-31.75,21.12-10.4,42.31-20.68,63.69-30.54,19.76-9.11,39.56-17.82,59.53-25.93,20.36-8.28,40.95-15.99,61.8-22.93,21.06-7.01,42.39-13.24,63.96-18.47,21.73-5.27,43.71-9.52,65.86-12.57,21.03-2.9,43-4.47,64.52-5.49,22.84-1.09,45.8-1.46,68.61.39,11.07.9,21.57,2.24,32.45,4.73,5.09,1.16,10.14,2.56,15.08,4.27,1.23.43,2.46.87,3.67,1.34.54.21,1.07.42,1.6.63.27.11.53.22.79.32.15.06.25.1.32.13.07.03.17.07.31.13,1.04.45,2.07.91,3.09,1.39.55.26,1.11.51,1.64.82.22.13.44.27.65.42.15.13.3.25.44.39.44.41.86.85,1.26,1.3.17.2.34.4.51.61.02.03.07.1.13.16.57.78,1.15,1.58,1.61,2.43.02.04.04.09.07.13.02.02.11.15.14.28,0,0,0,0,0,.01.02.04.04.08.06.12-.02-.04-.04-.06-.05-.09.1.35.17.75.29,1.09-.01.2.03.43.02.62,0,.15-.02.31-.02.46,0,.04,0,.06-.02.11-.11.47-.25.92-.39,1.38-.01.04-.04.12-.07.19-.07.16-.15.32-.23.48-.56,1.1-1.23,2.15-1.97,3.13-1.53,2.05-4.06,3.84-6.23,5.51-4.39,3.39-9.23,6.5-13.97,9.53-4.21,2.69-8.43,5.37-12.65,8.04-4.61-.8-9.25-1.45-13.89-1.99-24.85-2.92-50.01-2.75-74.97-1.68-24.06,1.03-48.05,2.77-71.91,6.08-24.1,3.35-48,8.12-71.59,14.07-23.48,5.92-46.67,13.01-69.54,20.98-22.82,7.95-45.31,16.8-67.56,26.22-22.17,9.39-44.07,19.39-65.81,29.74-23.76,11.31-47.33,23-70.91,34.68-23.51,11.64-47.02,23.26-70.74,34.46-11.55,5.45-23.14,10.85-34.83,16-10.6,4.67-21.58,9.11-32.89,12.61-11.48,3.55-23.16,6.08-34.89,6.88-5.99.41-12.02.42-18.01-.06-1.14-.09-2.28-.2-3.42-.33-.48-.06-.96-.12-1.44-.18-.08-.01-.17-.02-.22-.03-.42-.06-.85-.12-1.27-.19-2.38-.37-4.74-.83-7.09-1.36-4.65-1.06-9.23-2.43-13.7-4.08-1.07-.39-2.13-.81-3.19-1.23-.29-.12-.59-.24-.88-.36-.08-.03-.13-.05-.15-.06-.04-.02-.08-.03-.13-.06-.58-.25-1.16-.5-1.74-.76-2.26-1.01-4.48-2.1-6.67-3.26-4.29-2.28-8.43-4.85-12.36-7.71-.46-.33-.91-.67-1.36-1.01-.08-.06-.34-.26-.42-.32-.14-.11-.28-.21-.41-.32-.98-.77-1.94-1.56-2.89-2.37-1.79-1.53-3.51-3.13-5.17-4.79-1.68-1.69-3.3-3.45-4.82-5.29-.35-.42-.7-.84-1.04-1.27-.1-.12-.19-.24-.29-.36.05.06-.4-.52-.43-.56-.73-.97-1.43-1.95-2.11-2.95-1.28-1.89-2.47-3.84-3.55-5.85-.51-.95-1-1.91-1.47-2.88-.26-.54-.51-1.08-.75-1.63-.06-.14-.13-.29-.19-.43.08.19-.23-.56-.25-.61-.95-2.37-1.76-4.8-2.41-7.26-.36-1.35-.67-2.71-.94-4.08-.12-.64-.24-1.28-.34-1.92-.06-.35-.11-.71-.16-1.06-.04-.28-.04-.28,0,0-.03-.21-.05-.42-.08-.63-.31-2.71-.43-5.44-.36-8.16.03-1.24.1-2.48.2-3.71.05-.61.11-1.23.18-1.84.01-.09.05-.43.07-.56.05-.34.1-.69.15-1.03.35-2.2.82-4.35,1.37-6.48,1.31,1.8,2.69,3.55,4.16,5.24ZM1255.52,448.89c-7.25,2.86-14.23,6.48-20.82,10.49-17.98,10.96-33.93,25.02-49.16,39.46-15.01,14.23-30.48,28.43-41.63,46.03-1.95,3.08-3.75,6.27-5.39,9.56-.03-.07-.05-.13-.06-.15-.18-.45-.35-.89-.51-1.34-.42-1.13-.8-2.28-1.15-3.43-.77-2.53-1.38-5.11-1.82-7.73-.24-1.42-.25-1.49-.38-2.76-.14-1.33-.23-2.66-.27-3.99-.09-2.42-.02-4.84.18-7.25.05-.55.1-1.09.16-1.64,0,.07.05-.45.08-.69.02-.16.06-.44.07-.49.18-1.22.39-2.43.64-3.63.48-2.34,1.09-4.66,1.81-6.94,1.52-4.85,3.08-8.46,5.45-12.97,4.68-8.91,10.34-16.6,16.77-23.96,6.74-7.71,14.14-14.85,21.78-21.66,7.67-6.83,15.34-12.82,23.9-18.44,3.07,1.14,6.14,2.2,9.2,3.17,13.37,4.23,27.2,6.87,41.16,8.36ZM1209.38,254.28c.02-.14.07-.51.08-.59.05-.36.11-.72.17-1.08.11-.65.22-1.29.34-1.93.27-1.43.58-2.86.92-4.28.66-2.72,1.44-5.41,2.33-8.06,1.85-5.51,3.86-10.15,6.47-15.34,4.94-9.8,10.96-19,17.39-27.88,1.44-1.99,2.91-3.97,4.4-5.93.88-1.15.85-1.12,1.77-2.29.81-1.03,1.62-2.05,2.44-3.06,3.17-3.92,6.46-7.75,9.88-11.46,3.43-3.71,6.99-7.3,10.7-10.72,1.83-1.69,3.7-3.34,5.6-4.94.28-.24.57-.47.85-.7,3.51,14.83,13.26,27.52,26.64,34.76-3.98,2.36-7.84,4.94-11.57,7.74-16.4,12.32-30.05,27.7-42.14,44.18-11.51,15.69-22.35,32.99-27.44,51.98-1.85-2.85-3.49-5.84-4.86-8.95-.93-2.11-1.93-5.06-2.61-7.6-.34-1.28-.64-2.57-.9-3.87-.14-.72-.27-1.44-.39-2.16-.12-.77-.17-1.14-.22-1.54-.6-5.42-.55-10.89.14-16.29ZM1151.16,318.48c-.27.36-.12.15,0,0h0ZM1144.55,357.18c-.2-.44-.07-.17,0,0h0ZM1184.11,331.83c-9.72,4.43-18.13,11.5-24.26,20.23-3.57,5.08-6.28,10.83-7.84,16.86-.18-.2-.37-.39-.54-.6-.36-.43-.71-.86-1.05-1.29-.09-.12-.41-.53-.43-.55-.19-.25-.37-.5-.55-.75-.79-1.1-1.54-2.23-2.23-3.39-.66-1.1-1.27-2.22-1.84-3.37-.27-.54-.52-1.1-.77-1.65-.02-.04-.03-.06-.04-.09-.18-.44-.35-.88-.52-1.33-.86-2.31-1.52-4.71-1.93-7.15,0-.01-.01-.08-.03-.17.02.12-.07-.53-.08-.57-.06-.5-.1-1.01-.14-1.51-.08-1.12-.1-2.25-.07-3.38.03-1.04.1-2.08.21-3.11.02-.23.05-.45.08-.68,0-.06.02-.11.02-.15.11-.63.21-1.26.33-1.88.46-2.29,1.11-4.55,1.92-6.74.2-.55.42-1.09.64-1.63.01-.02.02-.04.03-.06.14-.31.27-.62.42-.92.53-1.14,1.1-2.25,1.71-3.35,1.19-2.14,2.55-4.19,4.02-6.14.02-.02.03-.04.04-.06.22-.28.45-.56.68-.84.38-.46.77-.92,1.17-1.37.88-1.01,1.81-1.98,2.76-2.92.88-.87,1.79-1.71,2.73-2.51,1.27-1.09,1.76-1.47,2.75-2.2,2.25-1.65,4.63-3.12,7.09-4.42,1.24-.66,2.51-1.27,3.79-1.83.19-.08.38-.17.57-.25.08-.03.76-.31.74-.3.75-.3,1.51-.59,2.27-.86,2.61-.94,5.27-1.73,7.97-2.36,1.24-.29,2.49-.54,3.75-.75.54-.09,1.08-.17,1.62-.25.18-.02.6-.07.65-.08.36-.04.73-.08,1.09-.11,2.44-.23,4.9-.3,7.35-.17.55.03,1.11.07,1.66.12.21.02,1.1.13,1.19.14,1.03.16,2.05.35,3.06.6,1.05.26,2.09.58,3.1.96.18.07.35.14.53.21-.99-.38-.1-.04.09.05.5.23.99.48,1.47.75.39.22.77.45,1.15.7.17.11.7.52.79.57.61.52,1.21,1.06,1.74,1.67.11.12.21.26.32.38,0,0,0,0,0,.01.23.36.48.7.69,1.07.22.37.39.76.6,1.13,0,.02.01.02.02.03.05.16.12.31.17.47.3.86.49,1.74.66,2.63,0,0,0,0,0,0,0,.02,0,.04,0,.07.01.19.03.39.05.58,0,.02,0,.05,0,.07-.55,6-.42,12.04.55,17.97-10.81-1.6-22-.03-31.97,4.51ZM1950.32,53.94c-25.31,2.04-50.31,7.14-74.95,13.13-22.49,5.46-44.82,11.52-66.71,19.05-22.29,7.66-44.14,16.6-65.5,26.56-21.03,9.8-41.59,20.6-61.7,32.18-19.98,11.5-39.51,23.75-58.69,36.53-18.98,12.65-37.61,25.82-56,39.31-20.78,15.24-41.27,30.87-61.71,46.55-20.69,15.86-41.33,31.78-62.21,47.39-10.39,7.77-20.83,15.47-31.36,23.04-9.38,6.75-18.8,13.45-28.58,19.61-19.27,12.12-39.5,21.68-62.23,24.89-.53.07-1.91.24-2.84.34-1.18.12-2.36.22-3.54.3-2.34.15-4.68.23-7.02.22-4.6-.01-9.19-.32-13.75-.92-.2-.03-.98-.14-1.14-.16-.55-.08-1.1-.17-1.65-.26-1.22-.2-2.45-.42-3.66-.67-2.32-.46-4.62-1-6.9-1.6-4.56-1.21-9.02-2.73-13.38-4.52-.05-.02-.09-.04-.13-.05-.03-.01-.06-.03-.12-.05-.28-.12-.57-.24-.85-.37-.45-.2-.9-.4-1.35-.61-1.12-.51-2.22-1.04-3.32-1.6-2.12-1.07-4.2-2.22-6.24-3.45-1.96-1.19-3.88-2.45-5.74-3.79-.44-.32-.87-.64-1.3-.96-.12-.09-.23-.17-.35-.26-.03-.03-.52-.4-.56-.44-.89-.7-1.76-1.43-2.61-2.17-1.74-1.51-3.41-3.11-5-4.78-.73-.77-1.44-1.55-2.13-2.35-.35-.4-.69-.8-1.02-1.21-.19-.23-.37-.45-.56-.68-.05-.06-.22-.28-.33-.42-3.03-3.95-5.56-8.27-7.57-12.83-.93-2.11-1.92-5.06-2.61-7.6-.34-1.28-.64-2.57-.9-3.87-.14-.72-.27-1.44-.39-2.16-.12-.77-.17-1.14-.22-1.54-.41-3.71-.51-7.45-.32-11.17,13.26,12.12,30.56,19.67,48.07,23.07,9.4,1.82,19.04,2.58,28.6,1.97,11.19-.72,22.3-3.18,32.88-6.86,21.53-7.47,40.84-19.77,59.35-32.85,21.1-14.9,41.78-30.41,62.34-46.05,20.75-15.78,41.35-31.73,62.1-47.52,19.72-15.01,39.57-29.86,59.75-44.24,18.69-13.32,37.66-26.24,57.02-38.56,19.49-12.4,39.37-24.19,59.71-35.13,20.5-11.03,41.46-21.21,62.9-30.26,21.18-8.94,43.71-17.07,66.11-23.68,22.52-6.65,45.44-12.35,68.45-17,12.29-2.48,24.65-4.58,36.96-5.92,12.61-1.38,25.35-2.1,38.03-1.26,5.89.39,10.9,1.01,16.65,2.23,1.3.28,2.59.58,3.88.91.41.11.82.22,1.23.33.04.01.21.08.31.12.59.28,1.14.64,1.69.99.32.2.57.4,1.16.92.43.38.84.76,1.25,1.16.35.34.68.71,1.02,1.06.02.02.02.02.04.04.17.24.33.48.48.73.09.15.16.31.24.47,0,0,0,0,0,.02.03.12.15.59.22.85.02.16.04.34.05.38,0,.2,0,.41,0,.61,0,.22-.03.43-.04.65-.03.14-.05.28-.08.42-.13.54-.27,1.07-.44,1.6-.1.32-.22.63-.34.94-.05.12-.06.17-.07.19-.03.07-.07.15-.11.24-.64,1.4-1.23,2.59-2.19,3.74-4.01,4.82-8.27,9.36-12.8,13.7-4.41,4.23-8.83,8.44-13.26,12.65-4.68.1-9.36.37-14.02.74Z"/>
  <path d="M1952.51,431.28s0-.02,0-.02c-.05-.1-.1-.19-.15-.29-.02-.02,0,.07.15.31Z"/>
  <path d="M1106.04,1373.11c-21.89-7.99-44.39-14.3-67.22-18.97-23.04-4.72-46.43-7.81-69.9-9.32-23.37-1.5-46.85-1.4-70.21.29-23.41,1.69-46.74,4.96-69.7,9.84-22.4,4.77-44.48,11.1-65.95,19.08-22.09,8.21-43.48,18.17-64.02,29.71-21.22,11.91-41.54,25.37-61.27,39.59-19.69,14.2-38.82,29.16-57.88,44.18-18.98,14.95-37.53,29.7-56.87,44.02-18.45,13.66-37.4,26.67-57.06,38.53-10.01,6.03-20.19,11.77-30.58,17.12-5.14,2.65-10.33,5.2-15.56,7.65-2.69,1.26-5.39,2.49-8.1,3.69-2.56,1.13-5.19,2.27-7.44,3.21-21.71,9.04-44.24,16.17-67.34,20.67-11.87,2.31-22.98,3.81-35.04,4.67-12.55.89-25.16.95-37.71.22-24.97-1.47-49.68-6.15-73.62-14.05-11.55-3.81-22.35-8.28-33.27-13.43-10.9-5.13-21.62-10.62-32.61-15.55-20.54-9.22-43.01-17.22-65.88-15.3-9.85.83-19.45,3.15-28.52,7.09-2.1.91-4.17,1.93-6.2,3.06.9-.98,1.82-1.94,2.79-2.85.77-.72,1.55-1.43,2.36-2.11.45-.38.91-.76,1.37-1.13.11-.09.23-.18.34-.27-.01.01.47-.36.57-.43,3.77-2.83,7.83-5.27,12.06-7.35,1.09-.54,2.18-1.05,3.29-1.54.29-.13.58-.25.87-.38.04-.02.08-.03.13-.05.66-.27,1.31-.53,1.97-.79,2.29-.88,4.62-1.67,6.98-2.36,2.36-.69,4.75-1.28,7.16-1.77,1.2-.24,2.41-.46,3.62-.65.44-.07.89-.14,1.33-.2.14-.02.39-.05.48-.06.44-.05.89-.11,1.34-.15,23.76-2.51,47.2,4.09,69.92,10.59,11.81,3.38,23.6,6.86,35.62,9.44,12.33,2.65,24.85,4.47,37.42,5.5,25.13,2.08,50.48.89,75.34-3.31,22.92-3.88,45.3-10.56,66.72-19.58,20.51-8.63,40.1-19.26,58.7-31.45,18.33-12.01,35.71-25.46,52.27-39.79,16.32-14.12,31.85-29.14,46.84-44.66,16.02-16.6,31.46-33.73,46.91-50.85,15.6-17.27,31.21-34.55,47.39-51.27,16.33-16.88,33.25-33.2,51.2-48.35,17.02-14.36,34.86-27.48,53.92-39.25,18.37-11.34,37.58-21.32,57.35-29.98,4.98-2.18,9.24-3.96,14.44-6.03,5.05-2.01,10.13-3.94,15.24-5.78,10.33-3.73,20.79-7.11,31.34-10.16,21.16-6.11,42.7-10.86,64.46-14.24,5.61-.87,10.35-1.53,15.72-2.18,5.46-.67,10.93-1.25,16.41-1.74,11.09-1,22.21-1.64,33.34-1.91,21.88-.54,43.81.34,65.57,2.71,2.64.29,5.27.6,7.9.93,2.73.35,4.4.57,7.25.98,5.24.76,10.46,1.6,15.67,2.54,2.03.36,4.36-.55,4.86-2.76.44-1.93-.58-4.47-2.76-4.86-22.02-3.95-44.33-6.35-66.69-7.22-22.23-.87-44.52-.23-66.67,1.83-22.46,2.09-44.79,5.59-66.8,10.53-21.62,4.85-42.93,11.07-63.74,18.68-20.74,7.58-41.02,16.5-60.55,26.81-19.16,10.11-37.59,21.57-55.06,34.39-19.42,14.25-37.7,29.99-55.09,46.64-17.01,16.28-33.19,33.39-49.09,50.74-15.92,17.38-31.56,35.01-47.54,52.34-15.07,16.35-30.45,32.43-46.61,47.7-7.94,7.51-16.06,14.83-24.39,21.92-8.38,7.13-16.76,13.86-25.3,20.22-17.71,13.2-36.37,25.17-56.01,35.29-19.91,10.26-40.24,18.36-62.04,24.24-24.35,6.57-49.07,9.86-74.29,10.01-16.36.1-32.46-1.16-48.4-3.78,11.56-19.27,20.93-39.72,30.62-59.98,9.64-20.14,19.67-40.21,32.35-58.65,5.98-8.7,12.45-16.81,19.76-24.51.04,0,.08.01.12.02,29.35,3.61,56.07-17.27,59.68-46.62,3.61-29.35-17.27-56.07-46.62-59.68-29.35-3.61-56.07,17.27-59.68,46.62-.91,7.38-.26,14.59,1.67,21.31-8.97,17-15.69,35.19-21.37,53.56-8.22,26.6-14.42,53.85-24.11,79.99-5.38,14.53-11.85,28.65-19.9,42.03-23.39-6.18-46.39-14.26-70.6-16.65-11.25-1.11-22.62-.93-33.68,1.59-9.75,2.23-19.3,6.08-27.75,11.46-7.83,4.98-15.04,11.4-19.8,19.45-1.99,3.36-3.46,6.97-4.33,10.7C3.05,1598.78.02,1606.27,0,1614.33c-.02,10.18,4.79,19.65,11.61,26.98,16.45,17.69,41.82,22.04,64.84,18.85,23.74-3.29,46.04-14.33,64.8-28.97,7.79-6.08,14.98-12.89,21.62-20.2.56.24,1.11.49,1.67.73,22.94,9.91,47.1,16.8,71.82,20.53,24.84,3.74,50.09,4.5,75.08,1.89,23.57-2.46,46.78-7.64,69.26-15.14,22.08-7.37,43.45-16.86,64-27.77,20.24-10.75,39.71-22.89,58.58-35.88,19.35-13.32,38.03-27.59,56.54-42.05,18.7-14.61,37.45-29.64,56.09-43.89,19.06-14.57,38.47-28.7,58.65-41.67,20.06-12.9,40.88-24.65,62.59-34.54,20.04-9.12,41.43-16.86,63.04-22.98,22-6.23,44.44-10.86,67.09-13.96-.12.02.56-.08.8-.11.26-.03.9-.12.79-.1.66-.09,1.32-.17,1.98-.26,1.54-.2,3.08-.39,4.63-.57,2.79-.33,5.59-.64,8.39-.92,5.76-.58,11.52-1.07,17.29-1.46,11.57-.78,23.16-1.17,34.75-1.17,11.61,0,23.21.39,34.79,1.17,5.79.39,11.57.88,17.34,1.47,2.88.29,5.77.61,8.64.96,1.4.17,2.8.34,4.2.52,1.65.21,2.42.31,3.81.5,22.88,3.15,45.55,7.87,67.76,14.22,10.61,3.03,21.11,6.45,31.47,10.23,1.95.71,4.41-.8,4.86-2.76.51-2.23-.68-4.1-2.76-4.86ZM202.81,1491.05c7.56-26.39,14.23-53.15,24.85-78.54,1.73-4.12,3.64-8.28,5.68-12.42,6.5,12.59,17.89,22.41,31.98,26.69-12.79,14.23-23.43,30.28-32.69,47.01-10.86,19.61-19.97,40.11-29.79,60.25-6.04,12.37-12.42,24.57-19.62,36.3-3.71-.72-7.41-1.52-11.11-2.4,14.03-23.94,23.09-50.32,30.71-76.91ZM47.74,1563.04c-.16.07-.5.2,0,0h0ZM32.09,1583.87c.52-.25,1.04-.49,1.56-.72.21-.09.42-.18.63-.28.07-.03.13-.06.17-.08.04-.02.1-.04.16-.07,2.13-.86,4.27-1.65,6.46-2.34,4.48-1.41,9.07-2.42,13.72-3.1.06,0,.1-.01.13-.02.03,0,.05,0,.08-.01.24-.03.48-.06.72-.09.6-.07,1.21-.14,1.81-.2,1.21-.12,2.42-.21,3.63-.28,2.35-.13,4.71-.17,7.07-.11,2.33.06,4.66.22,6.98.49.24.03.47.06.71.09.1.01.18.02.24.03.08.01.19.03.34.05.61.09,1.22.18,1.83.28,1.59.25,3.18.54,4.76.86,5.75,1.15,11.4,2.71,16.96,4.55,11.26,3.74,21.5,8.41,32.23,13.56,1.99.96,3.98,1.92,5.96,2.88-15.21,14.96-33.71,26.96-54.34,32.48-5.72,1.53-11.06,2.47-16.74,2.81-2.92.17-5.85.19-8.78.03-1.35-.07-2.69-.18-4.03-.33-.83-.09-1.9-.25-3.31-.51-2.48-.46-4.94-1.08-7.34-1.85-1.19-.38-2.37-.8-3.54-1.25-.31-.12-.61-.24-.91-.36-.03-.01-.15-.06-.24-.1-.56-.24-1.13-.5-1.68-.76-2.26-1.06-4.45-2.27-6.55-3.63-.95-.61-1.87-1.26-2.78-1.93-.08-.06-.36-.28-.43-.33-.13-.1-.26-.2-.38-.31-.52-.43-1.04-.86-1.54-1.31-1.7-1.52-3.29-3.17-4.72-4.95-.07-.09-.26-.34-.31-.41-.08-.11-.16-.22-.25-.33-.34-.47-.67-.95-.99-1.44-.6-.92-1.15-1.87-1.66-2.85-.24-.46-.47-.92-.68-1.39,0,.01-.12-.29-.21-.48-.08-.19-.2-.49-.19-.48-.41-1.07-.75-2.16-1.04-3.27-.22-.88-.39-1.77-.54-2.67,0-.07-.1-.79-.11-1.01-.05-.58-.08-1.15-.1-1.73-.02-.94,0-1.87.06-2.8.03-.46.11-.92.13-1.37,0-.01,0-.02,0-.03.04-.24.08-.48.12-.72,1.29-1.47,2.68-2.85,4.16-4.13.32-.28.64-.55.96-.82.13-.1.72-.58.88-.7.8-.61,1.62-1.2,2.45-1.76,1.79-1.21,3.65-2.32,5.56-3.34.95-.51,1.92-.99,2.89-1.46ZM106.42,1643.2c-5.02,2.26-10.62,4.34-16.24,5.96-5.66,1.64-11.87,2.95-17.35,3.56-11.88,1.32-23.58.65-34.78-3.38-.57-.21-1.14-.42-1.7-.64-.27-.11-.55-.22-.82-.33-.1-.04-.25-.11-.29-.12-1.29-.57-2.56-1.17-3.8-1.82-2.29-1.19-4.5-2.53-6.61-4.01-1.92-1.35-3.25-2.41-5.22-4.27-.92-.87-1.81-1.76-2.67-2.7-.34-.37-.67-.74-1-1.12-.24-.28-.48-.57-.72-.86-.06-.07-.33-.42-.43-.53-1.35-1.77-2.56-3.66-3.6-5.64-.28-.53-.54-1.06-.79-1.6-.1-.21-.2-.43-.29-.65-.03-.06-.05-.12-.07-.16-.02-.05-.04-.11-.07-.2-.4-1.1-.8-2.19-1.11-3.33-.28-1.01-.51-2.03-.68-3.06,0,0-.05-.31-.08-.52-.02-.21-.06-.51-.06-.51-.06-.58-.1-1.16-.12-1.74-.04-1.06-.02-2.12.05-3.17.03-.4.06-.8.1-1.19.02-.21.19-1.2.01-.13.05-.29.09-.58.14-.87.03-.16.07-.32.1-.48,2.5,8.56,8.5,15.66,15.55,20.98,8.15,6.14,18.18,9.91,28.24,11.3,24.27,3.34,48.88-5.36,68.97-18.58,8.93-5.88,17.2-12.74,24.68-20.36,3.16,1.53,6.33,3.05,9.52,4.53-14.02,14.94-30,27.13-48.87,35.64Z"/>
  <path d="M1310.06,928.31c21.59,11.1,42.69,23.09,63.72,35.2,20.88,12.03,41.69,24.17,62.86,35.68,20.93,11.38,42.28,22.04,64.21,31.37,22.4,9.53,45.36,17.76,68.94,23.84,23.61,6.08,47.84,10.02,72.2,11.13,24.76,1.13,49.62-.81,73.9-5.81,24.04-4.94,47.46-12.89,69.56-23.57,9.2-4.45,18.13-9.42,26.8-14.83,17.24,14.09,36.79,25.23,58.29,31.33,23.28,6.6,49.5,7.56,71.79-3.03,18.39-8.74,35.22-28.33,31.28-49.9-1.39-7.63-5.37-13.93-10.72-18.96-1.44-3.59-3.45-6.97-5.9-10.05-5.29-6.66-12.62-11.72-20.25-15.36-8.77-4.19-18.12-6.73-27.74-7.94-22.12-2.78-44.31,3.82-64.62,12.07-11.14,4.52-22.03,9.63-33.02,14.5-2.26,1-4.54,1.99-6.83,2.95-18.07-22.02-31.12-47.83-42.78-73.83-11.16-24.89-21.61-50.23-35.8-73.6-.19-.32-.4-.63-.59-.95,1.81-4.84,2.96-10.02,3.3-15.44,1.86-29.52-20.55-54.95-50.07-56.82-29.52-1.86-54.95,20.55-56.82,50.07-1.86,29.52,20.55,54.95,50.07,56.82,3.73.24,7.39.08,10.94-.42,12.97,11.38,24.79,24.82,34.89,38.19,13.43,17.79,25.33,36.67,37.89,55.07,7.18,10.52,14.64,20.84,22.69,30.7-23.36,7.38-47.31,11.69-71.6,13.03-24.14,1.33-48.21-.31-71.6-4.84-22.43-4.34-44.33-11.19-65.43-19.94-4.7-1.95-10.07-4.32-15.06-6.65-5.14-2.4-10.23-4.9-15.27-7.5-10-5.15-19.8-10.68-29.41-16.51-19.12-11.59-37.52-24.35-55.36-37.81-17.98-13.56-35.99-28.36-53.67-43-18.11-14.99-36.15-30.08-54.62-44.62-18.76-14.77-37.95-29.01-58-41.99-19.42-12.58-39.64-23.95-60.71-33.55-20.4-9.29-41.49-17.08-63.02-23.34-21.53-6.26-43.49-11.01-65.66-14.31-22.73-3.38-45.68-5.32-68.66-5.7-22.68-.38-45.38.71-67.91,3.31-22.79,2.63-45.4,6.72-67.62,12.44-10.51,2.71-20.93,5.78-31.23,9.21-2.02.67-3.35,2.73-2.76,4.86.54,1.98,2.83,3.44,4.86,2.76,21.2-7.06,42.91-12.58,64.89-16.61,5.52-1.01,11.06-1.93,16.62-2.75,5.57-.83,10.35-1.45,16.12-2.1,11.19-1.27,22.42-2.17,33.67-2.7,22.5-1.06,45.07-.66,67.52,1.19,22.3,1.84,43.74,5.03,65.78,9.84,21.61,4.71,42.9,10.87,63.66,18.52,10.38,3.83,19.86,7.71,29.74,12.22,10.15,4.62,20.12,9.65,29.88,15.04,20.63,11.39,40.35,24.34,59.4,38.18,18.77,13.63,36.63,27.93,54.65,42.73,17.99,14.77,35.79,29.77,53.9,44.39,17.5,14.12,35.31,27.88,53.81,40.68,18.31,12.68,37.27,24.47,56.99,34.84,20.03,10.53,40.88,19.6,62.42,26.59,22,7.13,44.72,11.98,67.74,14.18,24.54,2.35,49.31,1.51,73.68-2.18,23.9-3.61,47.24-10.19,69.52-19.55,21.68-9.11,42.1-20.02,64.82-26.18,10.33-2.8,20.29-4.58,30.98-4.18,2.32.09,4.65.27,6.96.54.18.02.86.11.99.12.54.08,1.07.15,1.61.24,1.21.19,2.41.41,3.61.65,4.5.91,8.93,2.16,13.22,3.78.44.17.89.34,1.33.51.27.11.55.22.82.33.06.02.17.07.27.11,1.04.45,2.08.92,3.11,1.42,1.95.95,3.86,1.98,5.71,3.11.86.52,1.7,1.07,2.53,1.63.36.25.73.5,1.08.75.22.16.44.32.66.48.08.06.36.27.52.39.46.36.9.73,1.34,1.1-2.31-.9-4.65-1.67-6.97-2.31-8.94-2.45-18.38-3.37-27.63-2.89-10.34.54-20.3,2.96-29.94,6.7-21.88,8.48-40.88,22.29-60.23,35.28-9.9,6.64-19.99,12.95-30.54,18.49-10.87,5.7-21.72,10.52-33.12,14.72-22.87,8.44-47.15,14.15-71.04,16.58-12.44,1.27-24.96,1.71-37.46,1.39-11.98-.31-24.53-1.36-36-2.99-24.31-3.45-48.21-9.52-71.45-17.41-22.94-7.79-44.7-17.1-66.46-27.71-21.68-10.57-42.79-22.26-63.74-34.22-21.33-12.18-42.5-24.64-63.96-36.59-21.38-11.91-43.07-23.31-65.38-33.38-22.23-10.04-45.07-18.81-68.55-25.48-22.01-6.26-44.49-10.7-67.17-13.61-22.67-2.91-45.55-4.18-68.41-3.91-23.28.28-46.52,2.19-69.55,5.57-23.02,3.38-45.81,8.31-68.16,14.78-22.29,6.46-44.13,14.48-65.3,23.99-10.1,4.54-20.03,9.44-29.77,14.69-1.88,1.01-2.47,3.61-1.42,5.41,1.11,1.9,3.52,2.43,5.41,1.42,10-5.39,20.2-10.4,30.57-15.04,10.18-4.55,20.44-8.69,31.2-12.6,21.56-7.83,43.66-14.15,66.09-18.97,22.49-4.83,44.29-8.02,67.08-9.8,22.76-1.78,45.65-2.06,68.45-.75,11.3.65,22.58,1.69,33.81,3.12,2.57.33,4.66.62,7.54,1.04,2.85.42,5.7.86,8.55,1.34,5.53.92,11.04,1.93,16.53,3.05,22.32,4.55,44.23,10.85,65.59,18.77,22.75,8.44,44.71,18.57,66.42,29.73ZM1745.28,926.52c-12.56-18.72-25.55-37.3-40.93-53.84-3.91-4.21-7.99-8.25-12.22-12.13,12.21-4.07,22.55-12.44,29.1-23.42,5.57,9.46,10.62,19.28,15.35,29.25,11.94,25.15,21.99,51.21,35.35,75.67,7.28,13.33,15.52,26.14,24.99,38.01-3.52,1.39-7.07,2.73-10.67,4-15.11-18.1-27.86-37.97-40.98-57.53ZM1904.03,973.18c.1-.01.21-.03.27-.04.29-.04.58-.07.88-.1.53-.06,1.05-.11,1.58-.16,1.17-.11,2.35-.2,3.53-.26,2.3-.12,4.6-.16,6.9-.1,2.29.06,4.57.2,6.85.43.52.05,1.04.11,1.56.18,0,0,.29.04.5.06.21.03.53.07.52.07,1.14.17,2.28.36,3.41.57,4.29.82,8.52,1.98,12.59,3.55.45.18.9.37,1.36.54.01,0,.01,0,.02,0,.03.01.04.02.08.03.2.09.39.17.59.26.97.43,1.93.89,2.87,1.38,1.83.94,3.62,1.99,5.32,3.15.38.25.75.52,1.11.78.12.09.59.45.74.56.5.41,1,.83,1.49,1.25.04.13.09.25.13.38.25.84.47,1.69.64,2.55.08.38.15.77.21,1.16,0,.04.07.56.08.58.02.19.04.39.04.43.17,1.93.13,3.86-.06,5.78-.02.1-.1.73-.13.92-.1.57-.22,1.13-.35,1.69-.25,1.07-.56,2.12-.92,3.16-.17.49-.36.98-.55,1.47-.01.03-.02.04-.03.07-.01.02-.03.05-.05.11-.12.27-.24.53-.37.8-.48,1.01-1.01,2-1.59,2.97-.58.98-1.21,1.93-1.87,2.86-.1.13-.5.67-.58.79-.38.49-.77.96-1.18,1.43-1.55,1.8-3.24,3.49-5.04,5.05-.43.38-.87.75-1.32,1.11-.25.2-.5.4-.75.6-.05.04-.06.05-.09.07-.05.04-.1.07-.19.14-1,.73-2,1.44-3.04,2.12-2.1,1.37-4.29,2.6-6.55,3.69-2.25,1.09-3.84,1.74-6.49,2.62-21.71,7.19-46.25,2.36-66.52-6.97-5.19-2.39-10.23-5.1-15.1-8.09-3.24-2-6.57-4.24-9.65-6.49,3.37-2.29,6.75-4.58,10.16-6.82,18.14-11.94,37.29-23.22,58.98-26.32ZM1828.03,1010.97c18.62,14.1,40.37,24.4,63.68,27.4,21.98,2.83,46.1-1.93,61.88-18.5,5.81-6.1,10.14-13.71,11.37-22.04.05.16.12.33.17.49.27.88.51,1.76.7,2.66.09.43.17.86.25,1.3.02.14.04.28.07.42,0,.06.07.62.07.68.1,1.06.14,2.13.12,3.2,0,.59-.04,1.18-.08,1.77-.02.3-.05.59-.08.89-.01.14-.03.29-.05.43-.35,2.3-.93,4.55-1.72,6.73-.08.23-.17.46-.26.69-.01.04-.19.47-.25.63-.16.38-.34.76-.51,1.14-.56,1.19-1.18,2.35-1.84,3.48-.61,1.04-1.27,2.06-1.96,3.05-.33.48-.67.94-1.02,1.41-.06.08-.09.12-.1.14-.04.04-.06.07-.11.14-.24.3-.49.61-.74.91-1.61,1.93-3.35,3.75-5.2,5.45-.99.91-2.02,1.77-3.07,2.62-.03.02-.22.17-.29.23-.17.13-.35.26-.52.39-.66.49-1.32.96-2,1.42-2.15,1.47-4.4,2.8-6.72,3.98-10.08,5.13-21.78,7.35-33.07,7.6-22.92.51-45.73-6.62-65.54-17.86-4.62-2.62-9.1-5.47-13.45-8.52-3.11-2.19-5.81-4.22-8.57-6.44,2.96-1.94,5.9-3.91,8.83-5.89Z"/>
</svg>