<?xml version="1.0" encoding="UTF-8"?>
<svg id="Layer_1" data-name="Layer 1" xmlns="http://www.w3.org/2000/svg" viewBox="0 0 2406.38 1511.39">
  <path d="M748.95,804.65c68.79,90.4,156.53,181.88,111.37,189.67-45.16,7.79-234.06-120.57-265.89-170.63-31.83-50.06-40.98-83.62-48.01-120.37-7.03-36.75-17.16-73.96-43.59-110.49-27.57-38.11-50.97,3.09-50.97,3.09,0,0-90.55,138.76-89.06,190.59,1.49,51.82,15.98,95.17-24.98,117.42-40.96,22.25-194.13,88.26-230.73,65-36.6-23.26-31.35-38,5.69-65,37.04-27,135.83-208.14,165.9-280.33,0,0,55.54-172.6,57.15-215.19,1.61-42.59-47.75-32.66-91.54-26.54-43.79,6.13-69.33,5.65-117.33-35.52C78.97,305.2,6.84,213.68,1.29,168.86c-5.55-44.82,5.98-87.7,50.54-67.1,44.56,20.6,144.65,97.94,196.23,115.91,51.58,17.96,581.94-1.38,638.28-31.37,75.51-40.2,28.51,70.5-25.4,102.85-53.91,32.35-152.84,77.35-209.62,75.74-56.78-1.6-37.44,78.88-37.44,78.88,0,0,49.19,198.57,65.42,237.83,16.23,39.26,63.22,114.63,69.65,123.07Z"/>
  <path d="M1019.14,410.98s0,42.33-39.47,35.03c-39.47-7.3-85.99-13.14-129.69,33.57-43.7,46.71-76.12,100.72-62.03,138.68,14.1,37.95,36.65,33.57,69.07,14.6s125.46-94.89,148.02-77.37c22.55,17.52,15.51,71.53,15.51,71.53,0,0,0,61.31,7.05,87.59,7.05,26.28,16.92,249.62-11.28,265.68-28.19,16.06-62.03,61.31-42.29,87.59,19.74,26.28,46.52,33.57,77.53-7.3,31.01-40.87,115.59-210.21,119.82-376.62l2.82-502.16s4.23-23.36-8.46-46.71c-12.69-23.36-170.57-145.98-242.47-134.3-71.89,11.68-39.47,54.01-39.47,54.01,0,0,131.1,135.76,131.1,166.41s4.23,189.77,4.23,189.77Z"/>
  <path d="M396.01,1139.15s-17.84-39.65,23.79-83.27c41.64-43.62,101.12-67.41,128.87-49.57,27.76,17.84,43.62,33.71,39.65,124.91-3.97,91.2,65.43,130.86,109.05,132.84,43.62,1.98,323.18,3.97,356.88-9.91,33.71-13.88,89.22-59.48,116.98-97.15,27.76-37.67,33.71-55.52,49.57-27.76,15.86,27.76-51.55,263.7-51.55,263.7,0,0-11.9,37.67-41.64,51.55-29.74,13.88-174.48,45.6-388.61-5.95-214.13-51.55-297.4-63.45-287.49-150.68,9.91-87.24-55.52-148.7-55.52-148.7Z"/>
  <path d="M1346.87,19.61s-18.7-23.52-52.98-7.84c-34.28,15.68-6.23,114.98,65.45,190.77,71.68,75.79,99.73,203.84,101.29,270.48,1.56,66.64-20.26,181.62-20.26,181.62,0,0-6.23,24.83,14.03,28.75,20.26,3.92,124.67-31.36,364.65-9.15,239.99,22.21,249.34,3.92,300.76-23.52,51.43-27.44,146.49-94.08,146.49-94.08,0,0,28.05-24.83,17.14-37.89-10.91-13.07-23.38-10.45-77.92-3.92-54.54,6.53-201.03,60.11-383.35,41.81-182.33-18.29-182.33-32.67-182.33-32.67,0,0-45.19-28.75-12.47-49.65,32.73-20.91,335.05-33.97,374-16.99,38.96,16.99,65.45,16.99,98.18,7.84,32.73-9.15,98.18-20.91,152.72-57.49,54.54-36.59,71.68-57.49,56.1-71.87-15.58-14.37-23.38-10.45-71.68-2.61-48.31,7.84-637.37,35.28-657.63-9.15-20.26-44.43,7.79-52.27,29.61-52.27s712.17-3.92,712.17-3.92c0,0,31.17-2.61,46.75-28.75,15.58-26.13,35.84-57.49-62.33-131.97-98.18-74.48-151.16-40.51-151.16-40.51,0,0-21.82,31.36-43.63,36.59-21.82,5.23-93.5,39.2-213.49,36.59-119.99-2.61-339.72-5.23-339.72-5.23,0,0-40.52,1.31-56.1-15.68-15.58-16.99-154.28-99.3-154.28-99.3Z"/>
  <path d="M1831.15,702.96s-27.76-10.21-45.81,41.86c-18.05,52.06-34.71,86.77-34.71,86.77,0,0-8.33,17.35-30.54,16.33-22.21-1.02-104.12,10.21-212.39,10.21s-141.6-28.58-141.6-28.58l-23.6-21.44s-37.48-28.58-77.74-10.21c-40.26,18.38,6.94,57.17,47.2,79.63,40.26,22.46,244.32,99.02,424.79,109.23,180.47,10.21,304.02-20.42,356.77-16.33,52.75,4.08,83.29,11.23,112.44,21.44,29.15,10.21,58.3,0,86.07-20.42,27.76-20.42,122.16-118.42,113.83-141.9-8.33-23.48-27.76-31.65-27.76-31.65,0,0-12.49-10.21-26.38-1.02,0,0-63.86,31.65-119.39,37.77-55.53,6.13-177.69,22.46-177.69,22.46,0,0-83.29,15.31-101.34-10.21-18.05-25.52-90.23-150.07-122.16-143.94Z"/>
  <path d="M2235.76,1138.71c-64.88-121.92-304.19-110.43-371-108.95-66.81,1.47-326.89,21.18-396.29,148.39-69.4,127.21,2.15,225.7,2.15,225.7,124.83,183.43,554.48,86.28,652.06,41.46,97.58-44.82,177.96-184.69,113.07-306.6ZM1965.66,1337.51c-46.43,18.24-252.08,55.17-314.35-25.75,0,0-35.62-43.51-3.74-97.76,31.88-54.25,156.83-59.68,188.97-59.52,32.14.16,147.19-1.95,179.88,51.62,32.69,53.57-4.32,113.17-50.76,131.41Z"/>
</svg>