<?xml version="1.0" encoding="UTF-8"?>
<svg id="Layer_1" data-name="Layer 1" xmlns="http://www.w3.org/2000/svg" viewBox="0 0 1834.93 4104.24">
  <path d="M1435.11,3255.04h50.92c23.03,0,17.27,0,17.27-15.44,0-10.3,19.16-13.04,40.87-13.04,16.87,0,14.72-82.02,14.72-283.13,0-20.59,13.63-52.85,51.64-52.85s147.29,2.96,142.98-20.38c-4.3-23.34,15.78-42.9-8.61-41.53-24.39,1.37-177.95,6.82-185.12-9.65-7.17-16.47,7.3-356.94-8.18-380.85-27.68-42.73-64.55-46.85-64.55-70.03,0-26.9-11.94-45.28,19.65-45.28,113.51,0,131.26,2.06,131.26-29.86s-3.77-38.61-121.93-38.61c-97.55,0-109.44-3.09-109.44,33.12,0,17.85-3.35,21.96-22.05,21.96s-18.12,30.2-18.12,48.05,11.48,42.56,41.6,42.56,53.08,20.59,51.64,53.54c-1.43,32.95,0,680.28,0,709.11v28.83s-10.04,4.12-20.08,8.24c-10.04,4.12-4.48,40.15-4.48,55.25Z" style="fill: #231f20;"/>
  <path d="M1693.28,1217.24c-4.81.18-9.22,1.62-12.06,3.86-15.11,11.92-74.37,53.22-238.48,116.99-135.25,52.56-258.17,74.54-337.17,84.11-.36.04-.73.09-1.09.13-13.34,1.61-23.03-6.57-15.66-13.13,96.32-85.71,178.76-155.24,191.34-161.81,32.65-17.05,76.21-39.26-2.78-47.37-78.99-8.11-311.66-54.75-368.91-74.76-57.25-20-61.16-38.85-81.12-44.43-19.95-5.58-98.78-9.39-100.72,3.79-7.5,50.8-29.5,70.74,5,85.27,34.5,14.53,355.59,38.86,430.47,72.44,6.82,3.06-83.93,87.06-190.66,189.93-2.52,2.43-7,4.12-11.88,4.5-118.54,9.09-209.67,9.15-338.25,15.71-176.13,8.99-351.62,8.96-406.57,52.17-54.95,43.21-134.85,91.32-132.07,114.95,2.79,23.63-7.38,17.68,8.94,32.9,27.81,25.93,62.2,8.74,83.94-3.15,21.74-11.89-4.05-21.21,18.58-41.85,22.63-20.63,78.7-68.64,138.3-80.37,25.37-5,85.42-12.15,149.64-17.88,56.56-5.05,114.31-.79,165,12.99,47.4,12.88,81.03,27.1,93.26,43.24,17.89,23.59,1.38,60.75-16.72,90.3-.46.75-1.1,1.46-1.88,2.13-62.14,52.72-117.94,98.15-154.56,127.13-24.98,19.77-36.77,33.62-62.86,35.4-34.55,2.35-28.11,30.8-23.34,48.35,5.96,21.93,59.4,8.84,212.36,3.1,487.77-18.33,797.54-22.36,823.43-32.53,21.26-8.35,36.13-23.61,44.67-34.55,4.66-5.98-3-12.45-14.43-12.09-106.35,3.36-546.33,17.12-595.64,16.19-56.14-1.05-197.05-5.12-202.35-55.7-2.14-20.43,90.17-114.04,198.52-215.32,2.73-2.55,7.53-4.16,12.72-4.36,13.5-.52,26.82-1.47,39.77-3.01,116.96-13.89,190.84-16.73,378.79-79.68,114.36-38.3,214.16-91.21,290.72-139.09,69.4-43.4,126.11-80.97,149.89-81.86,1.7-.06,3.29-.21,4.77-.43,17.4-2.59,12.38-17.62-5.46-16.95l-125.42,4.71ZM863.75,1474.59c12.07-1.79,25.31-3.44,39.42-5.01,13.11-1.46,22.85,6.34,15.92,12.88-6.8,6.42-13.68,12.85-20.63,19.3-2.97,2.75-8.35,4.48-13.96,4.43-42.65-.44-75.75-3.91-80.93-14.03-3.69-7.21,36.15-14,60.19-17.56ZM1318.09,1432.06c-103.17,31.6-235.81,67.18-319.71,71.08-4.64.22-9.36.43-14.09.64,15.69-14.45,31.53-28.91,47.29-43.19,2.46-2.23,6.5-3.75,11.04-4.17,43.11-4.01,86.37-8.49,124.86-14.35,97.28-14.81,199.29-40.48,298.23-74.67,92.31-31.9,135.18-56.49,140.52-59.65-6.33,3.8-125.33,74.43-288.15,124.31Z" style="fill: #231f20;"/>
  <path d="M203.3,2848.4c18-16.48,28.28-22.65,167.12-22.65s177.89.56,183.03,12.91c5.14,12.36-23.62,24.15-57.05,57.1-33.42,32.95-141.41,115.31-143.98,193.56-2.57,78.25,66.85,160.61,95.13,187.38,28.28,26.77,95.13,24.71,195.4,24.71s172.26-32.95,213.4-80.31c41.14-47.36,41.14-150.32,15.42-218.27-19.69-52.04-115.63-121.72-159.5-151.51-6.75-4.58-3.67-15.11,4.48-15.38,75.15-2.41,286.09-8.35,309.28.09,11.31,4.12,16.45,9.88,18.55,15.32,3.51,9.09,11.62,15.57,21.36,15.57h44.93s0-152.4,0-152.4h-61.7s7.71,10.32-15.43,30.92c-23.14,20.59-51.42,28.49-120.84,28.49h-219.68v-460.76c0-28.83,2.57-39.12,28.28-39.12h26.14v-66.12h-234.68v63.83h37.59c30.85,0,24.9,53.54,24.9,105.02v397.15s-86.63,2.4-148.34,2.4-187.84-4.12-213.55-14.41c-25.71-10.3-25.71-26.77-25.71-26.77h-48.85v121.49s46.28,8.24,64.28-8.23ZM573.27,2906.44c2.78-3.34,5-7.03,7.48-10.59,7.87-11.29,26.91-31.25,51.46-31.25,39.23,0,60.48,32.85,100.74,88.81,45,62.56,77.13,154.43,53.99,207.97-23.14,53.54-66.85,80.31-115.7,92.66-48.85,12.35-120.84,0-185.12-82.37-58.75-75.29,57.47-229.58,87.15-265.24Z" style="fill: #231f20;"/>
  <path d="M1657.56,3512.48c18.99-11.66,27.3-27.96,27.3-47.38,0-36.19-31.55-66.81-75.29-66.81s-79.19,29.34-79.19,65.53c0,16.41,7.34,31.37,19.38,42.86-62.11-3-150.16,4.57-246.39,42.12-214.79,83.81-381.65,195.01-480.8,269.25-31.39,23.5-63.59,51.1-99.2,79.29-62.29-16.5-106.49-44.8-148.81-91.54-67.57-74.64-51.21-209.27-36.44-274.69l-9.32-19.58s-.1.33-.26.84l-6.47-13.58s-5.26,16.25-11.35,41.72c-9.04,33.74-24.19,100.54-23.2,166.67-.86,54.82,8.38,110.6,40.52,147.91,21.85,25.36,44.45,45.37,70.08,61.32-20.62.74-41.39,1.56-61.11,2.49-3.7.18-7.08.33-10.57.48-108.25-7.3-180.2,5.19-236.21,19.52-56.01,14.32-145.43,48.84-146.37,97.67,0,.17.03.32.03.49-2.96,5.97-4.74,12.18-4.86,18.67-1.19,61.93,141.33,61.39,341.99,16.46,104.08-23.3,172.93-47.2,238.36-92.8,29.77,3.17,62.92,5.22,100.44,6.4,93.19,2.93,206.89-2.13,316.33-20.55,14.46-1.71,29.74-3.93,45.99-6.69,130.38-22.14,263.76-76.84,292.23-40.37,28.47,36.46-14.38,80.74-14.38,93.77s59.94,20.84,83.92,14.32c23.98-6.51,38.96-40.37,38.96-40.37,0,0-34.47-1.3-32.97-18.23,1.5-16.93,22.48-100.28-8.99-118.17-27.7-15.75-54.56-15.97-90.52,8.78-8.64,5.95-23.81,12.05-43.15,18.14,6.75-3.97,13.6-7.88,19.97-12.11,163.58-108.77,120.3-216.59,167.2-262.46,38.95-38.09,83.81-64.79,122.76-79.11,1.77-.65,2.4-1.29,2-1.89-1.04-2.95-29.99-6.86-61.62-8.32ZM475.52,4022.66c-126.29,24.38-222.07,30.37-251.57,16.22,32.48-26.11,110.88-48.09,148.6-56.41,45.08-9.95,61.54-9.02,139.42-12.12,41.78-1.66,89.51-2.85,124.82-3.6-44.68,23.15-96.85,43.47-161.28,55.91ZM1609.57,3437.4c17.64,0,27.29,11.83,27.29,26.42s-11.98,28.97-29.61,28.97-29.61-14.38-29.61-28.98,14.3-26.42,31.93-26.42ZM1510.49,3626.06c-25.26,50-25.48,95.38-136.88,174.01-125.28,88.43-301.42,105.45-462.48,109.03-59.26,1.32-96.23,1.35-114.08-2.92,12.83-11.05,32.33-25.26,57.98-43.61l53.9-34.19c123.55-76.83,279.39-168.22,382.44-212.92,99.82-43.3,186-49.17,248.28-52.15,4.21-.2,6.5,4.78,3.63,7.87-13.46,14.5-23.59,36.67-32.8,54.88Z" style="fill: #231f20;"/>
  <path d="M1605.74,501.74l-3.81-1.94c-5.27-2.67-10.79-4.8-16.41-6.62-11.97-3.88-14.65-8.49-28.63-8.49h-79.74c-9.6,0-17.38,9.29-17.38,20.76h0c0,.84-.57,1.53-1.28,1.53h-38.97c-.71,0-1.28-.68-1.28-1.53v-112.02c0-4.84,3.92-8.76,8.76-8.76h31.48c.71,0,1.28.68,1.28,1.53v1.15c0,10.53,7.3,18.97,16.11,18.62l81.9-.16c13.89-.54,19.48,3.08,32.1,7.15,6.15,1.98,12.17,4.36,18.01,7.13h0c7.24,2.2,14.28-4.35,14.28-13.27v-93.19c0-15.04-5.17-27.23-17.75-27.23l-8.88-1.5c-26.08-4.4-31.05-6.28-57.62-5.63l-209.8,7.12c-8.56,0-15.5,8.29-15.5,18.51v8c0,.84-.57,1.53-1.28,1.53h-52.81c-.71,0-1.28-.68-1.28-1.53v-142.98c0-.84.57-1.53,1.28-1.53h52.81c.71,0,1.28.68,1.28,1.53v18.33c0,11.26,7.65,20.4,17.08,20.4l210.54-7.26c22.75-.56,28.57.74,51.03,3.88l19.1,3.38c8.65,0,15.72-8.45,15.72-18.78v-31.29c0-3.72,3.34-6.56,7.02-5.95l67.13,8.36c.71,0,1.28.69,1.28,1.54l-4.2,754.78c0,.86-.6,1.54-1.32,1.52l-73.26-1.71c-.69-.02-1.24-.7-1.24-1.53l.65-387.17c.02-11.56-7.56-22.24-16.41-26.68Z" style="fill: #231f20;"/>
  <path d="M816.71,850.7c-33.23-74.77-23.6-319.36,134.76-459.16,64.97-57.35,122.43-109.46,174.05-212.56,12.59-25.15,28.43-26.04,44.04-46.23,25.67-33.2,21.76-54.61,11.21-76.99-9.8-20.79-22.56-39.77-63.81-52.36-42.05-12.83-84.45,12.49-99.97,45.16-10.97,23.09-1.01,40.77,7.14,55.32,15.76,28.13-104.24,38.33-189.13,57.46-81.8,18.43-170.91,43.2-271.55,65.01-110.16,23.87-220.24,48.9-339.48,85.76-96.83,29.93-161.7,41.69-185.41,67.51-10.43,11.36-22.14,21.19-30.45,27.67-7.21,5.62-10.08,15.27-6.76,23.78,5.21,13.38,16.62,33.19,41.29,50.62,42,29.69,104.72,29.23,186.54,27.38,39.7-.9,75.07-32.4,75.07-32.4-1.49.05-31.49-3.22-61.38-6.11-31-3-64.14-7.98-76.91-17.02-12.87-9.11-11.47-22.79-3.78-39.58,16.17-35.28,259.46-80.31,471.62-133.05,222.24-55.25,335.35-89.54,373.01-88.95,37.66.59,24.86,6.54,8.08,40.27-23.94,48.11-100.39,113.09-173.11,192.11-48.16,52.33-87.6,151.69-138.11,183.25-42.62,26.63-57.74,251.73-66.7,269.67" style="fill: #231f20;"/>
</svg>