<?xml version="1.0" encoding="UTF-8"?>
<svg id="Layer_1" data-name="Layer 1" xmlns="http://www.w3.org/2000/svg" viewBox="0 0 1964.4 1582.81">
  <path d="M1626.65,653.44v.78h-.06c.06-.22.06-.5.06-.78Z" style="fill: #231f20;"/>
  <path d="M95.94,1222.46c-9.21,0-18.5-.38-27.88-1.12l4.87-61.18c44.76,3.54,86.87-3.23,125.2-20.19,58.73-25.98,90.73-68.36,109.84-93.67,98.56-130.54,126.62-401.66,133.54-495.14l-270.46-.28.07-61.37,335.13.35-1.43,32.02c-1.78,39.77-21.01,393.41-147.86,561.41-21.22,28.1-60.7,80.39-133.99,112.82-39.62,17.53-82.24,26.36-127.02,26.36Z" style="fill: #231f20;"/>
  <path d="M1101.82,1554.16l-47.54,27.67c-52.22-69.02-140.99-114.44-241.69-114.44-76.83,0-146.73,26.47-198.73,69.74l-40.28-35.8c48.32-40.64,109.69-69.08,177.98-79.78,19.81-3.17,40.23-4.78,61.04-4.78,11.55,0,23.04.48,34.31,1.49.06,0,.17.06.22.06,4.02.66,8.03,1.08,12.11,1.2,19.36.84,39-4,55.85-15.06,40.78-26.77,49.54-79.66,19.53-118.26-23.6-30.42-64.27-42.85-100.43-33.46l7.98-2.57-.22-.84c-3.79,1.49-7.7,2.75-11.6,3.76l.33.6c1.12-.36,2.29-.66,3.4-.96l-135.74,43.32-13.89-50.08,45.53-14.52,76.49-24.44h.06c7.25-1.43,14.39-3.7,21.2-6.75,10.71-4.9,20.64-11.77,28.96-20.68,33.2-35.44,29.07-88.98-9.21-119.7-38.33-30.72-96.24-26.89-129.44,8.55-1,1.02-2.01,2.09-2.9,3.23-.89,1.14-1.84,2.21-2.73,3.35-23.82,29.4-47.59,58.68-71.41,88.02l-43.41-30,72.92-90.18h.06c2.01-2.51,4.13-4.96,6.42-7.35,52.84-56.47,145.17-62.57,206.15-13.68,58.81,47.15,67.01,128.18,20.14,184.47,29.12,8.9,55.79,26.23,75.15,51.15,46.64,60,34.48,141.69-26.45,185.19,61.2,23.78,113.15,62.75,149.86,111.51Z" style="fill: #231f20;"/>
  <path d="M1963.83,563.91c.05-.75.05-1.5.05-2.25,0-95.99-77.85-173.89-173.84-173.89s-173.89,77.89-173.89,173.89v118.41c-.05.75-.05,1.5-.05,2.25,0,95.99,77.89,173.84,173.89,173.84s173.89-77.85,173.89-173.84c0-.75,0-1.5-.05-2.25v-116.16ZM1908.41,677.23c0,65.4-53.03,118.43-118.43,118.43s-118.47-53.03-118.47-118.43c0-1.03,0-2.06.04-3.09v-107.39c0-65.4,53.03-118.38,118.47-118.38s118.38,52.99,118.38,118.38v110.48Z" style="fill: #231f20;"/>
  <path d="M1963.83,1289.58c.05-.75.05-1.5.05-2.25,0-95.99-77.85-173.89-173.84-173.89s-173.89,77.89-173.89,173.89v118.41c-.05.75-.05,1.5-.05,2.25,0,95.99,77.89,173.84,173.89,173.84s173.89-77.85,173.89-173.84c0-.75,0-1.5-.05-2.25v-116.16ZM1908.41,1402.9c0,65.4-53.03,118.43-118.43,118.43s-118.47-53.03-118.47-118.43c0-1.03,0-2.06.04-3.09v-107.39c0-65.4,53.03-118.38,118.47-118.38s118.38,52.99,118.38,118.38v110.48Z" style="fill: #231f20;"/>
  <rect x="1908.41" y="594.19" width="55.37" height="789.01" style="fill: #231f20;"/>
  <path d="M1963.8,59.37v55.35h-237.17v.28c-30.91,2.62-55.18,28.57-55.18,60.14v496.72h-55.35V175.14c0-38.27,18.58-72.25,47.26-93.28,4.97-3.68,10.27-6.97,15.79-9.76,15.79-8.15,33.75-12.72,52.78-12.72h231.87Z" style="fill: #231f20;"/>
  <path d="M1727.91,988.82v55.23h-1.28v.28c-30.91,2.62-55.18,28.57-55.18,60.14v301.5c-18.47-.39-36.88.5-55.35,1.45v-302.95c0-38.27,18.58-72.25,47.26-93.28,4.97-3.68,10.27-6.97,15.79-9.76,14.67-7.59,31.24-12.05,48.76-12.61Z" style="fill: #231f20;"/>
  <path d="M901.76,1116.18l21.2-6.75c-6.81,3.05-13.95,5.32-21.2,6.75Z" style="fill: #231f20;"/>
  <path d="M171.49,486.7c.05,20.89.09,41.78.14,62.67-.29.04-.57.08-.86.12,0-20.93,0-41.86-.01-62.8.24,0,.49,0,.73,0Z" style="fill: #231f20;"/>
  <path d="M367.84,674.18c0,101.93-82.29,184.62-183.89,184.62S0,776.11,0,674.18c0-1.34,0-2.68.06-3.96h61.43c-.11,1.28-.11,2.62-.11,3.96,0,67.68,54.84,122.52,122.58,122.52s122.52-54.84,122.52-122.52-54.84-122.58-122.52-122.58c-4.46,0-8.81.22-13.17.67v-62.26c4.35-.33,8.76-.5,13.17-.5,101.6,0,183.89,82.68,183.89,184.67Z" style="fill: #231f20;"/>
  <path d="M1521.29,132.02c-2.73,10.54-7.2,21.03-13.45,31.52-15.06,25.16-38.61,45.3-65.83,58.64,1.67,1.17,3.24,2.4,4.8,3.57,50.32,39.72,53.23,108.18,4.24,158.67-13.5,13.89-29.57,25.11-47.14,33.36,1.51.84,3.07,1.67,4.52,2.51,54.51,31.08,90.5,84.64,90.5,145.4,0,.73,0,1.51-.06,2.23v116.16c.06.78.06,1.51.06,2.29,0,8.42-.67,16.68-2.01,24.77-13.89,84.25-97.47,149.02-198.56,149.02s-184.62-64.77-198.51-149.02c-1.34-8.09-2.01-16.35-2.01-24.77,0-.78,0-1.51.06-2.29v-51.22h61.37v46.25c-.06,1.06-.06,2.12-.06,3.18,0,9.93,1.39,19.58,4.07,28.84,14.9,52.67,69.74,91.72,135.07,91.72s120.18-39.05,135.07-91.72c2.68-9.26,4.07-18.91,4.07-28.84v-112.53c0-56.63-45.02-104.11-105.73-117-4.85-1.06-9.76-1.84-14.79-2.4l-87.93-29.12c-3.18-1.79-6.19-3.63-9.04-5.47-12.61-8.2-22.37-17.24-28.45-26.56l38.5-32.97c16.18,17.97,38.33,30.8,63.44,35.6,7.2,1.45,14.67,2.18,22.32,2.18,3.79,0,7.36-.22,10.66-.56,5.19-.5,9.6-1.28,13-1.84,20.03-3.63,49.82-8.98,70.58-32.81,3.57-4.18,29.63-34.87,19.42-68.18-4.35-14.23-14.12-27-29.07-36.38-9.04-5.64-19.19-9.48-29.74-11.55-48.99,6.19-99.65,3.68-149.64-8.54-1.39-.33-2.79-.67-4.18-1.06-.73-.17-1.39-.33-2.12-.61-20.2-5.19-39.56-11.88-57.86-19.92-43.52-18.97-81.68-45.19-113.26-76.77l39.61-39.56c27.9,28.34,61.87,51.89,100.82,68.57,16.85,7.25,34.65,13.28,53.34,17.85,5.3,1.28,10.66,2.45,16.01,3.51,2.12.45,4.24.84,6.36,1.17,2.4.45,4.8.84,7.2,1.23,18.64,2.79,37.27,4.18,55.74,4.13,17.41-.06,34.65-1.45,51.66-3.96,21.2-3.24,42.07-8.37,62.21-15.23,9.54-7.14,17.74-15.96,23.77-26,23.43-39.11,6.58-82.74-37.72-97.64-44.3-15.01-99.2,4.52-122.69,43.46-1.28,2.29-2.51,4.58-3.63,6.7l-38.11-31.36c40-56.24,122.46-83.35,189.58-60.7,58.75,19.86,87.26,71.47,73.53,124.03Z" style="fill: #231f20;"/>
  <path d="M1316.98,450.37c-.33-.11-.72-.11-1.06-.17-33.92-5.75-64.05-16.12-86.87-28.96l87.93,29.12Z" style="fill: #231f20;"/>
  <path d="M799.9,183.48v62.1c-100.82-.06-182.66-81.57-183.84-182.5h61.43c1.12,66.67,55.46,120.34,122.41,120.4Z" style="fill: #231f20;"/>
  <rect x="637.37" y="490.65" width="162.49" height="61.35" style="fill: #231f20;"/>
  <path d="M983.73,368.13c0,63.99-32.47,120.46-81.79,153.54h-102.1v-31.02c67.68,0,122.58-54.84,122.58-122.52s-54.9-122.58-122.58-122.58v-62.1c101.6,0,183.89,82.68,183.89,184.67Z" style="fill: #231f20;"/>
  <path d="M983.73,674.58c0,101.93-82.29,184.62-183.95,184.62s-183.89-82.68-183.89-184.62c0-1.34,0-2.62.06-3.91h61.43c-.11,1.28-.11,2.62-.11,3.91,0,67.68,54.84,122.52,122.52,122.52s122.58-54.84,122.58-122.52-54.84-122.52-122.52-122.58v-31.08h102.1c49.32,33.14,81.79,89.6,81.79,153.65Z" style="fill: #231f20;"/>
</svg>